%
M48
M72
T01C0.0197
T02C0.0236
T03C0.0320
T04C0.0354
T05C0.0360
T06C0.0394
T07C0.0400
T08C0.1260
%
T01
X3850Y4850
X8050Y10250
X13150Y7450
X16650Y6050
X13850Y2950
X12850Y2650
X11450Y16750
T02
X13850Y17650
X13250Y12850
X13850Y12150
X15450Y8750
X16650Y7550
X18050Y7550
X18050Y8250
X19250Y7550
X16650Y4750
X16850Y4250
X16850Y2150
X13850Y4750
X11950Y2150
X10150Y4450
X8750Y6450
X9250Y7950
X10250Y7450
X10350Y8750
X6050Y13850
X4950Y8950
X4450Y8850
X3650Y7950
X3850Y6850
X5350Y7950
X4450Y4550
X9250Y2250
T03
X14350Y10650
X12604Y11396
X11896Y12104
X6250Y11450
X850Y11450
X850Y18350
X6250Y18350
T04
X6250Y19260
X850Y19260
X850Y10260
X1950Y10260
X5150Y10260
X6250Y10260
T05
X12550Y13550
X12550Y14550
X12550Y15750
X12550Y16750
T06
X14350Y14650
X14350Y13650
X15350Y13650
X15350Y14650
X16350Y14650
X16350Y13650
X17350Y13650
X17350Y14650
T07
X1050Y850
X1050Y1850
X1050Y2850
X1050Y3850
X2750Y3850
X2750Y2850
X2750Y1850
X2750Y850
X4550Y850
X4550Y1850
X4550Y2850
X6050Y2450
X6050Y1450
X6050Y3450
X6050Y4450
X6050Y5450
X6050Y6450
X6050Y7450
X6050Y8450
X7550Y11750
X7550Y12750
X8550Y12750
X8550Y11750
X9550Y11750
X9550Y12750
X10550Y12750
X10550Y11750
X10850Y9950
X9850Y9950
X11850Y9950
X12850Y9950
X13850Y9950
X14850Y9950
X15850Y9950
X16850Y9950
X12250Y18350
X11250Y18350
X8950Y18350
X7950Y18350
X2750Y13850
X2750Y12850
X2750Y11850
X2750Y10850
X2750Y9850
X2750Y8850
X2750Y7850
X2750Y6850
X2750Y5850
X2750Y4850
X1050Y5850
X1050Y6850
X1050Y7850
X1050Y8850
X9850Y950
X10850Y950
X11850Y950
X12850Y950
X13850Y950
X14850Y950
X15850Y950
X16850Y950
T08
X18750Y1350
X8050Y1350
X3550Y16750
X16450Y16750
M30
