G75*
%MOIN*%
%OFA0B0*%
%FSLAX25Y25*%
%IPPOS*%
%LPD*%
%AMOC8*
5,1,8,0,0,1.08239X$1,22.5*
%
%ADD10C,0.00000*%
D10*
X0001500Y0003736D02*
X0001500Y0195264D01*
X0001502Y0195356D01*
X0001508Y0195449D01*
X0001517Y0195541D01*
X0001530Y0195632D01*
X0001548Y0195723D01*
X0001568Y0195813D01*
X0001593Y0195902D01*
X0001621Y0195990D01*
X0001653Y0196077D01*
X0001688Y0196162D01*
X0001727Y0196246D01*
X0001769Y0196328D01*
X0001815Y0196409D01*
X0001864Y0196487D01*
X0001916Y0196563D01*
X0001971Y0196637D01*
X0002030Y0196709D01*
X0002091Y0196778D01*
X0002155Y0196845D01*
X0002222Y0196909D01*
X0002291Y0196970D01*
X0002363Y0197029D01*
X0002437Y0197084D01*
X0002513Y0197136D01*
X0002591Y0197185D01*
X0002672Y0197231D01*
X0002754Y0197273D01*
X0002838Y0197312D01*
X0002923Y0197347D01*
X0003010Y0197379D01*
X0003098Y0197407D01*
X0003187Y0197432D01*
X0003277Y0197452D01*
X0003368Y0197470D01*
X0003459Y0197483D01*
X0003551Y0197492D01*
X0003644Y0197498D01*
X0003736Y0197500D01*
X0195264Y0197500D01*
X0195356Y0197498D01*
X0195449Y0197492D01*
X0195541Y0197483D01*
X0195632Y0197470D01*
X0195723Y0197452D01*
X0195813Y0197432D01*
X0195902Y0197407D01*
X0195990Y0197379D01*
X0196077Y0197347D01*
X0196162Y0197312D01*
X0196246Y0197273D01*
X0196328Y0197231D01*
X0196409Y0197185D01*
X0196487Y0197136D01*
X0196563Y0197084D01*
X0196637Y0197029D01*
X0196709Y0196970D01*
X0196778Y0196909D01*
X0196845Y0196845D01*
X0196909Y0196778D01*
X0196970Y0196709D01*
X0197029Y0196637D01*
X0197084Y0196563D01*
X0197136Y0196487D01*
X0197185Y0196409D01*
X0197231Y0196328D01*
X0197273Y0196246D01*
X0197312Y0196162D01*
X0197347Y0196077D01*
X0197379Y0195990D01*
X0197407Y0195902D01*
X0197432Y0195813D01*
X0197452Y0195723D01*
X0197470Y0195632D01*
X0197483Y0195541D01*
X0197492Y0195449D01*
X0197498Y0195356D01*
X0197500Y0195264D01*
X0197500Y0003736D01*
X0197498Y0003644D01*
X0197492Y0003551D01*
X0197483Y0003459D01*
X0197470Y0003368D01*
X0197452Y0003277D01*
X0197432Y0003187D01*
X0197407Y0003098D01*
X0197379Y0003010D01*
X0197347Y0002923D01*
X0197312Y0002838D01*
X0197273Y0002754D01*
X0197231Y0002672D01*
X0197185Y0002591D01*
X0197136Y0002513D01*
X0197084Y0002437D01*
X0197029Y0002363D01*
X0196970Y0002291D01*
X0196909Y0002222D01*
X0196845Y0002155D01*
X0196778Y0002091D01*
X0196709Y0002030D01*
X0196637Y0001971D01*
X0196563Y0001916D01*
X0196487Y0001864D01*
X0196409Y0001815D01*
X0196328Y0001769D01*
X0196246Y0001727D01*
X0196162Y0001688D01*
X0196077Y0001653D01*
X0195990Y0001621D01*
X0195902Y0001593D01*
X0195813Y0001568D01*
X0195723Y0001548D01*
X0195632Y0001530D01*
X0195541Y0001517D01*
X0195449Y0001508D01*
X0195356Y0001502D01*
X0195264Y0001500D01*
X0003736Y0001500D01*
X0003644Y0001502D01*
X0003551Y0001508D01*
X0003459Y0001517D01*
X0003368Y0001530D01*
X0003277Y0001548D01*
X0003187Y0001568D01*
X0003098Y0001593D01*
X0003010Y0001621D01*
X0002923Y0001653D01*
X0002838Y0001688D01*
X0002754Y0001727D01*
X0002672Y0001769D01*
X0002591Y0001815D01*
X0002513Y0001864D01*
X0002437Y0001916D01*
X0002363Y0001971D01*
X0002291Y0002030D01*
X0002222Y0002091D01*
X0002155Y0002155D01*
X0002091Y0002222D01*
X0002030Y0002291D01*
X0001971Y0002363D01*
X0001916Y0002437D01*
X0001864Y0002513D01*
X0001815Y0002591D01*
X0001769Y0002672D01*
X0001727Y0002754D01*
X0001688Y0002838D01*
X0001653Y0002923D01*
X0001621Y0003010D01*
X0001593Y0003098D01*
X0001568Y0003187D01*
X0001548Y0003277D01*
X0001530Y0003368D01*
X0001517Y0003459D01*
X0001508Y0003551D01*
X0001502Y0003644D01*
X0001500Y0003736D01*
X0074201Y0013500D02*
X0074203Y0013658D01*
X0074209Y0013816D01*
X0074219Y0013974D01*
X0074233Y0014132D01*
X0074251Y0014289D01*
X0074272Y0014446D01*
X0074298Y0014602D01*
X0074328Y0014758D01*
X0074361Y0014913D01*
X0074399Y0015066D01*
X0074440Y0015219D01*
X0074485Y0015371D01*
X0074534Y0015522D01*
X0074587Y0015671D01*
X0074643Y0015819D01*
X0074703Y0015965D01*
X0074767Y0016110D01*
X0074835Y0016253D01*
X0074906Y0016395D01*
X0074980Y0016535D01*
X0075058Y0016672D01*
X0075140Y0016808D01*
X0075224Y0016942D01*
X0075313Y0017073D01*
X0075404Y0017202D01*
X0075499Y0017329D01*
X0075596Y0017454D01*
X0075697Y0017576D01*
X0075801Y0017695D01*
X0075908Y0017812D01*
X0076018Y0017926D01*
X0076131Y0018037D01*
X0076246Y0018146D01*
X0076364Y0018251D01*
X0076485Y0018353D01*
X0076608Y0018453D01*
X0076734Y0018549D01*
X0076862Y0018642D01*
X0076992Y0018732D01*
X0077125Y0018818D01*
X0077260Y0018902D01*
X0077396Y0018981D01*
X0077535Y0019058D01*
X0077676Y0019130D01*
X0077818Y0019200D01*
X0077962Y0019265D01*
X0078108Y0019327D01*
X0078255Y0019385D01*
X0078404Y0019440D01*
X0078554Y0019491D01*
X0078705Y0019538D01*
X0078857Y0019581D01*
X0079010Y0019620D01*
X0079165Y0019656D01*
X0079320Y0019687D01*
X0079476Y0019715D01*
X0079632Y0019739D01*
X0079789Y0019759D01*
X0079947Y0019775D01*
X0080104Y0019787D01*
X0080263Y0019795D01*
X0080421Y0019799D01*
X0080579Y0019799D01*
X0080737Y0019795D01*
X0080896Y0019787D01*
X0081053Y0019775D01*
X0081211Y0019759D01*
X0081368Y0019739D01*
X0081524Y0019715D01*
X0081680Y0019687D01*
X0081835Y0019656D01*
X0081990Y0019620D01*
X0082143Y0019581D01*
X0082295Y0019538D01*
X0082446Y0019491D01*
X0082596Y0019440D01*
X0082745Y0019385D01*
X0082892Y0019327D01*
X0083038Y0019265D01*
X0083182Y0019200D01*
X0083324Y0019130D01*
X0083465Y0019058D01*
X0083604Y0018981D01*
X0083740Y0018902D01*
X0083875Y0018818D01*
X0084008Y0018732D01*
X0084138Y0018642D01*
X0084266Y0018549D01*
X0084392Y0018453D01*
X0084515Y0018353D01*
X0084636Y0018251D01*
X0084754Y0018146D01*
X0084869Y0018037D01*
X0084982Y0017926D01*
X0085092Y0017812D01*
X0085199Y0017695D01*
X0085303Y0017576D01*
X0085404Y0017454D01*
X0085501Y0017329D01*
X0085596Y0017202D01*
X0085687Y0017073D01*
X0085776Y0016942D01*
X0085860Y0016808D01*
X0085942Y0016672D01*
X0086020Y0016535D01*
X0086094Y0016395D01*
X0086165Y0016253D01*
X0086233Y0016110D01*
X0086297Y0015965D01*
X0086357Y0015819D01*
X0086413Y0015671D01*
X0086466Y0015522D01*
X0086515Y0015371D01*
X0086560Y0015219D01*
X0086601Y0015066D01*
X0086639Y0014913D01*
X0086672Y0014758D01*
X0086702Y0014602D01*
X0086728Y0014446D01*
X0086749Y0014289D01*
X0086767Y0014132D01*
X0086781Y0013974D01*
X0086791Y0013816D01*
X0086797Y0013658D01*
X0086799Y0013500D01*
X0086797Y0013342D01*
X0086791Y0013184D01*
X0086781Y0013026D01*
X0086767Y0012868D01*
X0086749Y0012711D01*
X0086728Y0012554D01*
X0086702Y0012398D01*
X0086672Y0012242D01*
X0086639Y0012087D01*
X0086601Y0011934D01*
X0086560Y0011781D01*
X0086515Y0011629D01*
X0086466Y0011478D01*
X0086413Y0011329D01*
X0086357Y0011181D01*
X0086297Y0011035D01*
X0086233Y0010890D01*
X0086165Y0010747D01*
X0086094Y0010605D01*
X0086020Y0010465D01*
X0085942Y0010328D01*
X0085860Y0010192D01*
X0085776Y0010058D01*
X0085687Y0009927D01*
X0085596Y0009798D01*
X0085501Y0009671D01*
X0085404Y0009546D01*
X0085303Y0009424D01*
X0085199Y0009305D01*
X0085092Y0009188D01*
X0084982Y0009074D01*
X0084869Y0008963D01*
X0084754Y0008854D01*
X0084636Y0008749D01*
X0084515Y0008647D01*
X0084392Y0008547D01*
X0084266Y0008451D01*
X0084138Y0008358D01*
X0084008Y0008268D01*
X0083875Y0008182D01*
X0083740Y0008098D01*
X0083604Y0008019D01*
X0083465Y0007942D01*
X0083324Y0007870D01*
X0083182Y0007800D01*
X0083038Y0007735D01*
X0082892Y0007673D01*
X0082745Y0007615D01*
X0082596Y0007560D01*
X0082446Y0007509D01*
X0082295Y0007462D01*
X0082143Y0007419D01*
X0081990Y0007380D01*
X0081835Y0007344D01*
X0081680Y0007313D01*
X0081524Y0007285D01*
X0081368Y0007261D01*
X0081211Y0007241D01*
X0081053Y0007225D01*
X0080896Y0007213D01*
X0080737Y0007205D01*
X0080579Y0007201D01*
X0080421Y0007201D01*
X0080263Y0007205D01*
X0080104Y0007213D01*
X0079947Y0007225D01*
X0079789Y0007241D01*
X0079632Y0007261D01*
X0079476Y0007285D01*
X0079320Y0007313D01*
X0079165Y0007344D01*
X0079010Y0007380D01*
X0078857Y0007419D01*
X0078705Y0007462D01*
X0078554Y0007509D01*
X0078404Y0007560D01*
X0078255Y0007615D01*
X0078108Y0007673D01*
X0077962Y0007735D01*
X0077818Y0007800D01*
X0077676Y0007870D01*
X0077535Y0007942D01*
X0077396Y0008019D01*
X0077260Y0008098D01*
X0077125Y0008182D01*
X0076992Y0008268D01*
X0076862Y0008358D01*
X0076734Y0008451D01*
X0076608Y0008547D01*
X0076485Y0008647D01*
X0076364Y0008749D01*
X0076246Y0008854D01*
X0076131Y0008963D01*
X0076018Y0009074D01*
X0075908Y0009188D01*
X0075801Y0009305D01*
X0075697Y0009424D01*
X0075596Y0009546D01*
X0075499Y0009671D01*
X0075404Y0009798D01*
X0075313Y0009927D01*
X0075224Y0010058D01*
X0075140Y0010192D01*
X0075058Y0010328D01*
X0074980Y0010465D01*
X0074906Y0010605D01*
X0074835Y0010747D01*
X0074767Y0010890D01*
X0074703Y0011035D01*
X0074643Y0011181D01*
X0074587Y0011329D01*
X0074534Y0011478D01*
X0074485Y0011629D01*
X0074440Y0011781D01*
X0074399Y0011934D01*
X0074361Y0012087D01*
X0074328Y0012242D01*
X0074298Y0012398D01*
X0074272Y0012554D01*
X0074251Y0012711D01*
X0074233Y0012868D01*
X0074219Y0013026D01*
X0074209Y0013184D01*
X0074203Y0013342D01*
X0074201Y0013500D01*
X0181201Y0013500D02*
X0181203Y0013658D01*
X0181209Y0013816D01*
X0181219Y0013974D01*
X0181233Y0014132D01*
X0181251Y0014289D01*
X0181272Y0014446D01*
X0181298Y0014602D01*
X0181328Y0014758D01*
X0181361Y0014913D01*
X0181399Y0015066D01*
X0181440Y0015219D01*
X0181485Y0015371D01*
X0181534Y0015522D01*
X0181587Y0015671D01*
X0181643Y0015819D01*
X0181703Y0015965D01*
X0181767Y0016110D01*
X0181835Y0016253D01*
X0181906Y0016395D01*
X0181980Y0016535D01*
X0182058Y0016672D01*
X0182140Y0016808D01*
X0182224Y0016942D01*
X0182313Y0017073D01*
X0182404Y0017202D01*
X0182499Y0017329D01*
X0182596Y0017454D01*
X0182697Y0017576D01*
X0182801Y0017695D01*
X0182908Y0017812D01*
X0183018Y0017926D01*
X0183131Y0018037D01*
X0183246Y0018146D01*
X0183364Y0018251D01*
X0183485Y0018353D01*
X0183608Y0018453D01*
X0183734Y0018549D01*
X0183862Y0018642D01*
X0183992Y0018732D01*
X0184125Y0018818D01*
X0184260Y0018902D01*
X0184396Y0018981D01*
X0184535Y0019058D01*
X0184676Y0019130D01*
X0184818Y0019200D01*
X0184962Y0019265D01*
X0185108Y0019327D01*
X0185255Y0019385D01*
X0185404Y0019440D01*
X0185554Y0019491D01*
X0185705Y0019538D01*
X0185857Y0019581D01*
X0186010Y0019620D01*
X0186165Y0019656D01*
X0186320Y0019687D01*
X0186476Y0019715D01*
X0186632Y0019739D01*
X0186789Y0019759D01*
X0186947Y0019775D01*
X0187104Y0019787D01*
X0187263Y0019795D01*
X0187421Y0019799D01*
X0187579Y0019799D01*
X0187737Y0019795D01*
X0187896Y0019787D01*
X0188053Y0019775D01*
X0188211Y0019759D01*
X0188368Y0019739D01*
X0188524Y0019715D01*
X0188680Y0019687D01*
X0188835Y0019656D01*
X0188990Y0019620D01*
X0189143Y0019581D01*
X0189295Y0019538D01*
X0189446Y0019491D01*
X0189596Y0019440D01*
X0189745Y0019385D01*
X0189892Y0019327D01*
X0190038Y0019265D01*
X0190182Y0019200D01*
X0190324Y0019130D01*
X0190465Y0019058D01*
X0190604Y0018981D01*
X0190740Y0018902D01*
X0190875Y0018818D01*
X0191008Y0018732D01*
X0191138Y0018642D01*
X0191266Y0018549D01*
X0191392Y0018453D01*
X0191515Y0018353D01*
X0191636Y0018251D01*
X0191754Y0018146D01*
X0191869Y0018037D01*
X0191982Y0017926D01*
X0192092Y0017812D01*
X0192199Y0017695D01*
X0192303Y0017576D01*
X0192404Y0017454D01*
X0192501Y0017329D01*
X0192596Y0017202D01*
X0192687Y0017073D01*
X0192776Y0016942D01*
X0192860Y0016808D01*
X0192942Y0016672D01*
X0193020Y0016535D01*
X0193094Y0016395D01*
X0193165Y0016253D01*
X0193233Y0016110D01*
X0193297Y0015965D01*
X0193357Y0015819D01*
X0193413Y0015671D01*
X0193466Y0015522D01*
X0193515Y0015371D01*
X0193560Y0015219D01*
X0193601Y0015066D01*
X0193639Y0014913D01*
X0193672Y0014758D01*
X0193702Y0014602D01*
X0193728Y0014446D01*
X0193749Y0014289D01*
X0193767Y0014132D01*
X0193781Y0013974D01*
X0193791Y0013816D01*
X0193797Y0013658D01*
X0193799Y0013500D01*
X0193797Y0013342D01*
X0193791Y0013184D01*
X0193781Y0013026D01*
X0193767Y0012868D01*
X0193749Y0012711D01*
X0193728Y0012554D01*
X0193702Y0012398D01*
X0193672Y0012242D01*
X0193639Y0012087D01*
X0193601Y0011934D01*
X0193560Y0011781D01*
X0193515Y0011629D01*
X0193466Y0011478D01*
X0193413Y0011329D01*
X0193357Y0011181D01*
X0193297Y0011035D01*
X0193233Y0010890D01*
X0193165Y0010747D01*
X0193094Y0010605D01*
X0193020Y0010465D01*
X0192942Y0010328D01*
X0192860Y0010192D01*
X0192776Y0010058D01*
X0192687Y0009927D01*
X0192596Y0009798D01*
X0192501Y0009671D01*
X0192404Y0009546D01*
X0192303Y0009424D01*
X0192199Y0009305D01*
X0192092Y0009188D01*
X0191982Y0009074D01*
X0191869Y0008963D01*
X0191754Y0008854D01*
X0191636Y0008749D01*
X0191515Y0008647D01*
X0191392Y0008547D01*
X0191266Y0008451D01*
X0191138Y0008358D01*
X0191008Y0008268D01*
X0190875Y0008182D01*
X0190740Y0008098D01*
X0190604Y0008019D01*
X0190465Y0007942D01*
X0190324Y0007870D01*
X0190182Y0007800D01*
X0190038Y0007735D01*
X0189892Y0007673D01*
X0189745Y0007615D01*
X0189596Y0007560D01*
X0189446Y0007509D01*
X0189295Y0007462D01*
X0189143Y0007419D01*
X0188990Y0007380D01*
X0188835Y0007344D01*
X0188680Y0007313D01*
X0188524Y0007285D01*
X0188368Y0007261D01*
X0188211Y0007241D01*
X0188053Y0007225D01*
X0187896Y0007213D01*
X0187737Y0007205D01*
X0187579Y0007201D01*
X0187421Y0007201D01*
X0187263Y0007205D01*
X0187104Y0007213D01*
X0186947Y0007225D01*
X0186789Y0007241D01*
X0186632Y0007261D01*
X0186476Y0007285D01*
X0186320Y0007313D01*
X0186165Y0007344D01*
X0186010Y0007380D01*
X0185857Y0007419D01*
X0185705Y0007462D01*
X0185554Y0007509D01*
X0185404Y0007560D01*
X0185255Y0007615D01*
X0185108Y0007673D01*
X0184962Y0007735D01*
X0184818Y0007800D01*
X0184676Y0007870D01*
X0184535Y0007942D01*
X0184396Y0008019D01*
X0184260Y0008098D01*
X0184125Y0008182D01*
X0183992Y0008268D01*
X0183862Y0008358D01*
X0183734Y0008451D01*
X0183608Y0008547D01*
X0183485Y0008647D01*
X0183364Y0008749D01*
X0183246Y0008854D01*
X0183131Y0008963D01*
X0183018Y0009074D01*
X0182908Y0009188D01*
X0182801Y0009305D01*
X0182697Y0009424D01*
X0182596Y0009546D01*
X0182499Y0009671D01*
X0182404Y0009798D01*
X0182313Y0009927D01*
X0182224Y0010058D01*
X0182140Y0010192D01*
X0182058Y0010328D01*
X0181980Y0010465D01*
X0181906Y0010605D01*
X0181835Y0010747D01*
X0181767Y0010890D01*
X0181703Y0011035D01*
X0181643Y0011181D01*
X0181587Y0011329D01*
X0181534Y0011478D01*
X0181485Y0011629D01*
X0181440Y0011781D01*
X0181399Y0011934D01*
X0181361Y0012087D01*
X0181328Y0012242D01*
X0181298Y0012398D01*
X0181272Y0012554D01*
X0181251Y0012711D01*
X0181233Y0012868D01*
X0181219Y0013026D01*
X0181209Y0013184D01*
X0181203Y0013342D01*
X0181201Y0013500D01*
X0158201Y0167500D02*
X0158203Y0167658D01*
X0158209Y0167816D01*
X0158219Y0167974D01*
X0158233Y0168132D01*
X0158251Y0168289D01*
X0158272Y0168446D01*
X0158298Y0168602D01*
X0158328Y0168758D01*
X0158361Y0168913D01*
X0158399Y0169066D01*
X0158440Y0169219D01*
X0158485Y0169371D01*
X0158534Y0169522D01*
X0158587Y0169671D01*
X0158643Y0169819D01*
X0158703Y0169965D01*
X0158767Y0170110D01*
X0158835Y0170253D01*
X0158906Y0170395D01*
X0158980Y0170535D01*
X0159058Y0170672D01*
X0159140Y0170808D01*
X0159224Y0170942D01*
X0159313Y0171073D01*
X0159404Y0171202D01*
X0159499Y0171329D01*
X0159596Y0171454D01*
X0159697Y0171576D01*
X0159801Y0171695D01*
X0159908Y0171812D01*
X0160018Y0171926D01*
X0160131Y0172037D01*
X0160246Y0172146D01*
X0160364Y0172251D01*
X0160485Y0172353D01*
X0160608Y0172453D01*
X0160734Y0172549D01*
X0160862Y0172642D01*
X0160992Y0172732D01*
X0161125Y0172818D01*
X0161260Y0172902D01*
X0161396Y0172981D01*
X0161535Y0173058D01*
X0161676Y0173130D01*
X0161818Y0173200D01*
X0161962Y0173265D01*
X0162108Y0173327D01*
X0162255Y0173385D01*
X0162404Y0173440D01*
X0162554Y0173491D01*
X0162705Y0173538D01*
X0162857Y0173581D01*
X0163010Y0173620D01*
X0163165Y0173656D01*
X0163320Y0173687D01*
X0163476Y0173715D01*
X0163632Y0173739D01*
X0163789Y0173759D01*
X0163947Y0173775D01*
X0164104Y0173787D01*
X0164263Y0173795D01*
X0164421Y0173799D01*
X0164579Y0173799D01*
X0164737Y0173795D01*
X0164896Y0173787D01*
X0165053Y0173775D01*
X0165211Y0173759D01*
X0165368Y0173739D01*
X0165524Y0173715D01*
X0165680Y0173687D01*
X0165835Y0173656D01*
X0165990Y0173620D01*
X0166143Y0173581D01*
X0166295Y0173538D01*
X0166446Y0173491D01*
X0166596Y0173440D01*
X0166745Y0173385D01*
X0166892Y0173327D01*
X0167038Y0173265D01*
X0167182Y0173200D01*
X0167324Y0173130D01*
X0167465Y0173058D01*
X0167604Y0172981D01*
X0167740Y0172902D01*
X0167875Y0172818D01*
X0168008Y0172732D01*
X0168138Y0172642D01*
X0168266Y0172549D01*
X0168392Y0172453D01*
X0168515Y0172353D01*
X0168636Y0172251D01*
X0168754Y0172146D01*
X0168869Y0172037D01*
X0168982Y0171926D01*
X0169092Y0171812D01*
X0169199Y0171695D01*
X0169303Y0171576D01*
X0169404Y0171454D01*
X0169501Y0171329D01*
X0169596Y0171202D01*
X0169687Y0171073D01*
X0169776Y0170942D01*
X0169860Y0170808D01*
X0169942Y0170672D01*
X0170020Y0170535D01*
X0170094Y0170395D01*
X0170165Y0170253D01*
X0170233Y0170110D01*
X0170297Y0169965D01*
X0170357Y0169819D01*
X0170413Y0169671D01*
X0170466Y0169522D01*
X0170515Y0169371D01*
X0170560Y0169219D01*
X0170601Y0169066D01*
X0170639Y0168913D01*
X0170672Y0168758D01*
X0170702Y0168602D01*
X0170728Y0168446D01*
X0170749Y0168289D01*
X0170767Y0168132D01*
X0170781Y0167974D01*
X0170791Y0167816D01*
X0170797Y0167658D01*
X0170799Y0167500D01*
X0170797Y0167342D01*
X0170791Y0167184D01*
X0170781Y0167026D01*
X0170767Y0166868D01*
X0170749Y0166711D01*
X0170728Y0166554D01*
X0170702Y0166398D01*
X0170672Y0166242D01*
X0170639Y0166087D01*
X0170601Y0165934D01*
X0170560Y0165781D01*
X0170515Y0165629D01*
X0170466Y0165478D01*
X0170413Y0165329D01*
X0170357Y0165181D01*
X0170297Y0165035D01*
X0170233Y0164890D01*
X0170165Y0164747D01*
X0170094Y0164605D01*
X0170020Y0164465D01*
X0169942Y0164328D01*
X0169860Y0164192D01*
X0169776Y0164058D01*
X0169687Y0163927D01*
X0169596Y0163798D01*
X0169501Y0163671D01*
X0169404Y0163546D01*
X0169303Y0163424D01*
X0169199Y0163305D01*
X0169092Y0163188D01*
X0168982Y0163074D01*
X0168869Y0162963D01*
X0168754Y0162854D01*
X0168636Y0162749D01*
X0168515Y0162647D01*
X0168392Y0162547D01*
X0168266Y0162451D01*
X0168138Y0162358D01*
X0168008Y0162268D01*
X0167875Y0162182D01*
X0167740Y0162098D01*
X0167604Y0162019D01*
X0167465Y0161942D01*
X0167324Y0161870D01*
X0167182Y0161800D01*
X0167038Y0161735D01*
X0166892Y0161673D01*
X0166745Y0161615D01*
X0166596Y0161560D01*
X0166446Y0161509D01*
X0166295Y0161462D01*
X0166143Y0161419D01*
X0165990Y0161380D01*
X0165835Y0161344D01*
X0165680Y0161313D01*
X0165524Y0161285D01*
X0165368Y0161261D01*
X0165211Y0161241D01*
X0165053Y0161225D01*
X0164896Y0161213D01*
X0164737Y0161205D01*
X0164579Y0161201D01*
X0164421Y0161201D01*
X0164263Y0161205D01*
X0164104Y0161213D01*
X0163947Y0161225D01*
X0163789Y0161241D01*
X0163632Y0161261D01*
X0163476Y0161285D01*
X0163320Y0161313D01*
X0163165Y0161344D01*
X0163010Y0161380D01*
X0162857Y0161419D01*
X0162705Y0161462D01*
X0162554Y0161509D01*
X0162404Y0161560D01*
X0162255Y0161615D01*
X0162108Y0161673D01*
X0161962Y0161735D01*
X0161818Y0161800D01*
X0161676Y0161870D01*
X0161535Y0161942D01*
X0161396Y0162019D01*
X0161260Y0162098D01*
X0161125Y0162182D01*
X0160992Y0162268D01*
X0160862Y0162358D01*
X0160734Y0162451D01*
X0160608Y0162547D01*
X0160485Y0162647D01*
X0160364Y0162749D01*
X0160246Y0162854D01*
X0160131Y0162963D01*
X0160018Y0163074D01*
X0159908Y0163188D01*
X0159801Y0163305D01*
X0159697Y0163424D01*
X0159596Y0163546D01*
X0159499Y0163671D01*
X0159404Y0163798D01*
X0159313Y0163927D01*
X0159224Y0164058D01*
X0159140Y0164192D01*
X0159058Y0164328D01*
X0158980Y0164465D01*
X0158906Y0164605D01*
X0158835Y0164747D01*
X0158767Y0164890D01*
X0158703Y0165035D01*
X0158643Y0165181D01*
X0158587Y0165329D01*
X0158534Y0165478D01*
X0158485Y0165629D01*
X0158440Y0165781D01*
X0158399Y0165934D01*
X0158361Y0166087D01*
X0158328Y0166242D01*
X0158298Y0166398D01*
X0158272Y0166554D01*
X0158251Y0166711D01*
X0158233Y0166868D01*
X0158219Y0167026D01*
X0158209Y0167184D01*
X0158203Y0167342D01*
X0158201Y0167500D01*
X0029201Y0167500D02*
X0029203Y0167658D01*
X0029209Y0167816D01*
X0029219Y0167974D01*
X0029233Y0168132D01*
X0029251Y0168289D01*
X0029272Y0168446D01*
X0029298Y0168602D01*
X0029328Y0168758D01*
X0029361Y0168913D01*
X0029399Y0169066D01*
X0029440Y0169219D01*
X0029485Y0169371D01*
X0029534Y0169522D01*
X0029587Y0169671D01*
X0029643Y0169819D01*
X0029703Y0169965D01*
X0029767Y0170110D01*
X0029835Y0170253D01*
X0029906Y0170395D01*
X0029980Y0170535D01*
X0030058Y0170672D01*
X0030140Y0170808D01*
X0030224Y0170942D01*
X0030313Y0171073D01*
X0030404Y0171202D01*
X0030499Y0171329D01*
X0030596Y0171454D01*
X0030697Y0171576D01*
X0030801Y0171695D01*
X0030908Y0171812D01*
X0031018Y0171926D01*
X0031131Y0172037D01*
X0031246Y0172146D01*
X0031364Y0172251D01*
X0031485Y0172353D01*
X0031608Y0172453D01*
X0031734Y0172549D01*
X0031862Y0172642D01*
X0031992Y0172732D01*
X0032125Y0172818D01*
X0032260Y0172902D01*
X0032396Y0172981D01*
X0032535Y0173058D01*
X0032676Y0173130D01*
X0032818Y0173200D01*
X0032962Y0173265D01*
X0033108Y0173327D01*
X0033255Y0173385D01*
X0033404Y0173440D01*
X0033554Y0173491D01*
X0033705Y0173538D01*
X0033857Y0173581D01*
X0034010Y0173620D01*
X0034165Y0173656D01*
X0034320Y0173687D01*
X0034476Y0173715D01*
X0034632Y0173739D01*
X0034789Y0173759D01*
X0034947Y0173775D01*
X0035104Y0173787D01*
X0035263Y0173795D01*
X0035421Y0173799D01*
X0035579Y0173799D01*
X0035737Y0173795D01*
X0035896Y0173787D01*
X0036053Y0173775D01*
X0036211Y0173759D01*
X0036368Y0173739D01*
X0036524Y0173715D01*
X0036680Y0173687D01*
X0036835Y0173656D01*
X0036990Y0173620D01*
X0037143Y0173581D01*
X0037295Y0173538D01*
X0037446Y0173491D01*
X0037596Y0173440D01*
X0037745Y0173385D01*
X0037892Y0173327D01*
X0038038Y0173265D01*
X0038182Y0173200D01*
X0038324Y0173130D01*
X0038465Y0173058D01*
X0038604Y0172981D01*
X0038740Y0172902D01*
X0038875Y0172818D01*
X0039008Y0172732D01*
X0039138Y0172642D01*
X0039266Y0172549D01*
X0039392Y0172453D01*
X0039515Y0172353D01*
X0039636Y0172251D01*
X0039754Y0172146D01*
X0039869Y0172037D01*
X0039982Y0171926D01*
X0040092Y0171812D01*
X0040199Y0171695D01*
X0040303Y0171576D01*
X0040404Y0171454D01*
X0040501Y0171329D01*
X0040596Y0171202D01*
X0040687Y0171073D01*
X0040776Y0170942D01*
X0040860Y0170808D01*
X0040942Y0170672D01*
X0041020Y0170535D01*
X0041094Y0170395D01*
X0041165Y0170253D01*
X0041233Y0170110D01*
X0041297Y0169965D01*
X0041357Y0169819D01*
X0041413Y0169671D01*
X0041466Y0169522D01*
X0041515Y0169371D01*
X0041560Y0169219D01*
X0041601Y0169066D01*
X0041639Y0168913D01*
X0041672Y0168758D01*
X0041702Y0168602D01*
X0041728Y0168446D01*
X0041749Y0168289D01*
X0041767Y0168132D01*
X0041781Y0167974D01*
X0041791Y0167816D01*
X0041797Y0167658D01*
X0041799Y0167500D01*
X0041797Y0167342D01*
X0041791Y0167184D01*
X0041781Y0167026D01*
X0041767Y0166868D01*
X0041749Y0166711D01*
X0041728Y0166554D01*
X0041702Y0166398D01*
X0041672Y0166242D01*
X0041639Y0166087D01*
X0041601Y0165934D01*
X0041560Y0165781D01*
X0041515Y0165629D01*
X0041466Y0165478D01*
X0041413Y0165329D01*
X0041357Y0165181D01*
X0041297Y0165035D01*
X0041233Y0164890D01*
X0041165Y0164747D01*
X0041094Y0164605D01*
X0041020Y0164465D01*
X0040942Y0164328D01*
X0040860Y0164192D01*
X0040776Y0164058D01*
X0040687Y0163927D01*
X0040596Y0163798D01*
X0040501Y0163671D01*
X0040404Y0163546D01*
X0040303Y0163424D01*
X0040199Y0163305D01*
X0040092Y0163188D01*
X0039982Y0163074D01*
X0039869Y0162963D01*
X0039754Y0162854D01*
X0039636Y0162749D01*
X0039515Y0162647D01*
X0039392Y0162547D01*
X0039266Y0162451D01*
X0039138Y0162358D01*
X0039008Y0162268D01*
X0038875Y0162182D01*
X0038740Y0162098D01*
X0038604Y0162019D01*
X0038465Y0161942D01*
X0038324Y0161870D01*
X0038182Y0161800D01*
X0038038Y0161735D01*
X0037892Y0161673D01*
X0037745Y0161615D01*
X0037596Y0161560D01*
X0037446Y0161509D01*
X0037295Y0161462D01*
X0037143Y0161419D01*
X0036990Y0161380D01*
X0036835Y0161344D01*
X0036680Y0161313D01*
X0036524Y0161285D01*
X0036368Y0161261D01*
X0036211Y0161241D01*
X0036053Y0161225D01*
X0035896Y0161213D01*
X0035737Y0161205D01*
X0035579Y0161201D01*
X0035421Y0161201D01*
X0035263Y0161205D01*
X0035104Y0161213D01*
X0034947Y0161225D01*
X0034789Y0161241D01*
X0034632Y0161261D01*
X0034476Y0161285D01*
X0034320Y0161313D01*
X0034165Y0161344D01*
X0034010Y0161380D01*
X0033857Y0161419D01*
X0033705Y0161462D01*
X0033554Y0161509D01*
X0033404Y0161560D01*
X0033255Y0161615D01*
X0033108Y0161673D01*
X0032962Y0161735D01*
X0032818Y0161800D01*
X0032676Y0161870D01*
X0032535Y0161942D01*
X0032396Y0162019D01*
X0032260Y0162098D01*
X0032125Y0162182D01*
X0031992Y0162268D01*
X0031862Y0162358D01*
X0031734Y0162451D01*
X0031608Y0162547D01*
X0031485Y0162647D01*
X0031364Y0162749D01*
X0031246Y0162854D01*
X0031131Y0162963D01*
X0031018Y0163074D01*
X0030908Y0163188D01*
X0030801Y0163305D01*
X0030697Y0163424D01*
X0030596Y0163546D01*
X0030499Y0163671D01*
X0030404Y0163798D01*
X0030313Y0163927D01*
X0030224Y0164058D01*
X0030140Y0164192D01*
X0030058Y0164328D01*
X0029980Y0164465D01*
X0029906Y0164605D01*
X0029835Y0164747D01*
X0029767Y0164890D01*
X0029703Y0165035D01*
X0029643Y0165181D01*
X0029587Y0165329D01*
X0029534Y0165478D01*
X0029485Y0165629D01*
X0029440Y0165781D01*
X0029399Y0165934D01*
X0029361Y0166087D01*
X0029328Y0166242D01*
X0029298Y0166398D01*
X0029272Y0166554D01*
X0029251Y0166711D01*
X0029233Y0166868D01*
X0029219Y0167026D01*
X0029209Y0167184D01*
X0029203Y0167342D01*
X0029201Y0167500D01*
M02*
