G75*
%MOIN*%
%OFA0B0*%
%FSLAX25Y25*%
%IPPOS*%
%LPD*%
%AMOC8*
5,1,8,0,0,1.08239X$1,22.5*
%
%ADD10C,0.00000*%
%ADD11R,0.05937X0.05937*%
%ADD12C,0.05937*%
%ADD13C,0.05600*%
%ADD14C,0.01260*%
%ADD15C,0.06300*%
%ADD16R,0.05543X0.05543*%
%ADD17OC8,0.06000*%
%ADD18OC8,0.06300*%
%ADD19R,0.05118X0.05906*%
%ADD20C,0.07200*%
%ADD21R,0.03500X0.02400*%
%ADD22C,0.06000*%
%ADD23C,0.01600*%
%ADD24C,0.03169*%
%ADD25R,0.03562X0.03562*%
%ADD26C,0.03562*%
%ADD27C,0.01000*%
D10*
X0001500Y0003736D02*
X0001500Y0195264D01*
X0001502Y0195356D01*
X0001508Y0195449D01*
X0001517Y0195541D01*
X0001530Y0195632D01*
X0001548Y0195723D01*
X0001568Y0195813D01*
X0001593Y0195902D01*
X0001621Y0195990D01*
X0001653Y0196077D01*
X0001688Y0196162D01*
X0001727Y0196246D01*
X0001769Y0196328D01*
X0001815Y0196409D01*
X0001864Y0196487D01*
X0001916Y0196563D01*
X0001971Y0196637D01*
X0002030Y0196709D01*
X0002091Y0196778D01*
X0002155Y0196845D01*
X0002222Y0196909D01*
X0002291Y0196970D01*
X0002363Y0197029D01*
X0002437Y0197084D01*
X0002513Y0197136D01*
X0002591Y0197185D01*
X0002672Y0197231D01*
X0002754Y0197273D01*
X0002838Y0197312D01*
X0002923Y0197347D01*
X0003010Y0197379D01*
X0003098Y0197407D01*
X0003187Y0197432D01*
X0003277Y0197452D01*
X0003368Y0197470D01*
X0003459Y0197483D01*
X0003551Y0197492D01*
X0003644Y0197498D01*
X0003736Y0197500D01*
X0195264Y0197500D01*
X0195356Y0197498D01*
X0195449Y0197492D01*
X0195541Y0197483D01*
X0195632Y0197470D01*
X0195723Y0197452D01*
X0195813Y0197432D01*
X0195902Y0197407D01*
X0195990Y0197379D01*
X0196077Y0197347D01*
X0196162Y0197312D01*
X0196246Y0197273D01*
X0196328Y0197231D01*
X0196409Y0197185D01*
X0196487Y0197136D01*
X0196563Y0197084D01*
X0196637Y0197029D01*
X0196709Y0196970D01*
X0196778Y0196909D01*
X0196845Y0196845D01*
X0196909Y0196778D01*
X0196970Y0196709D01*
X0197029Y0196637D01*
X0197084Y0196563D01*
X0197136Y0196487D01*
X0197185Y0196409D01*
X0197231Y0196328D01*
X0197273Y0196246D01*
X0197312Y0196162D01*
X0197347Y0196077D01*
X0197379Y0195990D01*
X0197407Y0195902D01*
X0197432Y0195813D01*
X0197452Y0195723D01*
X0197470Y0195632D01*
X0197483Y0195541D01*
X0197492Y0195449D01*
X0197498Y0195356D01*
X0197500Y0195264D01*
X0197500Y0003736D01*
X0197498Y0003644D01*
X0197492Y0003551D01*
X0197483Y0003459D01*
X0197470Y0003368D01*
X0197452Y0003277D01*
X0197432Y0003187D01*
X0197407Y0003098D01*
X0197379Y0003010D01*
X0197347Y0002923D01*
X0197312Y0002838D01*
X0197273Y0002754D01*
X0197231Y0002672D01*
X0197185Y0002591D01*
X0197136Y0002513D01*
X0197084Y0002437D01*
X0197029Y0002363D01*
X0196970Y0002291D01*
X0196909Y0002222D01*
X0196845Y0002155D01*
X0196778Y0002091D01*
X0196709Y0002030D01*
X0196637Y0001971D01*
X0196563Y0001916D01*
X0196487Y0001864D01*
X0196409Y0001815D01*
X0196328Y0001769D01*
X0196246Y0001727D01*
X0196162Y0001688D01*
X0196077Y0001653D01*
X0195990Y0001621D01*
X0195902Y0001593D01*
X0195813Y0001568D01*
X0195723Y0001548D01*
X0195632Y0001530D01*
X0195541Y0001517D01*
X0195449Y0001508D01*
X0195356Y0001502D01*
X0195264Y0001500D01*
X0003736Y0001500D01*
X0003644Y0001502D01*
X0003551Y0001508D01*
X0003459Y0001517D01*
X0003368Y0001530D01*
X0003277Y0001548D01*
X0003187Y0001568D01*
X0003098Y0001593D01*
X0003010Y0001621D01*
X0002923Y0001653D01*
X0002838Y0001688D01*
X0002754Y0001727D01*
X0002672Y0001769D01*
X0002591Y0001815D01*
X0002513Y0001864D01*
X0002437Y0001916D01*
X0002363Y0001971D01*
X0002291Y0002030D01*
X0002222Y0002091D01*
X0002155Y0002155D01*
X0002091Y0002222D01*
X0002030Y0002291D01*
X0001971Y0002363D01*
X0001916Y0002437D01*
X0001864Y0002513D01*
X0001815Y0002591D01*
X0001769Y0002672D01*
X0001727Y0002754D01*
X0001688Y0002838D01*
X0001653Y0002923D01*
X0001621Y0003010D01*
X0001593Y0003098D01*
X0001568Y0003187D01*
X0001548Y0003277D01*
X0001530Y0003368D01*
X0001517Y0003459D01*
X0001508Y0003551D01*
X0001502Y0003644D01*
X0001500Y0003736D01*
X0074201Y0013500D02*
X0074203Y0013658D01*
X0074209Y0013816D01*
X0074219Y0013974D01*
X0074233Y0014132D01*
X0074251Y0014289D01*
X0074272Y0014446D01*
X0074298Y0014602D01*
X0074328Y0014758D01*
X0074361Y0014913D01*
X0074399Y0015066D01*
X0074440Y0015219D01*
X0074485Y0015371D01*
X0074534Y0015522D01*
X0074587Y0015671D01*
X0074643Y0015819D01*
X0074703Y0015965D01*
X0074767Y0016110D01*
X0074835Y0016253D01*
X0074906Y0016395D01*
X0074980Y0016535D01*
X0075058Y0016672D01*
X0075140Y0016808D01*
X0075224Y0016942D01*
X0075313Y0017073D01*
X0075404Y0017202D01*
X0075499Y0017329D01*
X0075596Y0017454D01*
X0075697Y0017576D01*
X0075801Y0017695D01*
X0075908Y0017812D01*
X0076018Y0017926D01*
X0076131Y0018037D01*
X0076246Y0018146D01*
X0076364Y0018251D01*
X0076485Y0018353D01*
X0076608Y0018453D01*
X0076734Y0018549D01*
X0076862Y0018642D01*
X0076992Y0018732D01*
X0077125Y0018818D01*
X0077260Y0018902D01*
X0077396Y0018981D01*
X0077535Y0019058D01*
X0077676Y0019130D01*
X0077818Y0019200D01*
X0077962Y0019265D01*
X0078108Y0019327D01*
X0078255Y0019385D01*
X0078404Y0019440D01*
X0078554Y0019491D01*
X0078705Y0019538D01*
X0078857Y0019581D01*
X0079010Y0019620D01*
X0079165Y0019656D01*
X0079320Y0019687D01*
X0079476Y0019715D01*
X0079632Y0019739D01*
X0079789Y0019759D01*
X0079947Y0019775D01*
X0080104Y0019787D01*
X0080263Y0019795D01*
X0080421Y0019799D01*
X0080579Y0019799D01*
X0080737Y0019795D01*
X0080896Y0019787D01*
X0081053Y0019775D01*
X0081211Y0019759D01*
X0081368Y0019739D01*
X0081524Y0019715D01*
X0081680Y0019687D01*
X0081835Y0019656D01*
X0081990Y0019620D01*
X0082143Y0019581D01*
X0082295Y0019538D01*
X0082446Y0019491D01*
X0082596Y0019440D01*
X0082745Y0019385D01*
X0082892Y0019327D01*
X0083038Y0019265D01*
X0083182Y0019200D01*
X0083324Y0019130D01*
X0083465Y0019058D01*
X0083604Y0018981D01*
X0083740Y0018902D01*
X0083875Y0018818D01*
X0084008Y0018732D01*
X0084138Y0018642D01*
X0084266Y0018549D01*
X0084392Y0018453D01*
X0084515Y0018353D01*
X0084636Y0018251D01*
X0084754Y0018146D01*
X0084869Y0018037D01*
X0084982Y0017926D01*
X0085092Y0017812D01*
X0085199Y0017695D01*
X0085303Y0017576D01*
X0085404Y0017454D01*
X0085501Y0017329D01*
X0085596Y0017202D01*
X0085687Y0017073D01*
X0085776Y0016942D01*
X0085860Y0016808D01*
X0085942Y0016672D01*
X0086020Y0016535D01*
X0086094Y0016395D01*
X0086165Y0016253D01*
X0086233Y0016110D01*
X0086297Y0015965D01*
X0086357Y0015819D01*
X0086413Y0015671D01*
X0086466Y0015522D01*
X0086515Y0015371D01*
X0086560Y0015219D01*
X0086601Y0015066D01*
X0086639Y0014913D01*
X0086672Y0014758D01*
X0086702Y0014602D01*
X0086728Y0014446D01*
X0086749Y0014289D01*
X0086767Y0014132D01*
X0086781Y0013974D01*
X0086791Y0013816D01*
X0086797Y0013658D01*
X0086799Y0013500D01*
X0086797Y0013342D01*
X0086791Y0013184D01*
X0086781Y0013026D01*
X0086767Y0012868D01*
X0086749Y0012711D01*
X0086728Y0012554D01*
X0086702Y0012398D01*
X0086672Y0012242D01*
X0086639Y0012087D01*
X0086601Y0011934D01*
X0086560Y0011781D01*
X0086515Y0011629D01*
X0086466Y0011478D01*
X0086413Y0011329D01*
X0086357Y0011181D01*
X0086297Y0011035D01*
X0086233Y0010890D01*
X0086165Y0010747D01*
X0086094Y0010605D01*
X0086020Y0010465D01*
X0085942Y0010328D01*
X0085860Y0010192D01*
X0085776Y0010058D01*
X0085687Y0009927D01*
X0085596Y0009798D01*
X0085501Y0009671D01*
X0085404Y0009546D01*
X0085303Y0009424D01*
X0085199Y0009305D01*
X0085092Y0009188D01*
X0084982Y0009074D01*
X0084869Y0008963D01*
X0084754Y0008854D01*
X0084636Y0008749D01*
X0084515Y0008647D01*
X0084392Y0008547D01*
X0084266Y0008451D01*
X0084138Y0008358D01*
X0084008Y0008268D01*
X0083875Y0008182D01*
X0083740Y0008098D01*
X0083604Y0008019D01*
X0083465Y0007942D01*
X0083324Y0007870D01*
X0083182Y0007800D01*
X0083038Y0007735D01*
X0082892Y0007673D01*
X0082745Y0007615D01*
X0082596Y0007560D01*
X0082446Y0007509D01*
X0082295Y0007462D01*
X0082143Y0007419D01*
X0081990Y0007380D01*
X0081835Y0007344D01*
X0081680Y0007313D01*
X0081524Y0007285D01*
X0081368Y0007261D01*
X0081211Y0007241D01*
X0081053Y0007225D01*
X0080896Y0007213D01*
X0080737Y0007205D01*
X0080579Y0007201D01*
X0080421Y0007201D01*
X0080263Y0007205D01*
X0080104Y0007213D01*
X0079947Y0007225D01*
X0079789Y0007241D01*
X0079632Y0007261D01*
X0079476Y0007285D01*
X0079320Y0007313D01*
X0079165Y0007344D01*
X0079010Y0007380D01*
X0078857Y0007419D01*
X0078705Y0007462D01*
X0078554Y0007509D01*
X0078404Y0007560D01*
X0078255Y0007615D01*
X0078108Y0007673D01*
X0077962Y0007735D01*
X0077818Y0007800D01*
X0077676Y0007870D01*
X0077535Y0007942D01*
X0077396Y0008019D01*
X0077260Y0008098D01*
X0077125Y0008182D01*
X0076992Y0008268D01*
X0076862Y0008358D01*
X0076734Y0008451D01*
X0076608Y0008547D01*
X0076485Y0008647D01*
X0076364Y0008749D01*
X0076246Y0008854D01*
X0076131Y0008963D01*
X0076018Y0009074D01*
X0075908Y0009188D01*
X0075801Y0009305D01*
X0075697Y0009424D01*
X0075596Y0009546D01*
X0075499Y0009671D01*
X0075404Y0009798D01*
X0075313Y0009927D01*
X0075224Y0010058D01*
X0075140Y0010192D01*
X0075058Y0010328D01*
X0074980Y0010465D01*
X0074906Y0010605D01*
X0074835Y0010747D01*
X0074767Y0010890D01*
X0074703Y0011035D01*
X0074643Y0011181D01*
X0074587Y0011329D01*
X0074534Y0011478D01*
X0074485Y0011629D01*
X0074440Y0011781D01*
X0074399Y0011934D01*
X0074361Y0012087D01*
X0074328Y0012242D01*
X0074298Y0012398D01*
X0074272Y0012554D01*
X0074251Y0012711D01*
X0074233Y0012868D01*
X0074219Y0013026D01*
X0074209Y0013184D01*
X0074203Y0013342D01*
X0074201Y0013500D01*
X0181201Y0013500D02*
X0181203Y0013658D01*
X0181209Y0013816D01*
X0181219Y0013974D01*
X0181233Y0014132D01*
X0181251Y0014289D01*
X0181272Y0014446D01*
X0181298Y0014602D01*
X0181328Y0014758D01*
X0181361Y0014913D01*
X0181399Y0015066D01*
X0181440Y0015219D01*
X0181485Y0015371D01*
X0181534Y0015522D01*
X0181587Y0015671D01*
X0181643Y0015819D01*
X0181703Y0015965D01*
X0181767Y0016110D01*
X0181835Y0016253D01*
X0181906Y0016395D01*
X0181980Y0016535D01*
X0182058Y0016672D01*
X0182140Y0016808D01*
X0182224Y0016942D01*
X0182313Y0017073D01*
X0182404Y0017202D01*
X0182499Y0017329D01*
X0182596Y0017454D01*
X0182697Y0017576D01*
X0182801Y0017695D01*
X0182908Y0017812D01*
X0183018Y0017926D01*
X0183131Y0018037D01*
X0183246Y0018146D01*
X0183364Y0018251D01*
X0183485Y0018353D01*
X0183608Y0018453D01*
X0183734Y0018549D01*
X0183862Y0018642D01*
X0183992Y0018732D01*
X0184125Y0018818D01*
X0184260Y0018902D01*
X0184396Y0018981D01*
X0184535Y0019058D01*
X0184676Y0019130D01*
X0184818Y0019200D01*
X0184962Y0019265D01*
X0185108Y0019327D01*
X0185255Y0019385D01*
X0185404Y0019440D01*
X0185554Y0019491D01*
X0185705Y0019538D01*
X0185857Y0019581D01*
X0186010Y0019620D01*
X0186165Y0019656D01*
X0186320Y0019687D01*
X0186476Y0019715D01*
X0186632Y0019739D01*
X0186789Y0019759D01*
X0186947Y0019775D01*
X0187104Y0019787D01*
X0187263Y0019795D01*
X0187421Y0019799D01*
X0187579Y0019799D01*
X0187737Y0019795D01*
X0187896Y0019787D01*
X0188053Y0019775D01*
X0188211Y0019759D01*
X0188368Y0019739D01*
X0188524Y0019715D01*
X0188680Y0019687D01*
X0188835Y0019656D01*
X0188990Y0019620D01*
X0189143Y0019581D01*
X0189295Y0019538D01*
X0189446Y0019491D01*
X0189596Y0019440D01*
X0189745Y0019385D01*
X0189892Y0019327D01*
X0190038Y0019265D01*
X0190182Y0019200D01*
X0190324Y0019130D01*
X0190465Y0019058D01*
X0190604Y0018981D01*
X0190740Y0018902D01*
X0190875Y0018818D01*
X0191008Y0018732D01*
X0191138Y0018642D01*
X0191266Y0018549D01*
X0191392Y0018453D01*
X0191515Y0018353D01*
X0191636Y0018251D01*
X0191754Y0018146D01*
X0191869Y0018037D01*
X0191982Y0017926D01*
X0192092Y0017812D01*
X0192199Y0017695D01*
X0192303Y0017576D01*
X0192404Y0017454D01*
X0192501Y0017329D01*
X0192596Y0017202D01*
X0192687Y0017073D01*
X0192776Y0016942D01*
X0192860Y0016808D01*
X0192942Y0016672D01*
X0193020Y0016535D01*
X0193094Y0016395D01*
X0193165Y0016253D01*
X0193233Y0016110D01*
X0193297Y0015965D01*
X0193357Y0015819D01*
X0193413Y0015671D01*
X0193466Y0015522D01*
X0193515Y0015371D01*
X0193560Y0015219D01*
X0193601Y0015066D01*
X0193639Y0014913D01*
X0193672Y0014758D01*
X0193702Y0014602D01*
X0193728Y0014446D01*
X0193749Y0014289D01*
X0193767Y0014132D01*
X0193781Y0013974D01*
X0193791Y0013816D01*
X0193797Y0013658D01*
X0193799Y0013500D01*
X0193797Y0013342D01*
X0193791Y0013184D01*
X0193781Y0013026D01*
X0193767Y0012868D01*
X0193749Y0012711D01*
X0193728Y0012554D01*
X0193702Y0012398D01*
X0193672Y0012242D01*
X0193639Y0012087D01*
X0193601Y0011934D01*
X0193560Y0011781D01*
X0193515Y0011629D01*
X0193466Y0011478D01*
X0193413Y0011329D01*
X0193357Y0011181D01*
X0193297Y0011035D01*
X0193233Y0010890D01*
X0193165Y0010747D01*
X0193094Y0010605D01*
X0193020Y0010465D01*
X0192942Y0010328D01*
X0192860Y0010192D01*
X0192776Y0010058D01*
X0192687Y0009927D01*
X0192596Y0009798D01*
X0192501Y0009671D01*
X0192404Y0009546D01*
X0192303Y0009424D01*
X0192199Y0009305D01*
X0192092Y0009188D01*
X0191982Y0009074D01*
X0191869Y0008963D01*
X0191754Y0008854D01*
X0191636Y0008749D01*
X0191515Y0008647D01*
X0191392Y0008547D01*
X0191266Y0008451D01*
X0191138Y0008358D01*
X0191008Y0008268D01*
X0190875Y0008182D01*
X0190740Y0008098D01*
X0190604Y0008019D01*
X0190465Y0007942D01*
X0190324Y0007870D01*
X0190182Y0007800D01*
X0190038Y0007735D01*
X0189892Y0007673D01*
X0189745Y0007615D01*
X0189596Y0007560D01*
X0189446Y0007509D01*
X0189295Y0007462D01*
X0189143Y0007419D01*
X0188990Y0007380D01*
X0188835Y0007344D01*
X0188680Y0007313D01*
X0188524Y0007285D01*
X0188368Y0007261D01*
X0188211Y0007241D01*
X0188053Y0007225D01*
X0187896Y0007213D01*
X0187737Y0007205D01*
X0187579Y0007201D01*
X0187421Y0007201D01*
X0187263Y0007205D01*
X0187104Y0007213D01*
X0186947Y0007225D01*
X0186789Y0007241D01*
X0186632Y0007261D01*
X0186476Y0007285D01*
X0186320Y0007313D01*
X0186165Y0007344D01*
X0186010Y0007380D01*
X0185857Y0007419D01*
X0185705Y0007462D01*
X0185554Y0007509D01*
X0185404Y0007560D01*
X0185255Y0007615D01*
X0185108Y0007673D01*
X0184962Y0007735D01*
X0184818Y0007800D01*
X0184676Y0007870D01*
X0184535Y0007942D01*
X0184396Y0008019D01*
X0184260Y0008098D01*
X0184125Y0008182D01*
X0183992Y0008268D01*
X0183862Y0008358D01*
X0183734Y0008451D01*
X0183608Y0008547D01*
X0183485Y0008647D01*
X0183364Y0008749D01*
X0183246Y0008854D01*
X0183131Y0008963D01*
X0183018Y0009074D01*
X0182908Y0009188D01*
X0182801Y0009305D01*
X0182697Y0009424D01*
X0182596Y0009546D01*
X0182499Y0009671D01*
X0182404Y0009798D01*
X0182313Y0009927D01*
X0182224Y0010058D01*
X0182140Y0010192D01*
X0182058Y0010328D01*
X0181980Y0010465D01*
X0181906Y0010605D01*
X0181835Y0010747D01*
X0181767Y0010890D01*
X0181703Y0011035D01*
X0181643Y0011181D01*
X0181587Y0011329D01*
X0181534Y0011478D01*
X0181485Y0011629D01*
X0181440Y0011781D01*
X0181399Y0011934D01*
X0181361Y0012087D01*
X0181328Y0012242D01*
X0181298Y0012398D01*
X0181272Y0012554D01*
X0181251Y0012711D01*
X0181233Y0012868D01*
X0181219Y0013026D01*
X0181209Y0013184D01*
X0181203Y0013342D01*
X0181201Y0013500D01*
X0158201Y0167500D02*
X0158203Y0167658D01*
X0158209Y0167816D01*
X0158219Y0167974D01*
X0158233Y0168132D01*
X0158251Y0168289D01*
X0158272Y0168446D01*
X0158298Y0168602D01*
X0158328Y0168758D01*
X0158361Y0168913D01*
X0158399Y0169066D01*
X0158440Y0169219D01*
X0158485Y0169371D01*
X0158534Y0169522D01*
X0158587Y0169671D01*
X0158643Y0169819D01*
X0158703Y0169965D01*
X0158767Y0170110D01*
X0158835Y0170253D01*
X0158906Y0170395D01*
X0158980Y0170535D01*
X0159058Y0170672D01*
X0159140Y0170808D01*
X0159224Y0170942D01*
X0159313Y0171073D01*
X0159404Y0171202D01*
X0159499Y0171329D01*
X0159596Y0171454D01*
X0159697Y0171576D01*
X0159801Y0171695D01*
X0159908Y0171812D01*
X0160018Y0171926D01*
X0160131Y0172037D01*
X0160246Y0172146D01*
X0160364Y0172251D01*
X0160485Y0172353D01*
X0160608Y0172453D01*
X0160734Y0172549D01*
X0160862Y0172642D01*
X0160992Y0172732D01*
X0161125Y0172818D01*
X0161260Y0172902D01*
X0161396Y0172981D01*
X0161535Y0173058D01*
X0161676Y0173130D01*
X0161818Y0173200D01*
X0161962Y0173265D01*
X0162108Y0173327D01*
X0162255Y0173385D01*
X0162404Y0173440D01*
X0162554Y0173491D01*
X0162705Y0173538D01*
X0162857Y0173581D01*
X0163010Y0173620D01*
X0163165Y0173656D01*
X0163320Y0173687D01*
X0163476Y0173715D01*
X0163632Y0173739D01*
X0163789Y0173759D01*
X0163947Y0173775D01*
X0164104Y0173787D01*
X0164263Y0173795D01*
X0164421Y0173799D01*
X0164579Y0173799D01*
X0164737Y0173795D01*
X0164896Y0173787D01*
X0165053Y0173775D01*
X0165211Y0173759D01*
X0165368Y0173739D01*
X0165524Y0173715D01*
X0165680Y0173687D01*
X0165835Y0173656D01*
X0165990Y0173620D01*
X0166143Y0173581D01*
X0166295Y0173538D01*
X0166446Y0173491D01*
X0166596Y0173440D01*
X0166745Y0173385D01*
X0166892Y0173327D01*
X0167038Y0173265D01*
X0167182Y0173200D01*
X0167324Y0173130D01*
X0167465Y0173058D01*
X0167604Y0172981D01*
X0167740Y0172902D01*
X0167875Y0172818D01*
X0168008Y0172732D01*
X0168138Y0172642D01*
X0168266Y0172549D01*
X0168392Y0172453D01*
X0168515Y0172353D01*
X0168636Y0172251D01*
X0168754Y0172146D01*
X0168869Y0172037D01*
X0168982Y0171926D01*
X0169092Y0171812D01*
X0169199Y0171695D01*
X0169303Y0171576D01*
X0169404Y0171454D01*
X0169501Y0171329D01*
X0169596Y0171202D01*
X0169687Y0171073D01*
X0169776Y0170942D01*
X0169860Y0170808D01*
X0169942Y0170672D01*
X0170020Y0170535D01*
X0170094Y0170395D01*
X0170165Y0170253D01*
X0170233Y0170110D01*
X0170297Y0169965D01*
X0170357Y0169819D01*
X0170413Y0169671D01*
X0170466Y0169522D01*
X0170515Y0169371D01*
X0170560Y0169219D01*
X0170601Y0169066D01*
X0170639Y0168913D01*
X0170672Y0168758D01*
X0170702Y0168602D01*
X0170728Y0168446D01*
X0170749Y0168289D01*
X0170767Y0168132D01*
X0170781Y0167974D01*
X0170791Y0167816D01*
X0170797Y0167658D01*
X0170799Y0167500D01*
X0170797Y0167342D01*
X0170791Y0167184D01*
X0170781Y0167026D01*
X0170767Y0166868D01*
X0170749Y0166711D01*
X0170728Y0166554D01*
X0170702Y0166398D01*
X0170672Y0166242D01*
X0170639Y0166087D01*
X0170601Y0165934D01*
X0170560Y0165781D01*
X0170515Y0165629D01*
X0170466Y0165478D01*
X0170413Y0165329D01*
X0170357Y0165181D01*
X0170297Y0165035D01*
X0170233Y0164890D01*
X0170165Y0164747D01*
X0170094Y0164605D01*
X0170020Y0164465D01*
X0169942Y0164328D01*
X0169860Y0164192D01*
X0169776Y0164058D01*
X0169687Y0163927D01*
X0169596Y0163798D01*
X0169501Y0163671D01*
X0169404Y0163546D01*
X0169303Y0163424D01*
X0169199Y0163305D01*
X0169092Y0163188D01*
X0168982Y0163074D01*
X0168869Y0162963D01*
X0168754Y0162854D01*
X0168636Y0162749D01*
X0168515Y0162647D01*
X0168392Y0162547D01*
X0168266Y0162451D01*
X0168138Y0162358D01*
X0168008Y0162268D01*
X0167875Y0162182D01*
X0167740Y0162098D01*
X0167604Y0162019D01*
X0167465Y0161942D01*
X0167324Y0161870D01*
X0167182Y0161800D01*
X0167038Y0161735D01*
X0166892Y0161673D01*
X0166745Y0161615D01*
X0166596Y0161560D01*
X0166446Y0161509D01*
X0166295Y0161462D01*
X0166143Y0161419D01*
X0165990Y0161380D01*
X0165835Y0161344D01*
X0165680Y0161313D01*
X0165524Y0161285D01*
X0165368Y0161261D01*
X0165211Y0161241D01*
X0165053Y0161225D01*
X0164896Y0161213D01*
X0164737Y0161205D01*
X0164579Y0161201D01*
X0164421Y0161201D01*
X0164263Y0161205D01*
X0164104Y0161213D01*
X0163947Y0161225D01*
X0163789Y0161241D01*
X0163632Y0161261D01*
X0163476Y0161285D01*
X0163320Y0161313D01*
X0163165Y0161344D01*
X0163010Y0161380D01*
X0162857Y0161419D01*
X0162705Y0161462D01*
X0162554Y0161509D01*
X0162404Y0161560D01*
X0162255Y0161615D01*
X0162108Y0161673D01*
X0161962Y0161735D01*
X0161818Y0161800D01*
X0161676Y0161870D01*
X0161535Y0161942D01*
X0161396Y0162019D01*
X0161260Y0162098D01*
X0161125Y0162182D01*
X0160992Y0162268D01*
X0160862Y0162358D01*
X0160734Y0162451D01*
X0160608Y0162547D01*
X0160485Y0162647D01*
X0160364Y0162749D01*
X0160246Y0162854D01*
X0160131Y0162963D01*
X0160018Y0163074D01*
X0159908Y0163188D01*
X0159801Y0163305D01*
X0159697Y0163424D01*
X0159596Y0163546D01*
X0159499Y0163671D01*
X0159404Y0163798D01*
X0159313Y0163927D01*
X0159224Y0164058D01*
X0159140Y0164192D01*
X0159058Y0164328D01*
X0158980Y0164465D01*
X0158906Y0164605D01*
X0158835Y0164747D01*
X0158767Y0164890D01*
X0158703Y0165035D01*
X0158643Y0165181D01*
X0158587Y0165329D01*
X0158534Y0165478D01*
X0158485Y0165629D01*
X0158440Y0165781D01*
X0158399Y0165934D01*
X0158361Y0166087D01*
X0158328Y0166242D01*
X0158298Y0166398D01*
X0158272Y0166554D01*
X0158251Y0166711D01*
X0158233Y0166868D01*
X0158219Y0167026D01*
X0158209Y0167184D01*
X0158203Y0167342D01*
X0158201Y0167500D01*
X0029201Y0167500D02*
X0029203Y0167658D01*
X0029209Y0167816D01*
X0029219Y0167974D01*
X0029233Y0168132D01*
X0029251Y0168289D01*
X0029272Y0168446D01*
X0029298Y0168602D01*
X0029328Y0168758D01*
X0029361Y0168913D01*
X0029399Y0169066D01*
X0029440Y0169219D01*
X0029485Y0169371D01*
X0029534Y0169522D01*
X0029587Y0169671D01*
X0029643Y0169819D01*
X0029703Y0169965D01*
X0029767Y0170110D01*
X0029835Y0170253D01*
X0029906Y0170395D01*
X0029980Y0170535D01*
X0030058Y0170672D01*
X0030140Y0170808D01*
X0030224Y0170942D01*
X0030313Y0171073D01*
X0030404Y0171202D01*
X0030499Y0171329D01*
X0030596Y0171454D01*
X0030697Y0171576D01*
X0030801Y0171695D01*
X0030908Y0171812D01*
X0031018Y0171926D01*
X0031131Y0172037D01*
X0031246Y0172146D01*
X0031364Y0172251D01*
X0031485Y0172353D01*
X0031608Y0172453D01*
X0031734Y0172549D01*
X0031862Y0172642D01*
X0031992Y0172732D01*
X0032125Y0172818D01*
X0032260Y0172902D01*
X0032396Y0172981D01*
X0032535Y0173058D01*
X0032676Y0173130D01*
X0032818Y0173200D01*
X0032962Y0173265D01*
X0033108Y0173327D01*
X0033255Y0173385D01*
X0033404Y0173440D01*
X0033554Y0173491D01*
X0033705Y0173538D01*
X0033857Y0173581D01*
X0034010Y0173620D01*
X0034165Y0173656D01*
X0034320Y0173687D01*
X0034476Y0173715D01*
X0034632Y0173739D01*
X0034789Y0173759D01*
X0034947Y0173775D01*
X0035104Y0173787D01*
X0035263Y0173795D01*
X0035421Y0173799D01*
X0035579Y0173799D01*
X0035737Y0173795D01*
X0035896Y0173787D01*
X0036053Y0173775D01*
X0036211Y0173759D01*
X0036368Y0173739D01*
X0036524Y0173715D01*
X0036680Y0173687D01*
X0036835Y0173656D01*
X0036990Y0173620D01*
X0037143Y0173581D01*
X0037295Y0173538D01*
X0037446Y0173491D01*
X0037596Y0173440D01*
X0037745Y0173385D01*
X0037892Y0173327D01*
X0038038Y0173265D01*
X0038182Y0173200D01*
X0038324Y0173130D01*
X0038465Y0173058D01*
X0038604Y0172981D01*
X0038740Y0172902D01*
X0038875Y0172818D01*
X0039008Y0172732D01*
X0039138Y0172642D01*
X0039266Y0172549D01*
X0039392Y0172453D01*
X0039515Y0172353D01*
X0039636Y0172251D01*
X0039754Y0172146D01*
X0039869Y0172037D01*
X0039982Y0171926D01*
X0040092Y0171812D01*
X0040199Y0171695D01*
X0040303Y0171576D01*
X0040404Y0171454D01*
X0040501Y0171329D01*
X0040596Y0171202D01*
X0040687Y0171073D01*
X0040776Y0170942D01*
X0040860Y0170808D01*
X0040942Y0170672D01*
X0041020Y0170535D01*
X0041094Y0170395D01*
X0041165Y0170253D01*
X0041233Y0170110D01*
X0041297Y0169965D01*
X0041357Y0169819D01*
X0041413Y0169671D01*
X0041466Y0169522D01*
X0041515Y0169371D01*
X0041560Y0169219D01*
X0041601Y0169066D01*
X0041639Y0168913D01*
X0041672Y0168758D01*
X0041702Y0168602D01*
X0041728Y0168446D01*
X0041749Y0168289D01*
X0041767Y0168132D01*
X0041781Y0167974D01*
X0041791Y0167816D01*
X0041797Y0167658D01*
X0041799Y0167500D01*
X0041797Y0167342D01*
X0041791Y0167184D01*
X0041781Y0167026D01*
X0041767Y0166868D01*
X0041749Y0166711D01*
X0041728Y0166554D01*
X0041702Y0166398D01*
X0041672Y0166242D01*
X0041639Y0166087D01*
X0041601Y0165934D01*
X0041560Y0165781D01*
X0041515Y0165629D01*
X0041466Y0165478D01*
X0041413Y0165329D01*
X0041357Y0165181D01*
X0041297Y0165035D01*
X0041233Y0164890D01*
X0041165Y0164747D01*
X0041094Y0164605D01*
X0041020Y0164465D01*
X0040942Y0164328D01*
X0040860Y0164192D01*
X0040776Y0164058D01*
X0040687Y0163927D01*
X0040596Y0163798D01*
X0040501Y0163671D01*
X0040404Y0163546D01*
X0040303Y0163424D01*
X0040199Y0163305D01*
X0040092Y0163188D01*
X0039982Y0163074D01*
X0039869Y0162963D01*
X0039754Y0162854D01*
X0039636Y0162749D01*
X0039515Y0162647D01*
X0039392Y0162547D01*
X0039266Y0162451D01*
X0039138Y0162358D01*
X0039008Y0162268D01*
X0038875Y0162182D01*
X0038740Y0162098D01*
X0038604Y0162019D01*
X0038465Y0161942D01*
X0038324Y0161870D01*
X0038182Y0161800D01*
X0038038Y0161735D01*
X0037892Y0161673D01*
X0037745Y0161615D01*
X0037596Y0161560D01*
X0037446Y0161509D01*
X0037295Y0161462D01*
X0037143Y0161419D01*
X0036990Y0161380D01*
X0036835Y0161344D01*
X0036680Y0161313D01*
X0036524Y0161285D01*
X0036368Y0161261D01*
X0036211Y0161241D01*
X0036053Y0161225D01*
X0035896Y0161213D01*
X0035737Y0161205D01*
X0035579Y0161201D01*
X0035421Y0161201D01*
X0035263Y0161205D01*
X0035104Y0161213D01*
X0034947Y0161225D01*
X0034789Y0161241D01*
X0034632Y0161261D01*
X0034476Y0161285D01*
X0034320Y0161313D01*
X0034165Y0161344D01*
X0034010Y0161380D01*
X0033857Y0161419D01*
X0033705Y0161462D01*
X0033554Y0161509D01*
X0033404Y0161560D01*
X0033255Y0161615D01*
X0033108Y0161673D01*
X0032962Y0161735D01*
X0032818Y0161800D01*
X0032676Y0161870D01*
X0032535Y0161942D01*
X0032396Y0162019D01*
X0032260Y0162098D01*
X0032125Y0162182D01*
X0031992Y0162268D01*
X0031862Y0162358D01*
X0031734Y0162451D01*
X0031608Y0162547D01*
X0031485Y0162647D01*
X0031364Y0162749D01*
X0031246Y0162854D01*
X0031131Y0162963D01*
X0031018Y0163074D01*
X0030908Y0163188D01*
X0030801Y0163305D01*
X0030697Y0163424D01*
X0030596Y0163546D01*
X0030499Y0163671D01*
X0030404Y0163798D01*
X0030313Y0163927D01*
X0030224Y0164058D01*
X0030140Y0164192D01*
X0030058Y0164328D01*
X0029980Y0164465D01*
X0029906Y0164605D01*
X0029835Y0164747D01*
X0029767Y0164890D01*
X0029703Y0165035D01*
X0029643Y0165181D01*
X0029587Y0165329D01*
X0029534Y0165478D01*
X0029485Y0165629D01*
X0029440Y0165781D01*
X0029399Y0165934D01*
X0029361Y0166087D01*
X0029328Y0166242D01*
X0029298Y0166398D01*
X0029272Y0166554D01*
X0029251Y0166711D01*
X0029233Y0166868D01*
X0029219Y0167026D01*
X0029209Y0167184D01*
X0029203Y0167342D01*
X0029201Y0167500D01*
D11*
X0143500Y0136500D03*
D12*
X0143500Y0146500D03*
X0153500Y0146500D03*
X0153500Y0136500D03*
X0163500Y0136500D03*
X0163500Y0146500D03*
X0173500Y0146500D03*
X0173500Y0136500D03*
D13*
X0128300Y0135500D02*
X0122700Y0135500D01*
X0122700Y0145500D02*
X0128300Y0145500D01*
X0128300Y0157500D02*
X0122700Y0157500D01*
X0122700Y0167500D02*
X0128300Y0167500D01*
D14*
X0126450Y0112075D02*
X0127080Y0111445D01*
X0124992Y0111445D01*
X0123517Y0112920D01*
X0123517Y0115008D01*
X0124992Y0116483D01*
X0127080Y0116483D01*
X0128555Y0115008D01*
X0128555Y0112920D01*
X0127080Y0111445D01*
X0126688Y0112390D01*
X0125384Y0112390D01*
X0124462Y0113312D01*
X0124462Y0114616D01*
X0125384Y0115538D01*
X0126688Y0115538D01*
X0127610Y0114616D01*
X0127610Y0113312D01*
X0126688Y0112390D01*
X0126297Y0113335D01*
X0125775Y0113335D01*
X0125407Y0113703D01*
X0125407Y0114225D01*
X0125775Y0114593D01*
X0126297Y0114593D01*
X0126665Y0114225D01*
X0126665Y0113703D01*
X0126297Y0113335D01*
D15*
X0118964Y0121036D03*
D16*
X0062500Y0102600D03*
X0051500Y0102600D03*
X0019500Y0102600D03*
X0008500Y0102600D03*
X0008500Y0192600D03*
X0062500Y0192600D03*
D17*
X0027500Y0138500D03*
X0027500Y0128500D03*
X0027500Y0118500D03*
X0027500Y0108500D03*
X0027500Y0098500D03*
X0027500Y0088500D03*
X0027500Y0078500D03*
X0027500Y0068500D03*
X0027500Y0058500D03*
X0027500Y0048500D03*
X0027500Y0038500D03*
X0027500Y0028500D03*
X0027500Y0018500D03*
X0027500Y0008500D03*
X0010500Y0008500D03*
X0010500Y0018500D03*
X0010500Y0028500D03*
X0010500Y0038500D03*
X0010500Y0058500D03*
X0010500Y0068500D03*
X0010500Y0078500D03*
X0010500Y0088500D03*
X0060500Y0084500D03*
X0060500Y0074500D03*
X0060500Y0064500D03*
X0060500Y0054500D03*
X0060500Y0044500D03*
X0060500Y0034500D03*
X0060500Y0024500D03*
X0060500Y0014500D03*
X0045500Y0018500D03*
X0045500Y0008500D03*
X0045500Y0028500D03*
X0075500Y0117500D03*
X0075500Y0127500D03*
X0085500Y0127500D03*
X0085500Y0117500D03*
X0095500Y0117500D03*
X0095500Y0127500D03*
X0105500Y0127500D03*
X0105500Y0117500D03*
D18*
X0143500Y0106500D03*
X0062500Y0114500D03*
X0008500Y0114500D03*
X0008500Y0183500D03*
X0062500Y0183500D03*
D19*
X0146760Y0176500D03*
X0154240Y0176500D03*
D20*
X0158500Y0099500D03*
X0148500Y0099500D03*
X0138500Y0099500D03*
X0128500Y0099500D03*
X0118500Y0099500D03*
X0108500Y0099500D03*
X0098500Y0099500D03*
X0168500Y0099500D03*
X0168500Y0009500D03*
X0158500Y0009500D03*
X0148500Y0009500D03*
X0138500Y0009500D03*
X0128500Y0009500D03*
X0118500Y0009500D03*
X0108500Y0009500D03*
X0098500Y0009500D03*
D21*
X0039500Y0022000D03*
X0039500Y0025000D03*
D22*
X0079500Y0183500D03*
X0089500Y0183500D03*
X0112500Y0183500D03*
X0122500Y0183500D03*
D23*
X0134500Y0171500D01*
X0134500Y0160500D01*
X0131500Y0157500D01*
X0125500Y0157500D01*
X0125500Y0167500D02*
X0114500Y0167500D01*
X0122500Y0183500D02*
X0112500Y0193500D01*
X0073500Y0193500D01*
X0063500Y0183500D01*
X0062500Y0183500D01*
X0079500Y0175500D02*
X0081500Y0175500D01*
X0089500Y0183500D01*
X0079500Y0175500D02*
X0051500Y0147500D01*
X0051500Y0116500D01*
X0053500Y0114500D01*
X0051500Y0112500D01*
X0051500Y0114500D01*
X0053500Y0114500D01*
X0062500Y0114500D01*
X0051500Y0114500D02*
X0051500Y0116500D01*
X0051500Y0112500D02*
X0051500Y0102600D01*
X0062500Y0102600D02*
X0078400Y0102600D01*
X0080500Y0102500D01*
X0075500Y0127500D02*
X0062500Y0127500D01*
X0060500Y0129500D01*
X0060500Y0138500D01*
X0095500Y0130500D02*
X0095500Y0127500D01*
X0095500Y0130500D02*
X0100500Y0135500D01*
X0125500Y0135500D01*
X0132500Y0128500D02*
X0132500Y0117500D01*
X0135500Y0114500D01*
X0163500Y0114500D01*
X0168500Y0109500D01*
X0168500Y0099500D01*
X0180500Y0094500D02*
X0184500Y0090500D01*
X0184500Y0058500D01*
X0168500Y0042500D01*
X0168500Y0021500D02*
X0119500Y0021500D01*
X0168500Y0021500D02*
X0168500Y0009500D01*
X0180500Y0094500D02*
X0180500Y0118500D01*
X0177500Y0121500D01*
X0138500Y0121500D01*
X0132500Y0128500D02*
X0135500Y0131500D01*
X0135500Y0141500D01*
X0131500Y0145500D01*
X0125500Y0145500D01*
X0138500Y0176500D02*
X0146760Y0176500D01*
X0038500Y0068500D02*
X0027500Y0068500D01*
D24*
X0038500Y0048500D03*
X0080500Y0102500D03*
X0131500Y0074500D03*
X0166500Y0060500D03*
X0138500Y0029500D03*
X0128500Y0026500D03*
X0114500Y0167500D03*
D25*
X0138500Y0176500D03*
X0060500Y0138500D03*
X0101500Y0044500D03*
D26*
X0087500Y0064500D03*
X0092500Y0079500D03*
X0102500Y0074500D03*
X0103500Y0087500D03*
X0138500Y0121500D03*
X0132500Y0128500D03*
X0154500Y0087500D03*
X0166500Y0075500D03*
X0180500Y0075500D03*
X0180500Y0082500D03*
X0192500Y0075500D03*
X0166500Y0047500D03*
X0168500Y0042500D03*
X0168500Y0021500D03*
X0138500Y0047500D03*
X0119500Y0021500D03*
X0092500Y0022500D03*
X0053500Y0079500D03*
X0049500Y0089500D03*
X0044500Y0088500D03*
X0036500Y0079500D03*
X0038500Y0068500D03*
X0044500Y0045500D03*
D27*
X0044500Y0039500D01*
X0055500Y0039500D01*
X0060500Y0034500D01*
X0062919Y0038445D02*
X0090500Y0038445D01*
X0090500Y0039443D02*
X0058385Y0039443D01*
X0058636Y0040000D02*
X0062364Y0040000D01*
X0065000Y0042636D01*
X0065000Y0046364D01*
X0062364Y0049000D01*
X0058828Y0049000D01*
X0058500Y0049328D01*
X0057328Y0050500D01*
X0040862Y0050500D01*
X0040247Y0051115D01*
X0039113Y0051584D01*
X0037886Y0051584D01*
X0036753Y0051115D01*
X0036138Y0050500D01*
X0031864Y0050500D01*
X0029364Y0053000D01*
X0025636Y0053000D01*
X0023000Y0050364D01*
X0023000Y0046636D01*
X0025636Y0044000D01*
X0029364Y0044000D01*
X0031864Y0046500D01*
X0036138Y0046500D01*
X0036753Y0045885D01*
X0037886Y0045416D01*
X0039113Y0045416D01*
X0040247Y0045885D01*
X0040862Y0046500D01*
X0041363Y0046500D01*
X0041219Y0046153D01*
X0041219Y0044847D01*
X0041718Y0043641D01*
X0042500Y0042860D01*
X0042500Y0041500D01*
X0037672Y0041500D01*
X0029172Y0033000D01*
X0025636Y0033000D01*
X0023000Y0030364D01*
X0023000Y0026636D01*
X0025636Y0024000D01*
X0029364Y0024000D01*
X0032000Y0026636D01*
X0032000Y0030172D01*
X0039328Y0037500D01*
X0054672Y0037500D01*
X0056000Y0036172D01*
X0056000Y0032636D01*
X0058636Y0030000D01*
X0062364Y0030000D01*
X0065000Y0032636D01*
X0065000Y0036364D01*
X0062364Y0039000D01*
X0058828Y0039000D01*
X0056328Y0041500D01*
X0046500Y0041500D01*
X0046500Y0042860D01*
X0047282Y0043641D01*
X0047781Y0044847D01*
X0047781Y0046153D01*
X0047637Y0046500D01*
X0055672Y0046500D01*
X0056000Y0046172D01*
X0056000Y0042636D01*
X0058636Y0040000D01*
X0058194Y0040442D02*
X0057386Y0040442D01*
X0057196Y0041440D02*
X0056388Y0041440D01*
X0056197Y0042439D02*
X0046500Y0042439D01*
X0047078Y0043437D02*
X0056000Y0043437D01*
X0056000Y0044436D02*
X0047611Y0044436D01*
X0047781Y0045434D02*
X0056000Y0045434D01*
X0055739Y0046433D02*
X0047665Y0046433D01*
X0044500Y0039500D02*
X0038500Y0039500D01*
X0027500Y0028500D01*
X0032000Y0028460D02*
X0037631Y0028460D01*
X0037500Y0028328D02*
X0037500Y0027700D01*
X0037129Y0027700D01*
X0036250Y0026821D01*
X0036250Y0020179D01*
X0037129Y0019300D01*
X0037500Y0019300D01*
X0037500Y0018672D01*
X0038500Y0017672D01*
X0039672Y0016500D01*
X0041136Y0016500D01*
X0043636Y0014000D01*
X0047172Y0014000D01*
X0057672Y0003500D01*
X0095328Y0003500D01*
X0096500Y0004672D01*
X0096597Y0004768D01*
X0097486Y0004400D01*
X0099514Y0004400D01*
X0101389Y0005176D01*
X0102824Y0006611D01*
X0103500Y0008244D01*
X0104176Y0006611D01*
X0105611Y0005176D01*
X0107486Y0004400D01*
X0109514Y0004400D01*
X0111389Y0005176D01*
X0112824Y0006611D01*
X0113500Y0008244D01*
X0114176Y0006611D01*
X0115611Y0005176D01*
X0117486Y0004400D01*
X0119514Y0004400D01*
X0121389Y0005176D01*
X0122824Y0006611D01*
X0123500Y0008244D01*
X0124176Y0006611D01*
X0125611Y0005176D01*
X0127486Y0004400D01*
X0129514Y0004400D01*
X0131389Y0005176D01*
X0132824Y0006611D01*
X0133500Y0008244D01*
X0134176Y0006611D01*
X0135611Y0005176D01*
X0137486Y0004400D01*
X0139514Y0004400D01*
X0141389Y0005176D01*
X0142824Y0006611D01*
X0143500Y0008244D01*
X0144176Y0006611D01*
X0145611Y0005176D01*
X0147486Y0004400D01*
X0149514Y0004400D01*
X0151389Y0005176D01*
X0152824Y0006611D01*
X0153500Y0008244D01*
X0154176Y0006611D01*
X0155611Y0005176D01*
X0157486Y0004400D01*
X0159514Y0004400D01*
X0161389Y0005176D01*
X0162824Y0006611D01*
X0163500Y0008244D01*
X0164176Y0006611D01*
X0165611Y0005176D01*
X0167486Y0004400D01*
X0169514Y0004400D01*
X0171389Y0005176D01*
X0172824Y0006611D01*
X0173600Y0008486D01*
X0173600Y0010514D01*
X0172824Y0012389D01*
X0171389Y0013824D01*
X0170800Y0014067D01*
X0170800Y0019160D01*
X0171282Y0019641D01*
X0171781Y0020847D01*
X0171781Y0022153D01*
X0171282Y0023359D01*
X0170359Y0024282D01*
X0169153Y0024781D01*
X0167847Y0024781D01*
X0166641Y0024282D01*
X0166160Y0023800D01*
X0130041Y0023800D01*
X0130247Y0023885D01*
X0131115Y0024753D01*
X0131584Y0025886D01*
X0131584Y0027113D01*
X0131115Y0028247D01*
X0130500Y0028862D01*
X0130500Y0043672D01*
X0135387Y0048559D01*
X0135219Y0048153D01*
X0135219Y0046847D01*
X0135718Y0045641D01*
X0136641Y0044718D01*
X0137847Y0044219D01*
X0139153Y0044219D01*
X0140359Y0044718D01*
X0141140Y0045500D01*
X0163860Y0045500D01*
X0164641Y0044718D01*
X0165688Y0044285D01*
X0165219Y0043153D01*
X0165219Y0041847D01*
X0165718Y0040641D01*
X0166641Y0039718D01*
X0167847Y0039219D01*
X0169153Y0039219D01*
X0170359Y0039718D01*
X0171282Y0040641D01*
X0171781Y0041847D01*
X0171781Y0042528D01*
X0186800Y0057547D01*
X0186800Y0091453D01*
X0185453Y0092800D01*
X0182800Y0095453D01*
X0182800Y0119453D01*
X0181453Y0120800D01*
X0178453Y0123800D01*
X0140840Y0123800D01*
X0140359Y0124282D01*
X0139153Y0124781D01*
X0137847Y0124781D01*
X0136641Y0124282D01*
X0135718Y0123359D01*
X0135219Y0122153D01*
X0135219Y0120847D01*
X0135718Y0119641D01*
X0136641Y0118718D01*
X0137847Y0118219D01*
X0139153Y0118219D01*
X0140359Y0118718D01*
X0140840Y0119200D01*
X0176547Y0119200D01*
X0178200Y0117547D01*
X0178200Y0093547D01*
X0182200Y0089547D01*
X0182200Y0085347D01*
X0181153Y0085781D01*
X0179847Y0085781D01*
X0178641Y0085282D01*
X0177860Y0084500D01*
X0155831Y0084500D01*
X0156359Y0084718D01*
X0157282Y0085641D01*
X0157781Y0086847D01*
X0157781Y0088153D01*
X0157282Y0089359D01*
X0156359Y0090282D01*
X0155153Y0090781D01*
X0153847Y0090781D01*
X0152641Y0090282D01*
X0151860Y0089500D01*
X0132328Y0089500D01*
X0130500Y0091328D01*
X0130500Y0094808D01*
X0131389Y0095176D01*
X0132824Y0096611D01*
X0133500Y0098244D01*
X0134176Y0096611D01*
X0135611Y0095176D01*
X0137486Y0094400D01*
X0139514Y0094400D01*
X0141389Y0095176D01*
X0142824Y0096611D01*
X0143500Y0098244D01*
X0144176Y0096611D01*
X0145611Y0095176D01*
X0147486Y0094400D01*
X0149514Y0094400D01*
X0151389Y0095176D01*
X0152824Y0096611D01*
X0153526Y0098306D01*
X0153526Y0098306D01*
X0153774Y0097542D01*
X0154138Y0096827D01*
X0154610Y0096178D01*
X0155178Y0095610D01*
X0155827Y0095138D01*
X0156542Y0094774D01*
X0157306Y0094526D01*
X0158000Y0094416D01*
X0158000Y0099000D01*
X0159000Y0099000D01*
X0159000Y0094416D01*
X0159694Y0094526D01*
X0160458Y0094774D01*
X0161173Y0095138D01*
X0161822Y0095610D01*
X0162390Y0096178D01*
X0162862Y0096827D01*
X0163226Y0097542D01*
X0163474Y0098306D01*
X0164176Y0096611D01*
X0165611Y0095176D01*
X0167486Y0094400D01*
X0169514Y0094400D01*
X0171389Y0095176D01*
X0172824Y0096611D01*
X0173600Y0098486D01*
X0173600Y0100514D01*
X0172824Y0102389D01*
X0171389Y0103824D01*
X0170800Y0104067D01*
X0170800Y0110453D01*
X0165800Y0115453D01*
X0164453Y0116800D01*
X0136453Y0116800D01*
X0134800Y0118453D01*
X0134800Y0126160D01*
X0135282Y0126641D01*
X0135781Y0127847D01*
X0135781Y0128528D01*
X0136453Y0129200D01*
X0137800Y0130547D01*
X0137800Y0142453D01*
X0133800Y0146453D01*
X0132453Y0147800D01*
X0132002Y0147800D01*
X0131945Y0147936D01*
X0130736Y0149145D01*
X0129155Y0149800D01*
X0121845Y0149800D01*
X0120264Y0149145D01*
X0119055Y0147936D01*
X0118400Y0146355D01*
X0118400Y0144645D01*
X0119055Y0143064D01*
X0120264Y0141855D01*
X0121845Y0141200D01*
X0129155Y0141200D01*
X0130736Y0141855D01*
X0131314Y0142433D01*
X0133200Y0140547D01*
X0133200Y0132453D01*
X0132528Y0131781D01*
X0131847Y0131781D01*
X0130641Y0131282D01*
X0129718Y0130359D01*
X0129219Y0129153D01*
X0129219Y0127847D01*
X0129718Y0126641D01*
X0130200Y0126160D01*
X0130200Y0116547D01*
X0131547Y0115200D01*
X0131547Y0115200D01*
X0134547Y0112200D01*
X0162547Y0112200D01*
X0166200Y0108547D01*
X0166200Y0104067D01*
X0165611Y0103824D01*
X0164176Y0102389D01*
X0163474Y0100694D01*
X0163474Y0100694D01*
X0163226Y0101458D01*
X0162862Y0102173D01*
X0162390Y0102822D01*
X0161822Y0103390D01*
X0161173Y0103862D01*
X0160458Y0104226D01*
X0159694Y0104474D01*
X0159000Y0104584D01*
X0159000Y0100000D01*
X0158000Y0100000D01*
X0158000Y0104584D01*
X0157306Y0104474D01*
X0156542Y0104226D01*
X0155827Y0103862D01*
X0155178Y0103390D01*
X0154610Y0102822D01*
X0154138Y0102173D01*
X0153774Y0101458D01*
X0153526Y0100694D01*
X0152824Y0102389D01*
X0151389Y0103824D01*
X0149514Y0104600D01*
X0148150Y0104600D01*
X0148150Y0108426D01*
X0145426Y0111150D01*
X0141574Y0111150D01*
X0138850Y0108426D01*
X0138850Y0104600D01*
X0137486Y0104600D01*
X0135611Y0103824D01*
X0134176Y0102389D01*
X0133500Y0100756D01*
X0132824Y0102389D01*
X0131389Y0103824D01*
X0129514Y0104600D01*
X0127486Y0104600D01*
X0125611Y0103824D01*
X0124176Y0102389D01*
X0123500Y0100756D01*
X0122824Y0102389D01*
X0121389Y0103824D01*
X0119514Y0104600D01*
X0117486Y0104600D01*
X0115611Y0103824D01*
X0114176Y0102389D01*
X0113500Y0100756D01*
X0112824Y0102389D01*
X0111389Y0103824D01*
X0109514Y0104600D01*
X0107486Y0104600D01*
X0105611Y0103824D01*
X0104176Y0102389D01*
X0103500Y0100756D01*
X0102824Y0102389D01*
X0101389Y0103824D01*
X0099514Y0104600D01*
X0097486Y0104600D01*
X0095611Y0103824D01*
X0094176Y0102389D01*
X0093400Y0100514D01*
X0093400Y0098486D01*
X0094176Y0096611D01*
X0095611Y0095176D01*
X0097486Y0094400D01*
X0099514Y0094400D01*
X0101389Y0095176D01*
X0102824Y0096611D01*
X0103500Y0098244D01*
X0104176Y0096611D01*
X0105611Y0095176D01*
X0107486Y0094400D01*
X0109514Y0094400D01*
X0111389Y0095176D01*
X0112824Y0096611D01*
X0113500Y0098244D01*
X0114176Y0096611D01*
X0115611Y0095176D01*
X0116500Y0094808D01*
X0116500Y0084500D01*
X0104831Y0084500D01*
X0105359Y0084718D01*
X0106282Y0085641D01*
X0106781Y0086847D01*
X0106781Y0088153D01*
X0106282Y0089359D01*
X0105359Y0090282D01*
X0104153Y0090781D01*
X0102847Y0090781D01*
X0101641Y0090282D01*
X0100860Y0089500D01*
X0097328Y0089500D01*
X0094500Y0092328D01*
X0093328Y0093500D01*
X0070672Y0093500D01*
X0064268Y0087096D01*
X0062364Y0089000D01*
X0058636Y0089000D01*
X0056136Y0086500D01*
X0054672Y0086500D01*
X0053672Y0085500D01*
X0045831Y0085500D01*
X0046359Y0085718D01*
X0047282Y0086641D01*
X0047410Y0086950D01*
X0047641Y0086718D01*
X0048847Y0086219D01*
X0050153Y0086219D01*
X0051359Y0086718D01*
X0052282Y0087641D01*
X0052781Y0088847D01*
X0052781Y0090153D01*
X0052282Y0091359D01*
X0051359Y0092282D01*
X0050153Y0092781D01*
X0049047Y0092781D01*
X0041500Y0100328D01*
X0041500Y0115328D01*
X0037500Y0119328D01*
X0036328Y0120500D01*
X0031864Y0120500D01*
X0029364Y0123000D01*
X0025636Y0123000D01*
X0023000Y0120364D01*
X0023000Y0116636D01*
X0025636Y0114000D01*
X0029364Y0114000D01*
X0031864Y0116500D01*
X0034672Y0116500D01*
X0037500Y0113672D01*
X0037500Y0098672D01*
X0038672Y0097500D01*
X0044390Y0091781D01*
X0043847Y0091781D01*
X0042641Y0091282D01*
X0041860Y0090500D01*
X0031864Y0090500D01*
X0029364Y0093000D01*
X0025636Y0093000D01*
X0023000Y0090364D01*
X0023000Y0086636D01*
X0024136Y0085500D01*
X0019328Y0085500D01*
X0015500Y0089328D01*
X0015500Y0089328D01*
X0015000Y0089828D01*
X0015000Y0090364D01*
X0012364Y0093000D01*
X0008636Y0093000D01*
X0006000Y0090364D01*
X0006000Y0086636D01*
X0008636Y0084000D01*
X0012364Y0084000D01*
X0013768Y0085404D01*
X0016500Y0082672D01*
X0016500Y0082672D01*
X0017672Y0081500D01*
X0024136Y0081500D01*
X0023000Y0080364D01*
X0023000Y0076636D01*
X0024136Y0075500D01*
X0020328Y0075500D01*
X0015328Y0080500D01*
X0014864Y0080500D01*
X0012364Y0083000D01*
X0008636Y0083000D01*
X0006136Y0080500D01*
X0005672Y0080500D01*
X0004500Y0079328D01*
X0003000Y0077828D01*
X0003000Y0195264D01*
X0003025Y0195454D01*
X0003216Y0195784D01*
X0003546Y0195975D01*
X0003736Y0196000D01*
X0004235Y0196000D01*
X0004228Y0195993D01*
X0004228Y0189207D01*
X0005107Y0188328D01*
X0011893Y0188328D01*
X0012772Y0189207D01*
X0012772Y0195993D01*
X0012765Y0196000D01*
X0058235Y0196000D01*
X0058228Y0195993D01*
X0058228Y0189207D01*
X0059107Y0188328D01*
X0065076Y0188328D01*
X0064662Y0187914D01*
X0064426Y0188150D01*
X0060574Y0188150D01*
X0057850Y0185426D01*
X0057850Y0181574D01*
X0060574Y0178850D01*
X0064426Y0178850D01*
X0067150Y0181574D01*
X0067150Y0183897D01*
X0074453Y0191200D01*
X0111547Y0191200D01*
X0118103Y0184644D01*
X0118000Y0184395D01*
X0118000Y0182605D01*
X0118685Y0180951D01*
X0119951Y0179685D01*
X0121605Y0179000D01*
X0123395Y0179000D01*
X0123644Y0179103D01*
X0132200Y0170547D01*
X0132200Y0169321D01*
X0131945Y0169936D01*
X0130736Y0171145D01*
X0129155Y0171800D01*
X0121845Y0171800D01*
X0120264Y0171145D01*
X0119055Y0169936D01*
X0118998Y0169800D01*
X0116562Y0169800D01*
X0116247Y0170115D01*
X0115113Y0170584D01*
X0113886Y0170584D01*
X0112753Y0170115D01*
X0111885Y0169247D01*
X0111416Y0168113D01*
X0111416Y0166886D01*
X0111885Y0165753D01*
X0112753Y0164885D01*
X0113886Y0164416D01*
X0115113Y0164416D01*
X0116247Y0164885D01*
X0116562Y0165200D01*
X0118998Y0165200D01*
X0119055Y0165064D01*
X0120264Y0163855D01*
X0121845Y0163200D01*
X0129155Y0163200D01*
X0130736Y0163855D01*
X0131945Y0165064D01*
X0132200Y0165679D01*
X0132200Y0161453D01*
X0131314Y0160567D01*
X0130736Y0161145D01*
X0129155Y0161800D01*
X0121845Y0161800D01*
X0120264Y0161145D01*
X0119055Y0159936D01*
X0118400Y0158355D01*
X0118400Y0156645D01*
X0119055Y0155064D01*
X0120264Y0153855D01*
X0121845Y0153200D01*
X0129155Y0153200D01*
X0130736Y0153855D01*
X0131945Y0155064D01*
X0132002Y0155200D01*
X0132453Y0155200D01*
X0133800Y0156547D01*
X0136800Y0159547D01*
X0136800Y0172453D01*
X0126897Y0182356D01*
X0127000Y0182605D01*
X0127000Y0184395D01*
X0126315Y0186049D01*
X0125049Y0187315D01*
X0123395Y0188000D01*
X0121605Y0188000D01*
X0121356Y0187897D01*
X0114800Y0194453D01*
X0113453Y0195800D01*
X0072547Y0195800D01*
X0066772Y0190024D01*
X0066772Y0195993D01*
X0066765Y0196000D01*
X0195264Y0196000D01*
X0195454Y0195975D01*
X0195784Y0195784D01*
X0195975Y0195454D01*
X0196000Y0195264D01*
X0196000Y0003736D01*
X0195975Y0003546D01*
X0195784Y0003216D01*
X0195454Y0003025D01*
X0195264Y0003000D01*
X0003736Y0003000D01*
X0003546Y0003025D01*
X0003216Y0003216D01*
X0003025Y0003546D01*
X0003000Y0003736D01*
X0003000Y0027172D01*
X0003672Y0026500D01*
X0006136Y0026500D01*
X0008636Y0024000D01*
X0012364Y0024000D01*
X0014864Y0026500D01*
X0015672Y0026500D01*
X0017500Y0024672D01*
X0017500Y0010672D01*
X0021672Y0006500D01*
X0023136Y0006500D01*
X0025636Y0004000D01*
X0029364Y0004000D01*
X0032000Y0006636D01*
X0032000Y0010364D01*
X0029364Y0013000D01*
X0025636Y0013000D01*
X0023232Y0010596D01*
X0021500Y0012328D01*
X0021500Y0026328D01*
X0020328Y0027500D01*
X0017328Y0030500D01*
X0014864Y0030500D01*
X0012364Y0033000D01*
X0008636Y0033000D01*
X0006136Y0030500D01*
X0005500Y0030500D01*
X0005500Y0074672D01*
X0006732Y0075904D01*
X0008636Y0074000D01*
X0012364Y0074000D01*
X0014268Y0075904D01*
X0017500Y0072672D01*
X0018672Y0071500D01*
X0024136Y0071500D01*
X0023000Y0070364D01*
X0023000Y0066636D01*
X0025636Y0064000D01*
X0029364Y0064000D01*
X0031564Y0066200D01*
X0036160Y0066200D01*
X0036641Y0065718D01*
X0037847Y0065219D01*
X0039153Y0065219D01*
X0040359Y0065718D01*
X0041282Y0066641D01*
X0041781Y0067847D01*
X0041781Y0069153D01*
X0041282Y0070359D01*
X0040359Y0071282D01*
X0039831Y0071500D01*
X0042672Y0071500D01*
X0045500Y0068672D01*
X0045500Y0068672D01*
X0046672Y0067500D01*
X0057136Y0067500D01*
X0056000Y0066364D01*
X0056000Y0062636D01*
X0058636Y0060000D01*
X0062364Y0060000D01*
X0064864Y0062500D01*
X0084860Y0062500D01*
X0085641Y0061718D01*
X0086847Y0061219D01*
X0088153Y0061219D01*
X0089359Y0061718D01*
X0090282Y0062641D01*
X0090500Y0063169D01*
X0090500Y0025140D01*
X0089718Y0024359D01*
X0089219Y0023153D01*
X0089219Y0022609D01*
X0088500Y0023328D01*
X0088500Y0023328D01*
X0087328Y0024500D01*
X0073672Y0024500D01*
X0072500Y0023328D01*
X0070672Y0021500D01*
X0063864Y0021500D01*
X0065000Y0022636D01*
X0065000Y0024000D01*
X0061000Y0024000D01*
X0061000Y0025000D01*
X0060000Y0025000D01*
X0060000Y0029000D01*
X0058636Y0029000D01*
X0056000Y0026364D01*
X0056000Y0025000D01*
X0060000Y0025000D01*
X0060000Y0024000D01*
X0056000Y0024000D01*
X0056000Y0022636D01*
X0057136Y0021500D01*
X0055328Y0021500D01*
X0050000Y0026828D01*
X0050000Y0030364D01*
X0047364Y0033000D01*
X0043636Y0033000D01*
X0041136Y0030500D01*
X0039672Y0030500D01*
X0038500Y0029328D01*
X0037500Y0028328D01*
X0036890Y0027461D02*
X0032000Y0027461D01*
X0031827Y0026463D02*
X0036250Y0026463D01*
X0036250Y0025464D02*
X0030828Y0025464D01*
X0029830Y0024466D02*
X0036250Y0024466D01*
X0036250Y0023467D02*
X0021500Y0023467D01*
X0021500Y0022469D02*
X0025105Y0022469D01*
X0025636Y0023000D02*
X0023000Y0020364D01*
X0023000Y0016636D01*
X0025636Y0014000D01*
X0029364Y0014000D01*
X0032000Y0016636D01*
X0032000Y0020364D01*
X0029364Y0023000D01*
X0025636Y0023000D01*
X0025170Y0024466D02*
X0021500Y0024466D01*
X0021500Y0025464D02*
X0024172Y0025464D01*
X0023173Y0026463D02*
X0021366Y0026463D01*
X0020367Y0027461D02*
X0023000Y0027461D01*
X0023000Y0028460D02*
X0019369Y0028460D01*
X0018370Y0029458D02*
X0023000Y0029458D01*
X0023093Y0030457D02*
X0017372Y0030457D01*
X0016500Y0028500D02*
X0010500Y0028500D01*
X0004500Y0028500D01*
X0003500Y0029500D01*
X0003500Y0075500D01*
X0006500Y0078500D01*
X0010500Y0078500D01*
X0014500Y0078500D01*
X0019500Y0073500D01*
X0043500Y0073500D01*
X0047500Y0069500D01*
X0066500Y0069500D01*
X0069500Y0072500D01*
X0069500Y0078500D01*
X0073500Y0082500D01*
X0117500Y0082500D01*
X0118500Y0083500D01*
X0119500Y0082500D01*
X0180500Y0082500D01*
X0182133Y0085375D02*
X0182200Y0085375D01*
X0182200Y0086373D02*
X0157585Y0086373D01*
X0157781Y0087372D02*
X0182200Y0087372D01*
X0182200Y0088370D02*
X0157691Y0088370D01*
X0157271Y0089369D02*
X0182200Y0089369D01*
X0181380Y0090368D02*
X0156151Y0090368D01*
X0154500Y0087500D02*
X0131500Y0087500D01*
X0128500Y0090500D01*
X0128500Y0099500D01*
X0123747Y0101351D02*
X0123253Y0101351D01*
X0122840Y0102350D02*
X0124160Y0102350D01*
X0125136Y0103348D02*
X0121864Y0103348D01*
X0120126Y0104347D02*
X0126874Y0104347D01*
X0130126Y0104347D02*
X0136874Y0104347D01*
X0135136Y0103348D02*
X0131864Y0103348D01*
X0132840Y0102350D02*
X0134160Y0102350D01*
X0133747Y0101351D02*
X0133253Y0101351D01*
X0133133Y0097357D02*
X0133867Y0097357D01*
X0134429Y0096359D02*
X0132571Y0096359D01*
X0131573Y0095360D02*
X0135427Y0095360D01*
X0131461Y0090368D02*
X0152849Y0090368D01*
X0151573Y0095360D02*
X0155521Y0095360D01*
X0154478Y0096359D02*
X0152571Y0096359D01*
X0153133Y0097357D02*
X0153868Y0097357D01*
X0153526Y0100694D02*
X0153526Y0100694D01*
X0153739Y0101351D02*
X0153253Y0101351D01*
X0152840Y0102350D02*
X0154266Y0102350D01*
X0155136Y0103348D02*
X0151864Y0103348D01*
X0150126Y0104347D02*
X0156913Y0104347D01*
X0158000Y0104347D02*
X0159000Y0104347D01*
X0159000Y0103348D02*
X0158000Y0103348D01*
X0158000Y0102350D02*
X0159000Y0102350D01*
X0159000Y0101351D02*
X0158000Y0101351D01*
X0158000Y0100353D02*
X0159000Y0100353D01*
X0159000Y0098356D02*
X0158000Y0098356D01*
X0158000Y0097357D02*
X0159000Y0097357D01*
X0159000Y0096359D02*
X0158000Y0096359D01*
X0158000Y0095360D02*
X0159000Y0095360D01*
X0161478Y0095360D02*
X0165427Y0095360D01*
X0164429Y0096359D02*
X0162522Y0096359D01*
X0163132Y0097357D02*
X0163867Y0097357D01*
X0163474Y0098306D02*
X0163474Y0098306D01*
X0163261Y0101351D02*
X0163747Y0101351D01*
X0164160Y0102350D02*
X0162734Y0102350D01*
X0161864Y0103348D02*
X0165136Y0103348D01*
X0166200Y0104347D02*
X0160087Y0104347D01*
X0165408Y0109339D02*
X0147237Y0109339D01*
X0148150Y0108341D02*
X0166200Y0108341D01*
X0166200Y0107342D02*
X0148150Y0107342D01*
X0148150Y0106344D02*
X0166200Y0106344D01*
X0166200Y0105345D02*
X0148150Y0105345D01*
X0146238Y0110338D02*
X0164410Y0110338D01*
X0163411Y0111336D02*
X0129983Y0111336D01*
X0129536Y0110889D02*
X0130686Y0112038D01*
X0130686Y0115891D01*
X0129536Y0117040D01*
X0126460Y0113964D01*
X0129536Y0110889D01*
X0129111Y0110464D02*
X0126036Y0113540D01*
X0126460Y0113964D01*
X0126036Y0114389D01*
X0129111Y0117465D01*
X0127962Y0118614D01*
X0124109Y0118614D01*
X0122960Y0117465D01*
X0126035Y0114389D01*
X0125611Y0113964D01*
X0126035Y0113540D01*
X0122960Y0110464D01*
X0124109Y0109314D01*
X0127962Y0109314D01*
X0129111Y0110464D01*
X0128985Y0110338D02*
X0140762Y0110338D01*
X0139763Y0109339D02*
X0127986Y0109339D01*
X0128239Y0111336D02*
X0129088Y0111336D01*
X0128089Y0112335D02*
X0127241Y0112335D01*
X0127091Y0113333D02*
X0126242Y0113333D01*
X0125829Y0113333D02*
X0124980Y0113333D01*
X0125611Y0113964D02*
X0122535Y0110889D01*
X0121386Y0112038D01*
X0121386Y0115891D01*
X0122535Y0117040D01*
X0125611Y0113964D01*
X0125244Y0114332D02*
X0125978Y0114332D01*
X0126093Y0114332D02*
X0126827Y0114332D01*
X0126977Y0115330D02*
X0127826Y0115330D01*
X0127976Y0116329D02*
X0128824Y0116329D01*
X0128974Y0117327D02*
X0130200Y0117327D01*
X0130200Y0118326D02*
X0128250Y0118326D01*
X0130200Y0119324D02*
X0123289Y0119324D01*
X0123614Y0120111D02*
X0122907Y0118402D01*
X0121598Y0117093D01*
X0119889Y0116386D01*
X0118040Y0116386D01*
X0116330Y0117093D01*
X0115022Y0118402D01*
X0114314Y0120111D01*
X0114314Y0121960D01*
X0115022Y0123670D01*
X0116330Y0124978D01*
X0118040Y0125686D01*
X0119889Y0125686D01*
X0121598Y0124978D01*
X0122907Y0123670D01*
X0123614Y0121960D01*
X0123614Y0120111D01*
X0123614Y0120323D02*
X0130200Y0120323D01*
X0130200Y0121321D02*
X0123614Y0121321D01*
X0123466Y0122320D02*
X0130200Y0122320D01*
X0130200Y0123318D02*
X0123052Y0123318D01*
X0122259Y0124317D02*
X0130200Y0124317D01*
X0130200Y0125315D02*
X0120783Y0125315D01*
X0117146Y0125315D02*
X0109679Y0125315D01*
X0110000Y0125636D02*
X0110000Y0127000D01*
X0106000Y0127000D01*
X0106000Y0128000D01*
X0110000Y0128000D01*
X0110000Y0129364D01*
X0107364Y0132000D01*
X0106000Y0132000D01*
X0106000Y0128000D01*
X0105000Y0128000D01*
X0105000Y0132000D01*
X0103636Y0132000D01*
X0101000Y0129364D01*
X0101000Y0128000D01*
X0105000Y0128000D01*
X0105000Y0127000D01*
X0106000Y0127000D01*
X0106000Y0123000D01*
X0107364Y0123000D01*
X0110000Y0125636D01*
X0110000Y0126314D02*
X0130046Y0126314D01*
X0129440Y0127312D02*
X0106000Y0127312D01*
X0106000Y0126314D02*
X0105000Y0126314D01*
X0105000Y0127000D02*
X0105000Y0123000D01*
X0103636Y0123000D01*
X0101000Y0125636D01*
X0101000Y0127000D01*
X0105000Y0127000D01*
X0105000Y0127312D02*
X0100000Y0127312D01*
X0100000Y0126314D02*
X0101000Y0126314D01*
X0101321Y0125315D02*
X0099679Y0125315D01*
X0100000Y0125636D02*
X0100000Y0129364D01*
X0098808Y0130556D01*
X0101453Y0133200D01*
X0118998Y0133200D01*
X0119055Y0133064D01*
X0120264Y0131855D01*
X0121845Y0131200D01*
X0129155Y0131200D01*
X0130736Y0131855D01*
X0131945Y0133064D01*
X0132600Y0134645D01*
X0132600Y0136355D01*
X0131945Y0137936D01*
X0130736Y0139145D01*
X0129155Y0139800D01*
X0121845Y0139800D01*
X0120264Y0139145D01*
X0119055Y0137936D01*
X0118998Y0137800D01*
X0099547Y0137800D01*
X0098200Y0136453D01*
X0098200Y0136453D01*
X0094547Y0132800D01*
X0093747Y0132000D01*
X0093636Y0132000D01*
X0091000Y0129364D01*
X0091000Y0125636D01*
X0093636Y0123000D01*
X0097364Y0123000D01*
X0100000Y0125636D01*
X0098681Y0124317D02*
X0102319Y0124317D01*
X0103318Y0123318D02*
X0097682Y0123318D01*
X0097364Y0122000D02*
X0093636Y0122000D01*
X0091000Y0119364D01*
X0091000Y0115636D01*
X0093636Y0113000D01*
X0097364Y0113000D01*
X0100000Y0115636D01*
X0100000Y0119364D01*
X0097364Y0122000D01*
X0098043Y0121321D02*
X0102957Y0121321D01*
X0103636Y0122000D02*
X0101000Y0119364D01*
X0101000Y0118000D01*
X0105000Y0118000D01*
X0105000Y0122000D01*
X0103636Y0122000D01*
X0105000Y0121321D02*
X0106000Y0121321D01*
X0106000Y0122000D02*
X0107364Y0122000D01*
X0110000Y0119364D01*
X0110000Y0118000D01*
X0106000Y0118000D01*
X0106000Y0117000D01*
X0110000Y0117000D01*
X0110000Y0115636D01*
X0107364Y0113000D01*
X0106000Y0113000D01*
X0106000Y0117000D01*
X0105000Y0117000D01*
X0105000Y0113000D01*
X0103636Y0113000D01*
X0101000Y0115636D01*
X0101000Y0117000D01*
X0105000Y0117000D01*
X0105000Y0118000D01*
X0106000Y0118000D01*
X0106000Y0122000D01*
X0106000Y0123318D02*
X0105000Y0123318D01*
X0105000Y0124317D02*
X0106000Y0124317D01*
X0106000Y0125315D02*
X0105000Y0125315D01*
X0105000Y0128311D02*
X0106000Y0128311D01*
X0106000Y0129309D02*
X0105000Y0129309D01*
X0105000Y0130308D02*
X0106000Y0130308D01*
X0106000Y0131306D02*
X0105000Y0131306D01*
X0102943Y0131306D02*
X0099559Y0131306D01*
X0099056Y0130308D02*
X0101944Y0130308D01*
X0101000Y0129309D02*
X0100000Y0129309D01*
X0100000Y0128311D02*
X0101000Y0128311D01*
X0100558Y0132305D02*
X0119814Y0132305D01*
X0121588Y0131306D02*
X0108057Y0131306D01*
X0109056Y0130308D02*
X0129697Y0130308D01*
X0129412Y0131306D02*
X0130702Y0131306D01*
X0131186Y0132305D02*
X0133052Y0132305D01*
X0133200Y0133303D02*
X0132044Y0133303D01*
X0132458Y0134302D02*
X0133200Y0134302D01*
X0133200Y0135301D02*
X0132600Y0135301D01*
X0132600Y0136299D02*
X0133200Y0136299D01*
X0133200Y0137298D02*
X0132210Y0137298D01*
X0131585Y0138296D02*
X0133200Y0138296D01*
X0133200Y0139295D02*
X0130376Y0139295D01*
X0129376Y0141292D02*
X0132456Y0141292D01*
X0133200Y0140293D02*
X0063781Y0140293D01*
X0063781Y0140902D02*
X0062902Y0141781D01*
X0058098Y0141781D01*
X0057219Y0140902D01*
X0057219Y0136098D01*
X0058098Y0135219D01*
X0058200Y0135219D01*
X0058200Y0128547D01*
X0060200Y0126547D01*
X0061547Y0125200D01*
X0071436Y0125200D01*
X0073636Y0123000D01*
X0077364Y0123000D01*
X0080000Y0125636D01*
X0080000Y0129364D01*
X0077364Y0132000D01*
X0073636Y0132000D01*
X0071436Y0129800D01*
X0063453Y0129800D01*
X0062800Y0130453D01*
X0062800Y0135219D01*
X0062902Y0135219D01*
X0063781Y0136098D01*
X0063781Y0140902D01*
X0063392Y0141292D02*
X0121624Y0141292D01*
X0119829Y0142290D02*
X0053800Y0142290D01*
X0053800Y0141292D02*
X0057608Y0141292D01*
X0057219Y0140293D02*
X0053800Y0140293D01*
X0053800Y0139295D02*
X0057219Y0139295D01*
X0057219Y0138296D02*
X0053800Y0138296D01*
X0053800Y0137298D02*
X0057219Y0137298D01*
X0057219Y0136299D02*
X0053800Y0136299D01*
X0053800Y0135301D02*
X0058016Y0135301D01*
X0058200Y0134302D02*
X0053800Y0134302D01*
X0053800Y0133303D02*
X0058200Y0133303D01*
X0058200Y0132305D02*
X0053800Y0132305D01*
X0053800Y0131306D02*
X0058200Y0131306D01*
X0058200Y0130308D02*
X0053800Y0130308D01*
X0053800Y0129309D02*
X0058200Y0129309D01*
X0058436Y0128311D02*
X0053800Y0128311D01*
X0053800Y0127312D02*
X0059435Y0127312D01*
X0060433Y0126314D02*
X0053800Y0126314D01*
X0053800Y0125315D02*
X0061432Y0125315D01*
X0062945Y0130308D02*
X0071944Y0130308D01*
X0072943Y0131306D02*
X0062800Y0131306D01*
X0062800Y0132305D02*
X0094052Y0132305D01*
X0095051Y0133303D02*
X0062800Y0133303D01*
X0062800Y0134302D02*
X0096049Y0134302D01*
X0097048Y0135301D02*
X0062984Y0135301D01*
X0063781Y0136299D02*
X0098046Y0136299D01*
X0099045Y0137298D02*
X0063781Y0137298D01*
X0063781Y0138296D02*
X0119415Y0138296D01*
X0120624Y0139295D02*
X0063781Y0139295D01*
X0055534Y0148281D02*
X0119400Y0148281D01*
X0118784Y0147283D02*
X0054535Y0147283D01*
X0053800Y0146547D02*
X0080453Y0173200D01*
X0082453Y0173200D01*
X0083800Y0174547D01*
X0088356Y0179103D01*
X0088605Y0179000D01*
X0090395Y0179000D01*
X0092049Y0179685D01*
X0093315Y0180951D01*
X0094000Y0182605D01*
X0094000Y0184395D01*
X0093315Y0186049D01*
X0092049Y0187315D01*
X0090395Y0188000D01*
X0088605Y0188000D01*
X0086951Y0187315D01*
X0085685Y0186049D01*
X0085000Y0184395D01*
X0085000Y0182605D01*
X0085103Y0182356D01*
X0080547Y0177800D01*
X0078547Y0177800D01*
X0077200Y0176453D01*
X0049200Y0148453D01*
X0049200Y0106872D01*
X0048107Y0106872D01*
X0047228Y0105993D01*
X0047228Y0099207D01*
X0048107Y0098328D01*
X0054893Y0098328D01*
X0055772Y0099207D01*
X0055772Y0105993D01*
X0054893Y0106872D01*
X0053800Y0106872D01*
X0053800Y0111547D01*
X0054453Y0112200D01*
X0058224Y0112200D01*
X0060574Y0109850D01*
X0064426Y0109850D01*
X0067150Y0112574D01*
X0067150Y0116426D01*
X0064426Y0119150D01*
X0060574Y0119150D01*
X0058224Y0116800D01*
X0054453Y0116800D01*
X0053800Y0117453D01*
X0053800Y0146547D01*
X0053800Y0146284D02*
X0118400Y0146284D01*
X0118400Y0145286D02*
X0053800Y0145286D01*
X0053800Y0144287D02*
X0118548Y0144287D01*
X0118962Y0143289D02*
X0053800Y0143289D01*
X0049200Y0143289D02*
X0003000Y0143289D01*
X0003000Y0144287D02*
X0049200Y0144287D01*
X0049200Y0145286D02*
X0003000Y0145286D01*
X0003000Y0146284D02*
X0049200Y0146284D01*
X0049200Y0147283D02*
X0003000Y0147283D01*
X0003000Y0148281D02*
X0049200Y0148281D01*
X0050027Y0149280D02*
X0003000Y0149280D01*
X0003000Y0150278D02*
X0051026Y0150278D01*
X0052024Y0151277D02*
X0003000Y0151277D01*
X0003000Y0152275D02*
X0053023Y0152275D01*
X0054021Y0153274D02*
X0003000Y0153274D01*
X0003000Y0154272D02*
X0055020Y0154272D01*
X0056018Y0155271D02*
X0003000Y0155271D01*
X0003000Y0156269D02*
X0057017Y0156269D01*
X0058015Y0157268D02*
X0003000Y0157268D01*
X0003000Y0158266D02*
X0059014Y0158266D01*
X0060012Y0159265D02*
X0003000Y0159265D01*
X0003000Y0160263D02*
X0032591Y0160263D01*
X0033949Y0159701D02*
X0031082Y0160888D01*
X0028888Y0163082D01*
X0027701Y0165949D01*
X0027701Y0169051D01*
X0028888Y0171918D01*
X0031082Y0174112D01*
X0033949Y0175299D01*
X0037051Y0175299D01*
X0039918Y0174112D01*
X0042112Y0171918D01*
X0043299Y0169051D01*
X0043299Y0165949D01*
X0042112Y0163082D01*
X0039918Y0160888D01*
X0037051Y0159701D01*
X0033949Y0159701D01*
X0030708Y0161262D02*
X0003000Y0161262D01*
X0003000Y0162260D02*
X0029710Y0162260D01*
X0028815Y0163259D02*
X0003000Y0163259D01*
X0003000Y0164257D02*
X0028401Y0164257D01*
X0027988Y0165256D02*
X0003000Y0165256D01*
X0003000Y0166254D02*
X0027701Y0166254D01*
X0027701Y0167253D02*
X0003000Y0167253D01*
X0003000Y0168251D02*
X0027701Y0168251D01*
X0027783Y0169250D02*
X0003000Y0169250D01*
X0003000Y0170248D02*
X0028197Y0170248D01*
X0028610Y0171247D02*
X0003000Y0171247D01*
X0003000Y0172245D02*
X0029216Y0172245D01*
X0030214Y0173244D02*
X0003000Y0173244D01*
X0003000Y0174242D02*
X0031397Y0174242D01*
X0033808Y0175241D02*
X0003000Y0175241D01*
X0003000Y0176239D02*
X0076987Y0176239D01*
X0075988Y0175241D02*
X0037192Y0175241D01*
X0039603Y0174242D02*
X0074990Y0174242D01*
X0073991Y0173244D02*
X0040786Y0173244D01*
X0041784Y0172245D02*
X0072993Y0172245D01*
X0071994Y0171247D02*
X0042390Y0171247D01*
X0042803Y0170248D02*
X0070996Y0170248D01*
X0069997Y0169250D02*
X0043217Y0169250D01*
X0043299Y0168251D02*
X0068999Y0168251D01*
X0068000Y0167253D02*
X0043299Y0167253D01*
X0043299Y0166254D02*
X0067002Y0166254D01*
X0066003Y0165256D02*
X0043012Y0165256D01*
X0042599Y0164257D02*
X0065005Y0164257D01*
X0064006Y0163259D02*
X0042185Y0163259D01*
X0041290Y0162260D02*
X0063008Y0162260D01*
X0062009Y0161262D02*
X0040292Y0161262D01*
X0038409Y0160263D02*
X0061011Y0160263D01*
X0064520Y0157268D02*
X0118400Y0157268D01*
X0118400Y0158266D02*
X0065519Y0158266D01*
X0066517Y0159265D02*
X0118777Y0159265D01*
X0119382Y0160263D02*
X0067516Y0160263D01*
X0068514Y0161262D02*
X0120545Y0161262D01*
X0121703Y0163259D02*
X0070512Y0163259D01*
X0071510Y0164257D02*
X0119862Y0164257D01*
X0119367Y0170248D02*
X0115924Y0170248D01*
X0113076Y0170248D02*
X0077501Y0170248D01*
X0076503Y0169250D02*
X0111888Y0169250D01*
X0111473Y0168251D02*
X0075504Y0168251D01*
X0074506Y0167253D02*
X0111416Y0167253D01*
X0111678Y0166254D02*
X0073507Y0166254D01*
X0072509Y0165256D02*
X0112382Y0165256D01*
X0120509Y0171247D02*
X0078500Y0171247D01*
X0079498Y0172245D02*
X0130502Y0172245D01*
X0130491Y0171247D02*
X0131500Y0171247D01*
X0131633Y0170248D02*
X0132200Y0170248D01*
X0129503Y0173244D02*
X0082497Y0173244D01*
X0083495Y0174242D02*
X0128505Y0174242D01*
X0127506Y0175241D02*
X0084494Y0175241D01*
X0085492Y0176239D02*
X0126508Y0176239D01*
X0125509Y0177238D02*
X0086491Y0177238D01*
X0087489Y0178237D02*
X0124511Y0178237D01*
X0121037Y0179235D02*
X0113962Y0179235D01*
X0113395Y0179000D02*
X0111605Y0179000D01*
X0109951Y0179685D01*
X0108685Y0180951D01*
X0108000Y0182605D01*
X0108000Y0184395D01*
X0108685Y0186049D01*
X0109951Y0187315D01*
X0111605Y0188000D01*
X0113395Y0188000D01*
X0115049Y0187315D01*
X0116315Y0186049D01*
X0117000Y0184395D01*
X0117000Y0182605D01*
X0116315Y0180951D01*
X0115049Y0179685D01*
X0113395Y0179000D01*
X0111037Y0179235D02*
X0090962Y0179235D01*
X0092597Y0180234D02*
X0109402Y0180234D01*
X0108569Y0181232D02*
X0093431Y0181232D01*
X0093845Y0182231D02*
X0108155Y0182231D01*
X0108000Y0183229D02*
X0094000Y0183229D01*
X0094000Y0184228D02*
X0108000Y0184228D01*
X0108344Y0185226D02*
X0093656Y0185226D01*
X0093139Y0186225D02*
X0108861Y0186225D01*
X0109859Y0187223D02*
X0092141Y0187223D01*
X0086859Y0187223D02*
X0082141Y0187223D01*
X0082049Y0187315D02*
X0080395Y0188000D01*
X0078605Y0188000D01*
X0076951Y0187315D01*
X0075685Y0186049D01*
X0075000Y0184395D01*
X0075000Y0182605D01*
X0075685Y0180951D01*
X0076951Y0179685D01*
X0078605Y0179000D01*
X0080395Y0179000D01*
X0082049Y0179685D01*
X0083315Y0180951D01*
X0084000Y0182605D01*
X0084000Y0184395D01*
X0083315Y0186049D01*
X0082049Y0187315D01*
X0083139Y0186225D02*
X0085861Y0186225D01*
X0085344Y0185226D02*
X0083656Y0185226D01*
X0084000Y0184228D02*
X0085000Y0184228D01*
X0085000Y0183229D02*
X0084000Y0183229D01*
X0083845Y0182231D02*
X0084978Y0182231D01*
X0083979Y0181232D02*
X0083431Y0181232D01*
X0082981Y0180234D02*
X0082597Y0180234D01*
X0081982Y0179235D02*
X0080962Y0179235D01*
X0080984Y0178237D02*
X0003000Y0178237D01*
X0003000Y0179235D02*
X0006189Y0179235D01*
X0006574Y0178850D02*
X0010426Y0178850D01*
X0013150Y0181574D01*
X0013150Y0185426D01*
X0010426Y0188150D01*
X0006574Y0188150D01*
X0003850Y0185426D01*
X0003850Y0181574D01*
X0006574Y0178850D01*
X0005190Y0180234D02*
X0003000Y0180234D01*
X0003000Y0181232D02*
X0004192Y0181232D01*
X0003850Y0182231D02*
X0003000Y0182231D01*
X0003000Y0183229D02*
X0003850Y0183229D01*
X0003850Y0184228D02*
X0003000Y0184228D01*
X0003000Y0185226D02*
X0003850Y0185226D01*
X0004649Y0186225D02*
X0003000Y0186225D01*
X0003000Y0187223D02*
X0005647Y0187223D01*
X0004228Y0189220D02*
X0003000Y0189220D01*
X0003000Y0188222D02*
X0064969Y0188222D01*
X0066772Y0190219D02*
X0066966Y0190219D01*
X0066772Y0191217D02*
X0067964Y0191217D01*
X0068963Y0192216D02*
X0066772Y0192216D01*
X0066772Y0193214D02*
X0069962Y0193214D01*
X0070960Y0194213D02*
X0066772Y0194213D01*
X0066772Y0195211D02*
X0071959Y0195211D01*
X0073471Y0190219D02*
X0112529Y0190219D01*
X0113527Y0189220D02*
X0072473Y0189220D01*
X0071474Y0188222D02*
X0114526Y0188222D01*
X0115141Y0187223D02*
X0115524Y0187223D01*
X0116139Y0186225D02*
X0116523Y0186225D01*
X0116656Y0185226D02*
X0117521Y0185226D01*
X0118000Y0184228D02*
X0117000Y0184228D01*
X0117000Y0183229D02*
X0118000Y0183229D01*
X0118155Y0182231D02*
X0116845Y0182231D01*
X0116431Y0181232D02*
X0118569Y0181232D01*
X0119402Y0180234D02*
X0115597Y0180234D01*
X0121031Y0188222D02*
X0196000Y0188222D01*
X0196000Y0189220D02*
X0120033Y0189220D01*
X0119034Y0190219D02*
X0196000Y0190219D01*
X0196000Y0191217D02*
X0118036Y0191217D01*
X0117037Y0192216D02*
X0196000Y0192216D01*
X0196000Y0193214D02*
X0116038Y0193214D01*
X0115040Y0194213D02*
X0196000Y0194213D01*
X0196000Y0195211D02*
X0114041Y0195211D01*
X0125141Y0187223D02*
X0196000Y0187223D01*
X0196000Y0186225D02*
X0126139Y0186225D01*
X0126656Y0185226D02*
X0196000Y0185226D01*
X0196000Y0184228D02*
X0127000Y0184228D01*
X0127000Y0183229D02*
X0196000Y0183229D01*
X0196000Y0182231D02*
X0127022Y0182231D01*
X0128021Y0181232D02*
X0196000Y0181232D01*
X0196000Y0180234D02*
X0158080Y0180234D01*
X0157999Y0180374D02*
X0157720Y0180653D01*
X0157378Y0180851D01*
X0156997Y0180953D01*
X0154740Y0180953D01*
X0154740Y0177000D01*
X0153740Y0177000D01*
X0153740Y0180953D01*
X0151484Y0180953D01*
X0151102Y0180851D01*
X0150760Y0180653D01*
X0150500Y0180393D01*
X0149940Y0180953D01*
X0143579Y0180953D01*
X0142701Y0180074D01*
X0142701Y0178800D01*
X0141781Y0178800D01*
X0141781Y0178902D01*
X0140902Y0179781D01*
X0136098Y0179781D01*
X0135219Y0178902D01*
X0135219Y0174098D01*
X0136098Y0173219D01*
X0140902Y0173219D01*
X0141781Y0174098D01*
X0141781Y0174200D01*
X0142701Y0174200D01*
X0142701Y0172926D01*
X0143579Y0172047D01*
X0149940Y0172047D01*
X0150500Y0172607D01*
X0150760Y0172347D01*
X0151102Y0172149D01*
X0151484Y0172047D01*
X0153740Y0172047D01*
X0153740Y0176000D01*
X0154740Y0176000D01*
X0154740Y0172047D01*
X0156997Y0172047D01*
X0157378Y0172149D01*
X0157720Y0172347D01*
X0157999Y0172626D01*
X0158197Y0172968D01*
X0158299Y0173350D01*
X0158299Y0176000D01*
X0154740Y0176000D01*
X0154740Y0177000D01*
X0158299Y0177000D01*
X0158299Y0179650D01*
X0158197Y0180032D01*
X0157999Y0180374D01*
X0158299Y0179235D02*
X0196000Y0179235D01*
X0196000Y0178237D02*
X0158299Y0178237D01*
X0158299Y0177238D02*
X0196000Y0177238D01*
X0196000Y0176239D02*
X0154740Y0176239D01*
X0154740Y0175241D02*
X0153740Y0175241D01*
X0153740Y0174242D02*
X0154740Y0174242D01*
X0154740Y0173244D02*
X0153740Y0173244D01*
X0153740Y0172245D02*
X0154740Y0172245D01*
X0157544Y0172245D02*
X0158216Y0172245D01*
X0157888Y0171918D02*
X0156701Y0169051D01*
X0156701Y0165949D01*
X0157888Y0163082D01*
X0160082Y0160888D01*
X0162949Y0159701D01*
X0166051Y0159701D01*
X0168918Y0160888D01*
X0171112Y0163082D01*
X0172299Y0165949D01*
X0172299Y0169051D01*
X0171112Y0171918D01*
X0168918Y0174112D01*
X0166051Y0175299D01*
X0162949Y0175299D01*
X0160082Y0174112D01*
X0157888Y0171918D01*
X0157610Y0171247D02*
X0136800Y0171247D01*
X0136800Y0172245D02*
X0143381Y0172245D01*
X0142701Y0173244D02*
X0140927Y0173244D01*
X0136073Y0173244D02*
X0136009Y0173244D01*
X0135219Y0174242D02*
X0135010Y0174242D01*
X0135219Y0175241D02*
X0134012Y0175241D01*
X0133013Y0176239D02*
X0135219Y0176239D01*
X0135219Y0177238D02*
X0132015Y0177238D01*
X0131016Y0178237D02*
X0135219Y0178237D01*
X0135551Y0179235D02*
X0130018Y0179235D01*
X0129019Y0180234D02*
X0142860Y0180234D01*
X0142701Y0179235D02*
X0141448Y0179235D01*
X0136800Y0170248D02*
X0157197Y0170248D01*
X0156783Y0169250D02*
X0136800Y0169250D01*
X0136800Y0168251D02*
X0156701Y0168251D01*
X0156701Y0167253D02*
X0136800Y0167253D01*
X0136800Y0166254D02*
X0156701Y0166254D01*
X0156988Y0165256D02*
X0136800Y0165256D01*
X0136800Y0164257D02*
X0157401Y0164257D01*
X0157815Y0163259D02*
X0136800Y0163259D01*
X0136800Y0162260D02*
X0158710Y0162260D01*
X0159708Y0161262D02*
X0136800Y0161262D01*
X0136800Y0160263D02*
X0161591Y0160263D01*
X0167409Y0160263D02*
X0196000Y0160263D01*
X0196000Y0159265D02*
X0136517Y0159265D01*
X0135519Y0158266D02*
X0196000Y0158266D01*
X0196000Y0157268D02*
X0134520Y0157268D01*
X0133522Y0156269D02*
X0196000Y0156269D01*
X0196000Y0155271D02*
X0132523Y0155271D01*
X0131153Y0154272D02*
X0196000Y0154272D01*
X0196000Y0153274D02*
X0129333Y0153274D01*
X0130411Y0149280D02*
X0139960Y0149280D01*
X0139712Y0149031D02*
X0139031Y0147389D01*
X0139031Y0145611D01*
X0139712Y0143969D01*
X0140969Y0142712D01*
X0142611Y0142031D01*
X0144389Y0142031D01*
X0146031Y0142712D01*
X0147288Y0143969D01*
X0147968Y0145611D01*
X0147968Y0147389D01*
X0147288Y0149031D01*
X0146031Y0150288D01*
X0144389Y0150968D01*
X0142611Y0150968D01*
X0140969Y0150288D01*
X0139712Y0149031D01*
X0139401Y0148281D02*
X0131600Y0148281D01*
X0132970Y0147283D02*
X0139031Y0147283D01*
X0139031Y0146284D02*
X0133969Y0146284D01*
X0134967Y0145286D02*
X0139166Y0145286D01*
X0139580Y0144287D02*
X0135966Y0144287D01*
X0136964Y0143289D02*
X0140392Y0143289D01*
X0141987Y0142290D02*
X0137800Y0142290D01*
X0137800Y0141292D02*
X0154463Y0141292D01*
X0154140Y0140968D02*
X0152611Y0140968D01*
X0150969Y0140288D01*
X0149712Y0139031D01*
X0149031Y0137389D01*
X0149031Y0135611D01*
X0149712Y0133969D01*
X0150969Y0132712D01*
X0152611Y0132031D01*
X0154389Y0132031D01*
X0156031Y0132712D01*
X0157288Y0133969D01*
X0157968Y0135611D01*
X0157968Y0137389D01*
X0157456Y0138627D01*
X0158328Y0139500D01*
X0160181Y0139500D01*
X0159712Y0139031D01*
X0159031Y0137389D01*
X0159031Y0135611D01*
X0159712Y0133969D01*
X0160969Y0132712D01*
X0162611Y0132031D01*
X0164389Y0132031D01*
X0166031Y0132712D01*
X0167288Y0133969D01*
X0167968Y0135611D01*
X0167968Y0137389D01*
X0167288Y0139031D01*
X0166819Y0139500D01*
X0170181Y0139500D01*
X0169712Y0139031D01*
X0169031Y0137389D01*
X0169031Y0135611D01*
X0169712Y0133969D01*
X0170969Y0132712D01*
X0172611Y0132031D01*
X0174389Y0132031D01*
X0176031Y0132712D01*
X0177288Y0133969D01*
X0177508Y0134500D01*
X0183641Y0134500D01*
X0187250Y0130701D01*
X0187250Y0046078D01*
X0172672Y0031500D01*
X0140862Y0031500D01*
X0140247Y0032115D01*
X0139113Y0032584D01*
X0137886Y0032584D01*
X0136753Y0032115D01*
X0135885Y0031247D01*
X0135416Y0030113D01*
X0135416Y0028886D01*
X0135885Y0027753D01*
X0136753Y0026885D01*
X0137886Y0026416D01*
X0139113Y0026416D01*
X0140247Y0026885D01*
X0140862Y0027500D01*
X0174328Y0027500D01*
X0175500Y0028672D01*
X0191250Y0044422D01*
X0191250Y0072466D01*
X0191847Y0072219D01*
X0193153Y0072219D01*
X0194359Y0072718D01*
X0195282Y0073641D01*
X0195781Y0074847D01*
X0195781Y0076153D01*
X0195282Y0077359D01*
X0194500Y0078140D01*
X0194500Y0138328D01*
X0193328Y0139500D01*
X0189328Y0143500D01*
X0176819Y0143500D01*
X0177288Y0143969D01*
X0177968Y0145611D01*
X0177968Y0147389D01*
X0177288Y0149031D01*
X0176031Y0150288D01*
X0174389Y0150968D01*
X0172611Y0150968D01*
X0170969Y0150288D01*
X0169712Y0149031D01*
X0169031Y0147389D01*
X0169031Y0145611D01*
X0169712Y0143969D01*
X0170181Y0143500D01*
X0166819Y0143500D01*
X0167288Y0143969D01*
X0167968Y0145611D01*
X0167968Y0147389D01*
X0167288Y0149031D01*
X0166031Y0150288D01*
X0164389Y0150968D01*
X0162611Y0150968D01*
X0160969Y0150288D01*
X0159712Y0149031D01*
X0159031Y0147389D01*
X0159031Y0145611D01*
X0159712Y0143969D01*
X0160181Y0143500D01*
X0156819Y0143500D01*
X0157288Y0143969D01*
X0157968Y0145611D01*
X0157968Y0147389D01*
X0157288Y0149031D01*
X0156031Y0150288D01*
X0154389Y0150968D01*
X0152611Y0150968D01*
X0150969Y0150288D01*
X0149712Y0149031D01*
X0149031Y0147389D01*
X0149031Y0145611D01*
X0149712Y0143969D01*
X0150969Y0142712D01*
X0152611Y0142031D01*
X0154389Y0142031D01*
X0155779Y0142607D01*
X0155500Y0142328D01*
X0154140Y0140968D01*
X0155013Y0142290D02*
X0155462Y0142290D01*
X0157500Y0141500D02*
X0153500Y0137500D01*
X0153500Y0136500D01*
X0150377Y0133303D02*
X0147960Y0133303D01*
X0147968Y0133334D02*
X0147968Y0136016D01*
X0143984Y0136016D01*
X0143984Y0132031D01*
X0146666Y0132031D01*
X0147047Y0132134D01*
X0147390Y0132331D01*
X0147669Y0132610D01*
X0147866Y0132953D01*
X0147968Y0133334D01*
X0147968Y0134302D02*
X0149574Y0134302D01*
X0149160Y0135301D02*
X0147968Y0135301D01*
X0149031Y0136299D02*
X0143984Y0136299D01*
X0143984Y0136016D02*
X0143984Y0136984D01*
X0143016Y0136984D01*
X0143016Y0136016D01*
X0143984Y0136016D01*
X0143984Y0135301D02*
X0143016Y0135301D01*
X0143016Y0136016D02*
X0143016Y0132031D01*
X0140334Y0132031D01*
X0139953Y0132134D01*
X0139610Y0132331D01*
X0139331Y0132610D01*
X0139134Y0132953D01*
X0139031Y0133334D01*
X0139031Y0136016D01*
X0143016Y0136016D01*
X0143016Y0136299D02*
X0137800Y0136299D01*
X0137800Y0135301D02*
X0139031Y0135301D01*
X0139031Y0134302D02*
X0137800Y0134302D01*
X0137800Y0133303D02*
X0139040Y0133303D01*
X0139656Y0132305D02*
X0137800Y0132305D01*
X0137800Y0131306D02*
X0186675Y0131306D01*
X0187250Y0130308D02*
X0137561Y0130308D01*
X0136562Y0129309D02*
X0187250Y0129309D01*
X0187250Y0128311D02*
X0135781Y0128311D01*
X0135560Y0127312D02*
X0187250Y0127312D01*
X0187250Y0126314D02*
X0134954Y0126314D01*
X0134800Y0125315D02*
X0187250Y0125315D01*
X0187250Y0124317D02*
X0140273Y0124317D01*
X0136727Y0124317D02*
X0134800Y0124317D01*
X0134800Y0123318D02*
X0135702Y0123318D01*
X0135288Y0122320D02*
X0134800Y0122320D01*
X0134800Y0121321D02*
X0135219Y0121321D01*
X0135436Y0120323D02*
X0134800Y0120323D01*
X0134800Y0119324D02*
X0136035Y0119324D01*
X0134927Y0118326D02*
X0137589Y0118326D01*
X0139411Y0118326D02*
X0177421Y0118326D01*
X0178200Y0117327D02*
X0135925Y0117327D01*
X0133414Y0113333D02*
X0130686Y0113333D01*
X0130686Y0112335D02*
X0134413Y0112335D01*
X0132416Y0114332D02*
X0130686Y0114332D01*
X0130686Y0115330D02*
X0131417Y0115330D01*
X0130419Y0116329D02*
X0130247Y0116329D01*
X0125094Y0115330D02*
X0124245Y0115330D01*
X0124095Y0116329D02*
X0123247Y0116329D01*
X0123097Y0117327D02*
X0121832Y0117327D01*
X0121824Y0116329D02*
X0110000Y0116329D01*
X0109694Y0115330D02*
X0121386Y0115330D01*
X0121386Y0114332D02*
X0108696Y0114332D01*
X0107697Y0113333D02*
X0121386Y0113333D01*
X0121386Y0112335D02*
X0066911Y0112335D01*
X0067150Y0113333D02*
X0073303Y0113333D01*
X0073636Y0113000D02*
X0077364Y0113000D01*
X0080000Y0115636D01*
X0080000Y0119364D01*
X0077364Y0122000D01*
X0073636Y0122000D01*
X0071000Y0119364D01*
X0071000Y0115636D01*
X0073636Y0113000D01*
X0072304Y0114332D02*
X0067150Y0114332D01*
X0067150Y0115330D02*
X0071306Y0115330D01*
X0071000Y0116329D02*
X0067150Y0116329D01*
X0066249Y0117327D02*
X0071000Y0117327D01*
X0071000Y0118326D02*
X0065250Y0118326D01*
X0059750Y0118326D02*
X0053800Y0118326D01*
X0053800Y0119324D02*
X0071000Y0119324D01*
X0071959Y0120323D02*
X0053800Y0120323D01*
X0053800Y0121321D02*
X0072957Y0121321D01*
X0073318Y0123318D02*
X0053800Y0123318D01*
X0053800Y0122320D02*
X0114463Y0122320D01*
X0114314Y0121321D02*
X0108043Y0121321D01*
X0109041Y0120323D02*
X0114314Y0120323D01*
X0114640Y0119324D02*
X0110000Y0119324D01*
X0110000Y0118326D02*
X0115098Y0118326D01*
X0116097Y0117327D02*
X0106000Y0117327D01*
X0106000Y0116329D02*
X0105000Y0116329D01*
X0105000Y0117327D02*
X0100000Y0117327D01*
X0100000Y0116329D02*
X0101000Y0116329D01*
X0101306Y0115330D02*
X0099694Y0115330D01*
X0098696Y0114332D02*
X0102304Y0114332D01*
X0103303Y0113333D02*
X0097697Y0113333D01*
X0093303Y0113333D02*
X0087697Y0113333D01*
X0087364Y0113000D02*
X0090000Y0115636D01*
X0090000Y0119364D01*
X0087364Y0122000D01*
X0083636Y0122000D01*
X0081000Y0119364D01*
X0081000Y0115636D01*
X0083636Y0113000D01*
X0087364Y0113000D01*
X0088696Y0114332D02*
X0092304Y0114332D01*
X0091306Y0115330D02*
X0089694Y0115330D01*
X0090000Y0116329D02*
X0091000Y0116329D01*
X0091000Y0117327D02*
X0090000Y0117327D01*
X0090000Y0118326D02*
X0091000Y0118326D01*
X0091000Y0119324D02*
X0090000Y0119324D01*
X0089041Y0120323D02*
X0091959Y0120323D01*
X0092957Y0121321D02*
X0088043Y0121321D01*
X0087364Y0123000D02*
X0090000Y0125636D01*
X0090000Y0129364D01*
X0087364Y0132000D01*
X0083636Y0132000D01*
X0081000Y0129364D01*
X0081000Y0125636D01*
X0083636Y0123000D01*
X0087364Y0123000D01*
X0087682Y0123318D02*
X0093318Y0123318D01*
X0092319Y0124317D02*
X0088681Y0124317D01*
X0089679Y0125315D02*
X0091321Y0125315D01*
X0091000Y0126314D02*
X0090000Y0126314D01*
X0090000Y0127312D02*
X0091000Y0127312D01*
X0091000Y0128311D02*
X0090000Y0128311D01*
X0090000Y0129309D02*
X0091000Y0129309D01*
X0091944Y0130308D02*
X0089056Y0130308D01*
X0088057Y0131306D02*
X0092943Y0131306D01*
X0099041Y0120323D02*
X0101959Y0120323D01*
X0101000Y0119324D02*
X0100000Y0119324D01*
X0100000Y0118326D02*
X0101000Y0118326D01*
X0105000Y0118326D02*
X0106000Y0118326D01*
X0106000Y0119324D02*
X0105000Y0119324D01*
X0105000Y0120323D02*
X0106000Y0120323D01*
X0107682Y0123318D02*
X0114877Y0123318D01*
X0115670Y0124317D02*
X0108681Y0124317D01*
X0110000Y0128311D02*
X0129219Y0128311D01*
X0129284Y0129309D02*
X0110000Y0129309D01*
X0106000Y0115330D02*
X0105000Y0115330D01*
X0105000Y0114332D02*
X0106000Y0114332D01*
X0106000Y0113333D02*
X0105000Y0113333D01*
X0106874Y0104347D02*
X0100126Y0104347D01*
X0101864Y0103348D02*
X0105136Y0103348D01*
X0104160Y0102350D02*
X0102840Y0102350D01*
X0103253Y0101351D02*
X0103747Y0101351D01*
X0103867Y0097357D02*
X0103133Y0097357D01*
X0102571Y0096359D02*
X0104429Y0096359D01*
X0105427Y0095360D02*
X0101573Y0095360D01*
X0101849Y0090368D02*
X0096461Y0090368D01*
X0095462Y0091366D02*
X0116500Y0091366D01*
X0116500Y0090368D02*
X0105151Y0090368D01*
X0106271Y0089369D02*
X0116500Y0089369D01*
X0116500Y0088370D02*
X0106691Y0088370D01*
X0106781Y0087372D02*
X0116500Y0087372D01*
X0116500Y0086373D02*
X0106585Y0086373D01*
X0106015Y0085375D02*
X0116500Y0085375D01*
X0118500Y0083500D02*
X0118500Y0082500D01*
X0119500Y0082500D01*
X0118500Y0082500D02*
X0117500Y0082500D01*
X0118500Y0083500D02*
X0118500Y0099500D01*
X0113747Y0101351D02*
X0113253Y0101351D01*
X0112840Y0102350D02*
X0114160Y0102350D01*
X0115136Y0103348D02*
X0111864Y0103348D01*
X0110126Y0104347D02*
X0116874Y0104347D01*
X0113867Y0097357D02*
X0113133Y0097357D01*
X0112571Y0096359D02*
X0114429Y0096359D01*
X0115427Y0095360D02*
X0111573Y0095360D01*
X0116500Y0094362D02*
X0047467Y0094362D01*
X0046468Y0095360D02*
X0095427Y0095360D01*
X0094429Y0096359D02*
X0045470Y0096359D01*
X0044471Y0097357D02*
X0093867Y0097357D01*
X0093454Y0098356D02*
X0065920Y0098356D01*
X0065893Y0098328D02*
X0066772Y0099207D01*
X0066772Y0100300D01*
X0078338Y0100300D01*
X0078753Y0099885D01*
X0079886Y0099416D01*
X0081113Y0099416D01*
X0082247Y0099885D01*
X0083115Y0100753D01*
X0083584Y0101886D01*
X0083584Y0103113D01*
X0083115Y0104247D01*
X0082247Y0105115D01*
X0081113Y0105584D01*
X0079886Y0105584D01*
X0078753Y0105115D01*
X0078538Y0104900D01*
X0078455Y0104900D01*
X0077558Y0104943D01*
X0077511Y0104900D01*
X0066772Y0104900D01*
X0066772Y0105993D01*
X0065893Y0106872D01*
X0059107Y0106872D01*
X0058228Y0105993D01*
X0058228Y0099207D01*
X0059107Y0098328D01*
X0065893Y0098328D01*
X0066772Y0099354D02*
X0093400Y0099354D01*
X0093400Y0100353D02*
X0082714Y0100353D01*
X0083362Y0101351D02*
X0093747Y0101351D01*
X0094160Y0102350D02*
X0083584Y0102350D01*
X0083487Y0103348D02*
X0095136Y0103348D01*
X0096874Y0104347D02*
X0083015Y0104347D01*
X0081691Y0105345D02*
X0138850Y0105345D01*
X0138850Y0106344D02*
X0066421Y0106344D01*
X0066772Y0105345D02*
X0079309Y0105345D01*
X0077697Y0113333D02*
X0083303Y0113333D01*
X0082304Y0114332D02*
X0078696Y0114332D01*
X0079694Y0115330D02*
X0081306Y0115330D01*
X0081000Y0116329D02*
X0080000Y0116329D01*
X0080000Y0117327D02*
X0081000Y0117327D01*
X0081000Y0118326D02*
X0080000Y0118326D01*
X0080000Y0119324D02*
X0081000Y0119324D01*
X0081959Y0120323D02*
X0079041Y0120323D01*
X0078043Y0121321D02*
X0082957Y0121321D01*
X0083318Y0123318D02*
X0077682Y0123318D01*
X0078681Y0124317D02*
X0082319Y0124317D01*
X0081321Y0125315D02*
X0079679Y0125315D01*
X0080000Y0126314D02*
X0081000Y0126314D01*
X0081000Y0127312D02*
X0080000Y0127312D01*
X0080000Y0128311D02*
X0081000Y0128311D01*
X0081000Y0129309D02*
X0080000Y0129309D01*
X0079056Y0130308D02*
X0081944Y0130308D01*
X0082943Y0131306D02*
X0078057Y0131306D01*
X0072319Y0124317D02*
X0053800Y0124317D01*
X0049200Y0124317D02*
X0029681Y0124317D01*
X0029364Y0124000D02*
X0032000Y0126636D01*
X0032000Y0128000D01*
X0028000Y0128000D01*
X0028000Y0129000D01*
X0032000Y0129000D01*
X0032000Y0130364D01*
X0029364Y0133000D01*
X0028000Y0133000D01*
X0028000Y0129000D01*
X0027000Y0129000D01*
X0027000Y0133000D01*
X0025636Y0133000D01*
X0023000Y0130364D01*
X0023000Y0129000D01*
X0027000Y0129000D01*
X0027000Y0128000D01*
X0028000Y0128000D01*
X0028000Y0124000D01*
X0029364Y0124000D01*
X0028000Y0124317D02*
X0027000Y0124317D01*
X0027000Y0124000D02*
X0027000Y0128000D01*
X0023000Y0128000D01*
X0023000Y0126636D01*
X0025636Y0124000D01*
X0027000Y0124000D01*
X0027000Y0125315D02*
X0028000Y0125315D01*
X0028000Y0126314D02*
X0027000Y0126314D01*
X0027000Y0127312D02*
X0028000Y0127312D01*
X0028000Y0128311D02*
X0049200Y0128311D01*
X0049200Y0129309D02*
X0032000Y0129309D01*
X0032000Y0130308D02*
X0049200Y0130308D01*
X0049200Y0131306D02*
X0031057Y0131306D01*
X0030059Y0132305D02*
X0049200Y0132305D01*
X0049200Y0133303D02*
X0003000Y0133303D01*
X0003000Y0132305D02*
X0024941Y0132305D01*
X0023943Y0131306D02*
X0003000Y0131306D01*
X0003000Y0130308D02*
X0023000Y0130308D01*
X0023000Y0129309D02*
X0003000Y0129309D01*
X0003000Y0128311D02*
X0027000Y0128311D01*
X0027000Y0129309D02*
X0028000Y0129309D01*
X0028000Y0130308D02*
X0027000Y0130308D01*
X0027000Y0131306D02*
X0028000Y0131306D01*
X0028000Y0132305D02*
X0027000Y0132305D01*
X0025636Y0134000D02*
X0029364Y0134000D01*
X0032000Y0136636D01*
X0032000Y0140364D01*
X0029364Y0143000D01*
X0025636Y0143000D01*
X0023000Y0140364D01*
X0023000Y0136636D01*
X0025636Y0134000D01*
X0025334Y0134302D02*
X0003000Y0134302D01*
X0003000Y0135301D02*
X0024336Y0135301D01*
X0023337Y0136299D02*
X0003000Y0136299D01*
X0003000Y0137298D02*
X0023000Y0137298D01*
X0023000Y0138296D02*
X0003000Y0138296D01*
X0003000Y0139295D02*
X0023000Y0139295D01*
X0023000Y0140293D02*
X0003000Y0140293D01*
X0003000Y0141292D02*
X0023928Y0141292D01*
X0024926Y0142290D02*
X0003000Y0142290D01*
X0003000Y0127312D02*
X0023000Y0127312D01*
X0023322Y0126314D02*
X0003000Y0126314D01*
X0003000Y0125315D02*
X0024321Y0125315D01*
X0025319Y0124317D02*
X0003000Y0124317D01*
X0003000Y0123318D02*
X0049200Y0123318D01*
X0049200Y0122320D02*
X0030044Y0122320D01*
X0031043Y0121321D02*
X0049200Y0121321D01*
X0049200Y0120323D02*
X0036506Y0120323D01*
X0037504Y0119324D02*
X0049200Y0119324D01*
X0049200Y0118326D02*
X0038503Y0118326D01*
X0039501Y0117327D02*
X0049200Y0117327D01*
X0049200Y0116329D02*
X0040500Y0116329D01*
X0041498Y0115330D02*
X0049200Y0115330D01*
X0049200Y0114332D02*
X0041500Y0114332D01*
X0041500Y0113333D02*
X0049200Y0113333D01*
X0049200Y0112335D02*
X0041500Y0112335D01*
X0041500Y0111336D02*
X0049200Y0111336D01*
X0049200Y0110338D02*
X0041500Y0110338D01*
X0041500Y0109339D02*
X0049200Y0109339D01*
X0049200Y0108341D02*
X0041500Y0108341D01*
X0041500Y0107342D02*
X0049200Y0107342D01*
X0047579Y0106344D02*
X0041500Y0106344D01*
X0041500Y0105345D02*
X0047228Y0105345D01*
X0047228Y0104347D02*
X0041500Y0104347D01*
X0041500Y0103348D02*
X0047228Y0103348D01*
X0047228Y0102350D02*
X0041500Y0102350D01*
X0041500Y0101351D02*
X0047228Y0101351D01*
X0047228Y0100353D02*
X0041500Y0100353D01*
X0042474Y0099354D02*
X0047228Y0099354D01*
X0048080Y0098356D02*
X0043473Y0098356D01*
X0040812Y0095360D02*
X0030724Y0095360D01*
X0029726Y0094362D02*
X0041810Y0094362D01*
X0042809Y0093363D02*
X0003000Y0093363D01*
X0003000Y0092365D02*
X0008001Y0092365D01*
X0007002Y0091366D02*
X0003000Y0091366D01*
X0003000Y0090368D02*
X0006004Y0090368D01*
X0006000Y0089369D02*
X0003000Y0089369D01*
X0003000Y0088370D02*
X0006000Y0088370D01*
X0006000Y0087372D02*
X0003000Y0087372D01*
X0003000Y0086373D02*
X0006263Y0086373D01*
X0007261Y0085375D02*
X0003000Y0085375D01*
X0003000Y0084376D02*
X0008260Y0084376D01*
X0008015Y0082379D02*
X0003000Y0082379D01*
X0003000Y0081381D02*
X0007017Y0081381D01*
X0005554Y0080382D02*
X0003000Y0080382D01*
X0003000Y0079384D02*
X0004555Y0079384D01*
X0003557Y0078385D02*
X0003000Y0078385D01*
X0005500Y0074391D02*
X0008245Y0074391D01*
X0007246Y0075390D02*
X0006218Y0075390D01*
X0005500Y0073393D02*
X0016779Y0073393D01*
X0017777Y0072394D02*
X0012970Y0072394D01*
X0012364Y0073000D02*
X0008636Y0073000D01*
X0006000Y0070364D01*
X0006000Y0066636D01*
X0008636Y0064000D01*
X0012364Y0064000D01*
X0015000Y0066636D01*
X0015000Y0070364D01*
X0012364Y0073000D01*
X0012755Y0074391D02*
X0015780Y0074391D01*
X0014782Y0075390D02*
X0013754Y0075390D01*
X0013968Y0071396D02*
X0024032Y0071396D01*
X0023033Y0070397D02*
X0014967Y0070397D01*
X0015000Y0069399D02*
X0023000Y0069399D01*
X0023000Y0068400D02*
X0015000Y0068400D01*
X0015000Y0067402D02*
X0023000Y0067402D01*
X0023233Y0066403D02*
X0014767Y0066403D01*
X0013769Y0065405D02*
X0024231Y0065405D01*
X0025230Y0064406D02*
X0012770Y0064406D01*
X0012364Y0063000D02*
X0011000Y0063000D01*
X0011000Y0059000D01*
X0015000Y0059000D01*
X0015000Y0060364D01*
X0012364Y0063000D01*
X0012955Y0062409D02*
X0025045Y0062409D01*
X0025636Y0063000D02*
X0023000Y0060364D01*
X0023000Y0056636D01*
X0025636Y0054000D01*
X0029364Y0054000D01*
X0032000Y0056636D01*
X0032000Y0060364D01*
X0029364Y0063000D01*
X0025636Y0063000D01*
X0024047Y0061411D02*
X0013953Y0061411D01*
X0014952Y0060412D02*
X0023048Y0060412D01*
X0023000Y0059414D02*
X0015000Y0059414D01*
X0015000Y0058000D02*
X0011000Y0058000D01*
X0011000Y0059000D01*
X0010000Y0059000D01*
X0010000Y0063000D01*
X0008636Y0063000D01*
X0006000Y0060364D01*
X0006000Y0059000D01*
X0010000Y0059000D01*
X0010000Y0058000D01*
X0011000Y0058000D01*
X0011000Y0054000D01*
X0012364Y0054000D01*
X0015000Y0056636D01*
X0015000Y0058000D01*
X0015000Y0057417D02*
X0023000Y0057417D01*
X0023000Y0058415D02*
X0011000Y0058415D01*
X0011000Y0057417D02*
X0010000Y0057417D01*
X0010000Y0058000D02*
X0010000Y0054000D01*
X0008636Y0054000D01*
X0006000Y0056636D01*
X0006000Y0058000D01*
X0010000Y0058000D01*
X0010000Y0058415D02*
X0005500Y0058415D01*
X0005500Y0057417D02*
X0006000Y0057417D01*
X0006218Y0056418D02*
X0005500Y0056418D01*
X0005500Y0055420D02*
X0007216Y0055420D01*
X0008215Y0054421D02*
X0005500Y0054421D01*
X0005500Y0053423D02*
X0056000Y0053423D01*
X0056000Y0052636D02*
X0058636Y0050000D01*
X0062364Y0050000D01*
X0065000Y0052636D01*
X0065000Y0056364D01*
X0062364Y0059000D01*
X0058636Y0059000D01*
X0056000Y0056364D01*
X0056000Y0052636D01*
X0056212Y0052424D02*
X0029940Y0052424D01*
X0030938Y0051426D02*
X0037503Y0051426D01*
X0039497Y0051426D02*
X0057210Y0051426D01*
X0057401Y0050427D02*
X0058209Y0050427D01*
X0058400Y0049429D02*
X0090500Y0049429D01*
X0090500Y0050427D02*
X0062791Y0050427D01*
X0063790Y0051426D02*
X0090500Y0051426D01*
X0090500Y0052424D02*
X0064788Y0052424D01*
X0065000Y0053423D02*
X0090500Y0053423D01*
X0090500Y0054421D02*
X0065000Y0054421D01*
X0065000Y0055420D02*
X0090500Y0055420D01*
X0090500Y0056418D02*
X0064946Y0056418D01*
X0063947Y0057417D02*
X0090500Y0057417D01*
X0090500Y0058415D02*
X0062949Y0058415D01*
X0062776Y0060412D02*
X0090500Y0060412D01*
X0090500Y0059414D02*
X0032000Y0059414D01*
X0032000Y0058415D02*
X0058051Y0058415D01*
X0057053Y0057417D02*
X0032000Y0057417D01*
X0031782Y0056418D02*
X0056054Y0056418D01*
X0056000Y0055420D02*
X0030784Y0055420D01*
X0029785Y0054421D02*
X0056000Y0054421D01*
X0058224Y0060412D02*
X0031952Y0060412D01*
X0030953Y0061411D02*
X0057225Y0061411D01*
X0056227Y0062409D02*
X0029955Y0062409D01*
X0029770Y0064406D02*
X0056000Y0064406D01*
X0056000Y0063408D02*
X0005500Y0063408D01*
X0005500Y0064406D02*
X0008230Y0064406D01*
X0007231Y0065405D02*
X0005500Y0065405D01*
X0005500Y0066403D02*
X0006233Y0066403D01*
X0006000Y0067402D02*
X0005500Y0067402D01*
X0005500Y0068400D02*
X0006000Y0068400D01*
X0006000Y0069399D02*
X0005500Y0069399D01*
X0005500Y0070397D02*
X0006033Y0070397D01*
X0005500Y0071396D02*
X0007032Y0071396D01*
X0008030Y0072394D02*
X0005500Y0072394D01*
X0005500Y0062409D02*
X0008045Y0062409D01*
X0007047Y0061411D02*
X0005500Y0061411D01*
X0005500Y0060412D02*
X0006048Y0060412D01*
X0006000Y0059414D02*
X0005500Y0059414D01*
X0010000Y0059414D02*
X0011000Y0059414D01*
X0011000Y0060412D02*
X0010000Y0060412D01*
X0010000Y0061411D02*
X0011000Y0061411D01*
X0011000Y0062409D02*
X0010000Y0062409D01*
X0010000Y0056418D02*
X0011000Y0056418D01*
X0011000Y0055420D02*
X0010000Y0055420D01*
X0010000Y0054421D02*
X0011000Y0054421D01*
X0012785Y0054421D02*
X0025215Y0054421D01*
X0024216Y0055420D02*
X0013784Y0055420D01*
X0014782Y0056418D02*
X0023218Y0056418D01*
X0025060Y0052424D02*
X0005500Y0052424D01*
X0005500Y0051426D02*
X0024062Y0051426D01*
X0023063Y0050427D02*
X0005500Y0050427D01*
X0005500Y0049429D02*
X0023000Y0049429D01*
X0023000Y0048430D02*
X0005500Y0048430D01*
X0005500Y0047432D02*
X0023000Y0047432D01*
X0023203Y0046433D02*
X0005500Y0046433D01*
X0005500Y0045434D02*
X0024202Y0045434D01*
X0025200Y0044436D02*
X0005500Y0044436D01*
X0005500Y0043437D02*
X0041922Y0043437D01*
X0041389Y0044436D02*
X0029800Y0044436D01*
X0030798Y0045434D02*
X0037841Y0045434D01*
X0039159Y0045434D02*
X0041219Y0045434D01*
X0041335Y0046433D02*
X0040795Y0046433D01*
X0038500Y0048500D02*
X0027500Y0048500D01*
X0031797Y0046433D02*
X0036205Y0046433D01*
X0038500Y0048500D02*
X0056500Y0048500D01*
X0060500Y0044500D01*
X0062934Y0048430D02*
X0090500Y0048430D01*
X0090500Y0047432D02*
X0063932Y0047432D01*
X0064931Y0046433D02*
X0090500Y0046433D01*
X0090500Y0045434D02*
X0065000Y0045434D01*
X0065000Y0044436D02*
X0090500Y0044436D01*
X0090500Y0043437D02*
X0065000Y0043437D01*
X0064803Y0042439D02*
X0090500Y0042439D01*
X0090500Y0041440D02*
X0063804Y0041440D01*
X0062806Y0040442D02*
X0090500Y0040442D01*
X0090500Y0037446D02*
X0063918Y0037446D01*
X0064916Y0036448D02*
X0090500Y0036448D01*
X0090500Y0035449D02*
X0065000Y0035449D01*
X0065000Y0034451D02*
X0090500Y0034451D01*
X0090500Y0033452D02*
X0065000Y0033452D01*
X0064818Y0032454D02*
X0090500Y0032454D01*
X0090500Y0031455D02*
X0063819Y0031455D01*
X0062821Y0030457D02*
X0090500Y0030457D01*
X0090500Y0029458D02*
X0050000Y0029458D01*
X0050000Y0028460D02*
X0058096Y0028460D01*
X0057097Y0027461D02*
X0050000Y0027461D01*
X0050366Y0026463D02*
X0056099Y0026463D01*
X0056000Y0025464D02*
X0051364Y0025464D01*
X0052363Y0024466D02*
X0060000Y0024466D01*
X0060000Y0025464D02*
X0061000Y0025464D01*
X0061000Y0025000D02*
X0061000Y0029000D01*
X0062364Y0029000D01*
X0065000Y0026364D01*
X0065000Y0025000D01*
X0061000Y0025000D01*
X0061000Y0024466D02*
X0073637Y0024466D01*
X0072639Y0023467D02*
X0065000Y0023467D01*
X0064833Y0022469D02*
X0071640Y0022469D01*
X0074500Y0022500D02*
X0071500Y0019500D01*
X0054500Y0019500D01*
X0045500Y0028500D01*
X0040500Y0028500D01*
X0039500Y0027500D01*
X0039500Y0025000D01*
X0039500Y0022000D02*
X0039500Y0019500D01*
X0040500Y0018500D01*
X0045500Y0018500D01*
X0058500Y0005500D01*
X0094500Y0005500D01*
X0098500Y0009500D01*
X0101707Y0005494D02*
X0105293Y0005494D01*
X0104295Y0006493D02*
X0102705Y0006493D01*
X0103188Y0007491D02*
X0103812Y0007491D01*
X0107255Y0004496D02*
X0099745Y0004496D01*
X0097255Y0004496D02*
X0096324Y0004496D01*
X0109745Y0004496D02*
X0117255Y0004496D01*
X0115293Y0005494D02*
X0111707Y0005494D01*
X0112705Y0006493D02*
X0114295Y0006493D01*
X0113812Y0007491D02*
X0113188Y0007491D01*
X0118500Y0009500D02*
X0118500Y0014500D01*
X0114500Y0018500D01*
X0090500Y0018500D01*
X0086500Y0022500D01*
X0074500Y0022500D01*
X0065000Y0025464D02*
X0090500Y0025464D01*
X0090500Y0026463D02*
X0064901Y0026463D01*
X0063903Y0027461D02*
X0090500Y0027461D01*
X0090500Y0028460D02*
X0062904Y0028460D01*
X0061000Y0028460D02*
X0060000Y0028460D01*
X0060000Y0027461D02*
X0061000Y0027461D01*
X0061000Y0026463D02*
X0060000Y0026463D01*
X0058179Y0030457D02*
X0049907Y0030457D01*
X0048909Y0031455D02*
X0057181Y0031455D01*
X0056182Y0032454D02*
X0047910Y0032454D01*
X0043090Y0032454D02*
X0034282Y0032454D01*
X0033284Y0031455D02*
X0042091Y0031455D01*
X0039628Y0030457D02*
X0032285Y0030457D01*
X0032000Y0029458D02*
X0038630Y0029458D01*
X0035281Y0033452D02*
X0056000Y0033452D01*
X0056000Y0034451D02*
X0036279Y0034451D01*
X0037278Y0035449D02*
X0056000Y0035449D01*
X0055724Y0036448D02*
X0038276Y0036448D01*
X0039275Y0037446D02*
X0054725Y0037446D01*
X0042500Y0042439D02*
X0029925Y0042439D01*
X0029364Y0043000D02*
X0025636Y0043000D01*
X0023136Y0040500D01*
X0014864Y0040500D01*
X0012364Y0043000D01*
X0008636Y0043000D01*
X0006000Y0040364D01*
X0006000Y0036636D01*
X0008636Y0034000D01*
X0012364Y0034000D01*
X0014864Y0036500D01*
X0023136Y0036500D01*
X0025636Y0034000D01*
X0029364Y0034000D01*
X0032000Y0036636D01*
X0032000Y0040364D01*
X0029364Y0043000D01*
X0030923Y0041440D02*
X0037612Y0041440D01*
X0036614Y0040442D02*
X0031922Y0040442D01*
X0032000Y0039443D02*
X0035615Y0039443D01*
X0034616Y0038445D02*
X0032000Y0038445D01*
X0032000Y0037446D02*
X0033618Y0037446D01*
X0032619Y0036448D02*
X0031812Y0036448D01*
X0031621Y0035449D02*
X0030813Y0035449D01*
X0030622Y0034451D02*
X0029815Y0034451D01*
X0029624Y0033452D02*
X0005500Y0033452D01*
X0005500Y0032454D02*
X0008090Y0032454D01*
X0007091Y0031455D02*
X0005500Y0031455D01*
X0005500Y0034451D02*
X0008185Y0034451D01*
X0007187Y0035449D02*
X0005500Y0035449D01*
X0005500Y0036448D02*
X0006188Y0036448D01*
X0006000Y0037446D02*
X0005500Y0037446D01*
X0005500Y0038445D02*
X0006000Y0038445D01*
X0006000Y0039443D02*
X0005500Y0039443D01*
X0005500Y0040442D02*
X0006078Y0040442D01*
X0005500Y0041440D02*
X0007077Y0041440D01*
X0008075Y0042439D02*
X0005500Y0042439D01*
X0010500Y0038500D02*
X0027500Y0038500D01*
X0025185Y0034451D02*
X0012815Y0034451D01*
X0013813Y0035449D02*
X0024187Y0035449D01*
X0023188Y0036448D02*
X0014812Y0036448D01*
X0012910Y0032454D02*
X0025090Y0032454D01*
X0024091Y0031455D02*
X0013909Y0031455D01*
X0016500Y0028500D02*
X0019500Y0025500D01*
X0019500Y0011500D01*
X0022500Y0008500D01*
X0027500Y0008500D01*
X0032000Y0008490D02*
X0041000Y0008490D01*
X0041000Y0009488D02*
X0032000Y0009488D01*
X0031877Y0010487D02*
X0041123Y0010487D01*
X0041000Y0010364D02*
X0041000Y0006636D01*
X0043636Y0004000D01*
X0047364Y0004000D01*
X0050000Y0006636D01*
X0050000Y0010364D01*
X0047364Y0013000D01*
X0043636Y0013000D01*
X0041000Y0010364D01*
X0042121Y0011485D02*
X0030879Y0011485D01*
X0029880Y0012484D02*
X0043120Y0012484D01*
X0043155Y0014481D02*
X0029845Y0014481D01*
X0030843Y0015479D02*
X0042157Y0015479D01*
X0041158Y0016478D02*
X0031842Y0016478D01*
X0032000Y0017476D02*
X0038695Y0017476D01*
X0037697Y0018475D02*
X0032000Y0018475D01*
X0032000Y0019473D02*
X0036955Y0019473D01*
X0036250Y0020472D02*
X0031892Y0020472D01*
X0030894Y0021470D02*
X0036250Y0021470D01*
X0036250Y0022469D02*
X0029895Y0022469D01*
X0024106Y0021470D02*
X0021500Y0021470D01*
X0021500Y0020472D02*
X0023108Y0020472D01*
X0023000Y0019473D02*
X0021500Y0019473D01*
X0021500Y0018475D02*
X0023000Y0018475D01*
X0023000Y0017476D02*
X0021500Y0017476D01*
X0021500Y0016478D02*
X0023158Y0016478D01*
X0024157Y0015479D02*
X0021500Y0015479D01*
X0021500Y0014481D02*
X0025155Y0014481D01*
X0025120Y0012484D02*
X0021500Y0012484D01*
X0021500Y0013482D02*
X0047689Y0013482D01*
X0047880Y0012484D02*
X0048688Y0012484D01*
X0048879Y0011485D02*
X0049686Y0011485D01*
X0049877Y0010487D02*
X0050685Y0010487D01*
X0050000Y0009488D02*
X0051683Y0009488D01*
X0052682Y0008490D02*
X0050000Y0008490D01*
X0050000Y0007491D02*
X0053680Y0007491D01*
X0054679Y0006493D02*
X0049857Y0006493D01*
X0048858Y0005494D02*
X0055678Y0005494D01*
X0056676Y0004496D02*
X0047859Y0004496D01*
X0043141Y0004496D02*
X0029859Y0004496D01*
X0030858Y0005494D02*
X0042142Y0005494D01*
X0041143Y0006493D02*
X0031857Y0006493D01*
X0032000Y0007491D02*
X0041000Y0007491D01*
X0054360Y0022469D02*
X0056167Y0022469D01*
X0056000Y0023467D02*
X0053361Y0023467D01*
X0025141Y0004496D02*
X0012859Y0004496D01*
X0012364Y0004000D02*
X0015000Y0006636D01*
X0015000Y0010364D01*
X0012364Y0013000D01*
X0008636Y0013000D01*
X0006000Y0010364D01*
X0006000Y0006636D01*
X0008636Y0004000D01*
X0012364Y0004000D01*
X0013858Y0005494D02*
X0024142Y0005494D01*
X0023143Y0006493D02*
X0014857Y0006493D01*
X0015000Y0007491D02*
X0020680Y0007491D01*
X0019682Y0008490D02*
X0015000Y0008490D01*
X0015000Y0009488D02*
X0018683Y0009488D01*
X0017685Y0010487D02*
X0014877Y0010487D01*
X0013879Y0011485D02*
X0017500Y0011485D01*
X0017500Y0012484D02*
X0012880Y0012484D01*
X0012364Y0014000D02*
X0015000Y0016636D01*
X0015000Y0018000D01*
X0011000Y0018000D01*
X0011000Y0019000D01*
X0015000Y0019000D01*
X0015000Y0020364D01*
X0012364Y0023000D01*
X0011000Y0023000D01*
X0011000Y0019000D01*
X0010000Y0019000D01*
X0010000Y0023000D01*
X0008636Y0023000D01*
X0006000Y0020364D01*
X0006000Y0019000D01*
X0010000Y0019000D01*
X0010000Y0018000D01*
X0011000Y0018000D01*
X0011000Y0014000D01*
X0012364Y0014000D01*
X0012845Y0014481D02*
X0017500Y0014481D01*
X0017500Y0015479D02*
X0013843Y0015479D01*
X0014842Y0016478D02*
X0017500Y0016478D01*
X0017500Y0017476D02*
X0015000Y0017476D01*
X0015000Y0019473D02*
X0017500Y0019473D01*
X0017500Y0018475D02*
X0011000Y0018475D01*
X0011000Y0019473D02*
X0010000Y0019473D01*
X0010000Y0018475D02*
X0003000Y0018475D01*
X0003000Y0019473D02*
X0006000Y0019473D01*
X0006108Y0020472D02*
X0003000Y0020472D01*
X0003000Y0021470D02*
X0007106Y0021470D01*
X0008105Y0022469D02*
X0003000Y0022469D01*
X0003000Y0023467D02*
X0017500Y0023467D01*
X0017500Y0022469D02*
X0012895Y0022469D01*
X0013894Y0021470D02*
X0017500Y0021470D01*
X0017500Y0020472D02*
X0014892Y0020472D01*
X0012830Y0024466D02*
X0017500Y0024466D01*
X0016707Y0025464D02*
X0013828Y0025464D01*
X0014827Y0026463D02*
X0015709Y0026463D01*
X0011000Y0022469D02*
X0010000Y0022469D01*
X0010000Y0021470D02*
X0011000Y0021470D01*
X0011000Y0020472D02*
X0010000Y0020472D01*
X0010000Y0018000D02*
X0006000Y0018000D01*
X0006000Y0016636D01*
X0008636Y0014000D01*
X0010000Y0014000D01*
X0010000Y0018000D01*
X0010000Y0017476D02*
X0011000Y0017476D01*
X0011000Y0016478D02*
X0010000Y0016478D01*
X0010000Y0015479D02*
X0011000Y0015479D01*
X0011000Y0014481D02*
X0010000Y0014481D01*
X0008155Y0014481D02*
X0003000Y0014481D01*
X0003000Y0015479D02*
X0007157Y0015479D01*
X0006158Y0016478D02*
X0003000Y0016478D01*
X0003000Y0017476D02*
X0006000Y0017476D01*
X0003000Y0013482D02*
X0017500Y0013482D01*
X0022343Y0011485D02*
X0024121Y0011485D01*
X0008120Y0012484D02*
X0003000Y0012484D01*
X0003000Y0011485D02*
X0007121Y0011485D01*
X0006123Y0010487D02*
X0003000Y0010487D01*
X0003000Y0009488D02*
X0006000Y0009488D01*
X0006000Y0008490D02*
X0003000Y0008490D01*
X0003000Y0007491D02*
X0006000Y0007491D01*
X0006143Y0006493D02*
X0003000Y0006493D01*
X0003000Y0005494D02*
X0007142Y0005494D01*
X0008141Y0004496D02*
X0003000Y0004496D01*
X0003053Y0003497D02*
X0195947Y0003497D01*
X0196000Y0004496D02*
X0169745Y0004496D01*
X0171707Y0005494D02*
X0196000Y0005494D01*
X0196000Y0006493D02*
X0190963Y0006493D01*
X0191918Y0006888D02*
X0194112Y0009082D01*
X0195299Y0011949D01*
X0195299Y0015051D01*
X0194112Y0017918D01*
X0191918Y0020112D01*
X0189051Y0021299D01*
X0185949Y0021299D01*
X0183082Y0020112D01*
X0180888Y0017918D01*
X0179701Y0015051D01*
X0179701Y0011949D01*
X0180888Y0009082D01*
X0183082Y0006888D01*
X0185949Y0005701D01*
X0189051Y0005701D01*
X0191918Y0006888D01*
X0192521Y0007491D02*
X0196000Y0007491D01*
X0196000Y0008490D02*
X0193519Y0008490D01*
X0194280Y0009488D02*
X0196000Y0009488D01*
X0196000Y0010487D02*
X0194694Y0010487D01*
X0195107Y0011485D02*
X0196000Y0011485D01*
X0196000Y0012484D02*
X0195299Y0012484D01*
X0195299Y0013482D02*
X0196000Y0013482D01*
X0196000Y0014481D02*
X0195299Y0014481D01*
X0195122Y0015479D02*
X0196000Y0015479D01*
X0196000Y0016478D02*
X0194708Y0016478D01*
X0194295Y0017476D02*
X0196000Y0017476D01*
X0196000Y0018475D02*
X0193555Y0018475D01*
X0192557Y0019473D02*
X0196000Y0019473D01*
X0196000Y0020472D02*
X0191049Y0020472D01*
X0196000Y0021470D02*
X0171781Y0021470D01*
X0171650Y0022469D02*
X0196000Y0022469D01*
X0196000Y0023467D02*
X0171173Y0023467D01*
X0169914Y0024466D02*
X0196000Y0024466D01*
X0196000Y0025464D02*
X0131409Y0025464D01*
X0131584Y0026463D02*
X0137773Y0026463D01*
X0139227Y0026463D02*
X0196000Y0026463D01*
X0196000Y0027461D02*
X0140823Y0027461D01*
X0138500Y0029500D02*
X0173500Y0029500D01*
X0189250Y0045250D01*
X0189250Y0131500D01*
X0184500Y0136500D01*
X0173500Y0136500D01*
X0170377Y0133303D02*
X0166623Y0133303D01*
X0167426Y0134302D02*
X0169574Y0134302D01*
X0169160Y0135301D02*
X0167840Y0135301D01*
X0167968Y0136299D02*
X0169031Y0136299D01*
X0169031Y0137298D02*
X0167968Y0137298D01*
X0167593Y0138296D02*
X0169407Y0138296D01*
X0169975Y0139295D02*
X0167025Y0139295D01*
X0167420Y0144287D02*
X0169580Y0144287D01*
X0169166Y0145286D02*
X0167834Y0145286D01*
X0167968Y0146284D02*
X0169031Y0146284D01*
X0169031Y0147283D02*
X0167968Y0147283D01*
X0167599Y0148281D02*
X0169401Y0148281D01*
X0169960Y0149280D02*
X0167040Y0149280D01*
X0166041Y0150278D02*
X0170959Y0150278D01*
X0176041Y0150278D02*
X0196000Y0150278D01*
X0196000Y0149280D02*
X0177040Y0149280D01*
X0177599Y0148281D02*
X0196000Y0148281D01*
X0196000Y0147283D02*
X0177968Y0147283D01*
X0177968Y0146284D02*
X0196000Y0146284D01*
X0196000Y0145286D02*
X0177834Y0145286D01*
X0177420Y0144287D02*
X0196000Y0144287D01*
X0196000Y0143289D02*
X0189540Y0143289D01*
X0190538Y0142290D02*
X0196000Y0142290D01*
X0196000Y0141292D02*
X0191537Y0141292D01*
X0192535Y0140293D02*
X0196000Y0140293D01*
X0196000Y0139295D02*
X0193534Y0139295D01*
X0194500Y0138296D02*
X0196000Y0138296D01*
X0196000Y0137298D02*
X0194500Y0137298D01*
X0194500Y0136299D02*
X0196000Y0136299D01*
X0196000Y0135301D02*
X0194500Y0135301D01*
X0194500Y0134302D02*
X0196000Y0134302D01*
X0196000Y0133303D02*
X0194500Y0133303D01*
X0194500Y0132305D02*
X0196000Y0132305D01*
X0196000Y0131306D02*
X0194500Y0131306D01*
X0194500Y0130308D02*
X0196000Y0130308D01*
X0196000Y0129309D02*
X0194500Y0129309D01*
X0194500Y0128311D02*
X0196000Y0128311D01*
X0196000Y0127312D02*
X0194500Y0127312D01*
X0194500Y0126314D02*
X0196000Y0126314D01*
X0196000Y0125315D02*
X0194500Y0125315D01*
X0194500Y0124317D02*
X0196000Y0124317D01*
X0196000Y0123318D02*
X0194500Y0123318D01*
X0194500Y0122320D02*
X0196000Y0122320D01*
X0196000Y0121321D02*
X0194500Y0121321D01*
X0194500Y0120323D02*
X0196000Y0120323D01*
X0196000Y0119324D02*
X0194500Y0119324D01*
X0194500Y0118326D02*
X0196000Y0118326D01*
X0196000Y0117327D02*
X0194500Y0117327D01*
X0194500Y0116329D02*
X0196000Y0116329D01*
X0196000Y0115330D02*
X0194500Y0115330D01*
X0194500Y0114332D02*
X0196000Y0114332D01*
X0196000Y0113333D02*
X0194500Y0113333D01*
X0194500Y0112335D02*
X0196000Y0112335D01*
X0196000Y0111336D02*
X0194500Y0111336D01*
X0194500Y0110338D02*
X0196000Y0110338D01*
X0196000Y0109339D02*
X0194500Y0109339D01*
X0194500Y0108341D02*
X0196000Y0108341D01*
X0196000Y0107342D02*
X0194500Y0107342D01*
X0194500Y0106344D02*
X0196000Y0106344D01*
X0196000Y0105345D02*
X0194500Y0105345D01*
X0194500Y0104347D02*
X0196000Y0104347D01*
X0196000Y0103348D02*
X0194500Y0103348D01*
X0194500Y0102350D02*
X0196000Y0102350D01*
X0196000Y0101351D02*
X0194500Y0101351D01*
X0194500Y0100353D02*
X0196000Y0100353D01*
X0196000Y0099354D02*
X0194500Y0099354D01*
X0194500Y0098356D02*
X0196000Y0098356D01*
X0196000Y0097357D02*
X0194500Y0097357D01*
X0194500Y0096359D02*
X0196000Y0096359D01*
X0196000Y0095360D02*
X0194500Y0095360D01*
X0194500Y0094362D02*
X0196000Y0094362D01*
X0196000Y0093363D02*
X0194500Y0093363D01*
X0194500Y0092365D02*
X0196000Y0092365D01*
X0196000Y0091366D02*
X0194500Y0091366D01*
X0194500Y0090368D02*
X0196000Y0090368D01*
X0196000Y0089369D02*
X0194500Y0089369D01*
X0194500Y0088370D02*
X0196000Y0088370D01*
X0196000Y0087372D02*
X0194500Y0087372D01*
X0194500Y0086373D02*
X0196000Y0086373D01*
X0196000Y0085375D02*
X0194500Y0085375D01*
X0194500Y0084376D02*
X0196000Y0084376D01*
X0196000Y0083378D02*
X0194500Y0083378D01*
X0194500Y0082379D02*
X0196000Y0082379D01*
X0196000Y0081381D02*
X0194500Y0081381D01*
X0194500Y0080382D02*
X0196000Y0080382D01*
X0196000Y0079384D02*
X0194500Y0079384D01*
X0194500Y0078385D02*
X0196000Y0078385D01*
X0196000Y0077387D02*
X0195253Y0077387D01*
X0195683Y0076388D02*
X0196000Y0076388D01*
X0196000Y0075390D02*
X0195781Y0075390D01*
X0195592Y0074391D02*
X0196000Y0074391D01*
X0196000Y0073393D02*
X0195033Y0073393D01*
X0196000Y0072394D02*
X0193576Y0072394D01*
X0191424Y0072394D02*
X0191250Y0072394D01*
X0191250Y0071396D02*
X0196000Y0071396D01*
X0196000Y0070397D02*
X0191250Y0070397D01*
X0191250Y0069399D02*
X0196000Y0069399D01*
X0196000Y0068400D02*
X0191250Y0068400D01*
X0191250Y0067402D02*
X0196000Y0067402D01*
X0196000Y0066403D02*
X0191250Y0066403D01*
X0191250Y0065405D02*
X0196000Y0065405D01*
X0196000Y0064406D02*
X0191250Y0064406D01*
X0191250Y0063408D02*
X0196000Y0063408D01*
X0196000Y0062409D02*
X0191250Y0062409D01*
X0191250Y0061411D02*
X0196000Y0061411D01*
X0196000Y0060412D02*
X0191250Y0060412D01*
X0191250Y0059414D02*
X0196000Y0059414D01*
X0196000Y0058415D02*
X0191250Y0058415D01*
X0191250Y0057417D02*
X0196000Y0057417D01*
X0196000Y0056418D02*
X0191250Y0056418D01*
X0191250Y0055420D02*
X0196000Y0055420D01*
X0196000Y0054421D02*
X0191250Y0054421D01*
X0191250Y0053423D02*
X0196000Y0053423D01*
X0196000Y0052424D02*
X0191250Y0052424D01*
X0191250Y0051426D02*
X0196000Y0051426D01*
X0196000Y0050427D02*
X0191250Y0050427D01*
X0191250Y0049429D02*
X0196000Y0049429D01*
X0196000Y0048430D02*
X0191250Y0048430D01*
X0191250Y0047432D02*
X0196000Y0047432D01*
X0196000Y0046433D02*
X0191250Y0046433D01*
X0191250Y0045434D02*
X0196000Y0045434D01*
X0196000Y0044436D02*
X0191250Y0044436D01*
X0190266Y0043437D02*
X0196000Y0043437D01*
X0196000Y0042439D02*
X0189267Y0042439D01*
X0188269Y0041440D02*
X0196000Y0041440D01*
X0196000Y0040442D02*
X0187270Y0040442D01*
X0186272Y0039443D02*
X0196000Y0039443D01*
X0196000Y0038445D02*
X0185273Y0038445D01*
X0184275Y0037446D02*
X0196000Y0037446D01*
X0196000Y0036448D02*
X0183276Y0036448D01*
X0182278Y0035449D02*
X0196000Y0035449D01*
X0196000Y0034451D02*
X0181279Y0034451D01*
X0180281Y0033452D02*
X0196000Y0033452D01*
X0196000Y0032454D02*
X0179282Y0032454D01*
X0178284Y0031455D02*
X0196000Y0031455D01*
X0196000Y0030457D02*
X0177285Y0030457D01*
X0176287Y0029458D02*
X0196000Y0029458D01*
X0196000Y0028460D02*
X0175288Y0028460D01*
X0173625Y0032454D02*
X0139428Y0032454D01*
X0137572Y0032454D02*
X0130500Y0032454D01*
X0130500Y0033452D02*
X0174624Y0033452D01*
X0175622Y0034451D02*
X0130500Y0034451D01*
X0130500Y0035449D02*
X0176621Y0035449D01*
X0177619Y0036448D02*
X0130500Y0036448D01*
X0130500Y0037446D02*
X0178618Y0037446D01*
X0179616Y0038445D02*
X0130500Y0038445D01*
X0130500Y0039443D02*
X0167305Y0039443D01*
X0165918Y0040442D02*
X0130500Y0040442D01*
X0130500Y0041440D02*
X0165387Y0041440D01*
X0165219Y0042439D02*
X0130500Y0042439D01*
X0130500Y0043437D02*
X0165337Y0043437D01*
X0165323Y0044436D02*
X0139677Y0044436D01*
X0141075Y0045434D02*
X0163925Y0045434D01*
X0166500Y0047500D02*
X0138500Y0047500D01*
X0137323Y0044436D02*
X0131264Y0044436D01*
X0132263Y0045434D02*
X0135925Y0045434D01*
X0135391Y0046433D02*
X0133261Y0046433D01*
X0134260Y0047432D02*
X0135219Y0047432D01*
X0135258Y0048430D02*
X0135334Y0048430D01*
X0128500Y0044500D02*
X0128500Y0026500D01*
X0130828Y0024466D02*
X0167086Y0024466D01*
X0171625Y0020472D02*
X0183951Y0020472D01*
X0182443Y0019473D02*
X0171113Y0019473D01*
X0170800Y0018475D02*
X0181445Y0018475D01*
X0180705Y0017476D02*
X0170800Y0017476D01*
X0170800Y0016478D02*
X0180292Y0016478D01*
X0179878Y0015479D02*
X0170800Y0015479D01*
X0170800Y0014481D02*
X0179701Y0014481D01*
X0179701Y0013482D02*
X0171730Y0013482D01*
X0172729Y0012484D02*
X0179701Y0012484D01*
X0179893Y0011485D02*
X0173198Y0011485D01*
X0173600Y0010487D02*
X0180306Y0010487D01*
X0180720Y0009488D02*
X0173600Y0009488D01*
X0173600Y0008490D02*
X0181481Y0008490D01*
X0182479Y0007491D02*
X0173188Y0007491D01*
X0172705Y0006493D02*
X0184037Y0006493D01*
X0167255Y0004496D02*
X0159745Y0004496D01*
X0161707Y0005494D02*
X0165293Y0005494D01*
X0164295Y0006493D02*
X0162705Y0006493D01*
X0163188Y0007491D02*
X0163812Y0007491D01*
X0157255Y0004496D02*
X0149745Y0004496D01*
X0151707Y0005494D02*
X0155293Y0005494D01*
X0154295Y0006493D02*
X0152705Y0006493D01*
X0153188Y0007491D02*
X0153812Y0007491D01*
X0147255Y0004496D02*
X0139745Y0004496D01*
X0141707Y0005494D02*
X0145293Y0005494D01*
X0144295Y0006493D02*
X0142705Y0006493D01*
X0143188Y0007491D02*
X0143812Y0007491D01*
X0137255Y0004496D02*
X0129745Y0004496D01*
X0131707Y0005494D02*
X0135293Y0005494D01*
X0134295Y0006493D02*
X0132705Y0006493D01*
X0133188Y0007491D02*
X0133812Y0007491D01*
X0127255Y0004496D02*
X0119745Y0004496D01*
X0121707Y0005494D02*
X0125293Y0005494D01*
X0124295Y0006493D02*
X0122705Y0006493D01*
X0123188Y0007491D02*
X0123812Y0007491D01*
X0131440Y0027461D02*
X0136177Y0027461D01*
X0135592Y0028460D02*
X0130902Y0028460D01*
X0130500Y0029458D02*
X0135416Y0029458D01*
X0135558Y0030457D02*
X0130500Y0030457D01*
X0130500Y0031455D02*
X0136094Y0031455D01*
X0128500Y0044500D02*
X0144500Y0060500D01*
X0166500Y0060500D01*
X0177683Y0048430D02*
X0187250Y0048430D01*
X0187250Y0047432D02*
X0176684Y0047432D01*
X0175686Y0046433D02*
X0187250Y0046433D01*
X0186606Y0045434D02*
X0174687Y0045434D01*
X0173689Y0044436D02*
X0185608Y0044436D01*
X0184609Y0043437D02*
X0172690Y0043437D01*
X0171781Y0042439D02*
X0183611Y0042439D01*
X0182612Y0041440D02*
X0171613Y0041440D01*
X0171082Y0040442D02*
X0181614Y0040442D01*
X0180615Y0039443D02*
X0169695Y0039443D01*
X0178681Y0049429D02*
X0187250Y0049429D01*
X0187250Y0050427D02*
X0179680Y0050427D01*
X0180678Y0051426D02*
X0187250Y0051426D01*
X0187250Y0052424D02*
X0181677Y0052424D01*
X0182675Y0053423D02*
X0187250Y0053423D01*
X0187250Y0054421D02*
X0183674Y0054421D01*
X0184672Y0055420D02*
X0187250Y0055420D01*
X0187250Y0056418D02*
X0185671Y0056418D01*
X0186669Y0057417D02*
X0187250Y0057417D01*
X0187250Y0058415D02*
X0186800Y0058415D01*
X0186800Y0059414D02*
X0187250Y0059414D01*
X0187250Y0060412D02*
X0186800Y0060412D01*
X0186800Y0061411D02*
X0187250Y0061411D01*
X0187250Y0062409D02*
X0186800Y0062409D01*
X0186800Y0063408D02*
X0187250Y0063408D01*
X0187250Y0064406D02*
X0186800Y0064406D01*
X0186800Y0065405D02*
X0187250Y0065405D01*
X0187250Y0066403D02*
X0186800Y0066403D01*
X0186800Y0067402D02*
X0187250Y0067402D01*
X0187250Y0068400D02*
X0186800Y0068400D01*
X0186800Y0069399D02*
X0187250Y0069399D01*
X0187250Y0070397D02*
X0186800Y0070397D01*
X0186800Y0071396D02*
X0187250Y0071396D01*
X0187250Y0072394D02*
X0186800Y0072394D01*
X0186800Y0073393D02*
X0187250Y0073393D01*
X0187250Y0074391D02*
X0186800Y0074391D01*
X0186800Y0075390D02*
X0187250Y0075390D01*
X0187250Y0076388D02*
X0186800Y0076388D01*
X0186800Y0077387D02*
X0187250Y0077387D01*
X0187250Y0078385D02*
X0186800Y0078385D01*
X0186800Y0079384D02*
X0187250Y0079384D01*
X0187250Y0080382D02*
X0186800Y0080382D01*
X0186800Y0081381D02*
X0187250Y0081381D01*
X0187250Y0082379D02*
X0186800Y0082379D01*
X0186800Y0083378D02*
X0187250Y0083378D01*
X0187250Y0084376D02*
X0186800Y0084376D01*
X0186800Y0085375D02*
X0187250Y0085375D01*
X0187250Y0086373D02*
X0186800Y0086373D01*
X0186800Y0087372D02*
X0187250Y0087372D01*
X0187250Y0088370D02*
X0186800Y0088370D01*
X0186800Y0089369D02*
X0187250Y0089369D01*
X0187250Y0090368D02*
X0186800Y0090368D01*
X0186800Y0091366D02*
X0187250Y0091366D01*
X0187250Y0092365D02*
X0185888Y0092365D01*
X0184890Y0093363D02*
X0187250Y0093363D01*
X0187250Y0094362D02*
X0183891Y0094362D01*
X0182893Y0095360D02*
X0187250Y0095360D01*
X0187250Y0096359D02*
X0182800Y0096359D01*
X0182800Y0097357D02*
X0187250Y0097357D01*
X0187250Y0098356D02*
X0182800Y0098356D01*
X0182800Y0099354D02*
X0187250Y0099354D01*
X0187250Y0100353D02*
X0182800Y0100353D01*
X0182800Y0101351D02*
X0187250Y0101351D01*
X0187250Y0102350D02*
X0182800Y0102350D01*
X0182800Y0103348D02*
X0187250Y0103348D01*
X0187250Y0104347D02*
X0182800Y0104347D01*
X0182800Y0105345D02*
X0187250Y0105345D01*
X0187250Y0106344D02*
X0182800Y0106344D01*
X0182800Y0107342D02*
X0187250Y0107342D01*
X0187250Y0108341D02*
X0182800Y0108341D01*
X0182800Y0109339D02*
X0187250Y0109339D01*
X0187250Y0110338D02*
X0182800Y0110338D01*
X0182800Y0111336D02*
X0187250Y0111336D01*
X0187250Y0112335D02*
X0182800Y0112335D01*
X0182800Y0113333D02*
X0187250Y0113333D01*
X0187250Y0114332D02*
X0182800Y0114332D01*
X0182800Y0115330D02*
X0187250Y0115330D01*
X0187250Y0116329D02*
X0182800Y0116329D01*
X0182800Y0117327D02*
X0187250Y0117327D01*
X0187250Y0118326D02*
X0182800Y0118326D01*
X0182800Y0119324D02*
X0187250Y0119324D01*
X0187250Y0120323D02*
X0181930Y0120323D01*
X0180931Y0121321D02*
X0187250Y0121321D01*
X0187250Y0122320D02*
X0179933Y0122320D01*
X0178934Y0123318D02*
X0187250Y0123318D01*
X0185727Y0132305D02*
X0175049Y0132305D01*
X0176623Y0133303D02*
X0184778Y0133303D01*
X0183829Y0134302D02*
X0177426Y0134302D01*
X0171951Y0132305D02*
X0165049Y0132305D01*
X0161951Y0132305D02*
X0155049Y0132305D01*
X0156623Y0133303D02*
X0160377Y0133303D01*
X0159574Y0134302D02*
X0157426Y0134302D01*
X0157840Y0135301D02*
X0159160Y0135301D01*
X0159031Y0136299D02*
X0157968Y0136299D01*
X0157968Y0137298D02*
X0159031Y0137298D01*
X0159407Y0138296D02*
X0157593Y0138296D01*
X0158123Y0139295D02*
X0159975Y0139295D01*
X0157500Y0141500D02*
X0188500Y0141500D01*
X0192500Y0137500D01*
X0192500Y0075500D01*
X0180500Y0075500D02*
X0166500Y0075500D01*
X0157015Y0085375D02*
X0178867Y0085375D01*
X0180381Y0091366D02*
X0130500Y0091366D01*
X0130500Y0092365D02*
X0179383Y0092365D01*
X0178384Y0093363D02*
X0130500Y0093363D01*
X0130500Y0094362D02*
X0178200Y0094362D01*
X0178200Y0095360D02*
X0171573Y0095360D01*
X0172571Y0096359D02*
X0178200Y0096359D01*
X0178200Y0097357D02*
X0173133Y0097357D01*
X0173546Y0098356D02*
X0178200Y0098356D01*
X0178200Y0099354D02*
X0173600Y0099354D01*
X0173600Y0100353D02*
X0178200Y0100353D01*
X0178200Y0101351D02*
X0173253Y0101351D01*
X0172840Y0102350D02*
X0178200Y0102350D01*
X0178200Y0103348D02*
X0171864Y0103348D01*
X0170800Y0104347D02*
X0178200Y0104347D01*
X0178200Y0105345D02*
X0170800Y0105345D01*
X0170800Y0106344D02*
X0178200Y0106344D01*
X0178200Y0107342D02*
X0170800Y0107342D01*
X0170800Y0108341D02*
X0178200Y0108341D01*
X0178200Y0109339D02*
X0170800Y0109339D01*
X0170800Y0110338D02*
X0178200Y0110338D01*
X0178200Y0111336D02*
X0169916Y0111336D01*
X0168918Y0112335D02*
X0178200Y0112335D01*
X0178200Y0113333D02*
X0167919Y0113333D01*
X0166921Y0114332D02*
X0178200Y0114332D01*
X0178200Y0115330D02*
X0165922Y0115330D01*
X0164924Y0116329D02*
X0178200Y0116329D01*
X0159580Y0144287D02*
X0157420Y0144287D01*
X0157834Y0145286D02*
X0159166Y0145286D01*
X0159031Y0146284D02*
X0157968Y0146284D01*
X0157968Y0147283D02*
X0159031Y0147283D01*
X0159401Y0148281D02*
X0157599Y0148281D01*
X0157040Y0149280D02*
X0159960Y0149280D01*
X0160959Y0150278D02*
X0156041Y0150278D01*
X0150959Y0150278D02*
X0146041Y0150278D01*
X0147040Y0149280D02*
X0149960Y0149280D01*
X0149401Y0148281D02*
X0147599Y0148281D01*
X0147968Y0147283D02*
X0149031Y0147283D01*
X0149031Y0146284D02*
X0147968Y0146284D01*
X0147834Y0145286D02*
X0149166Y0145286D01*
X0149580Y0144287D02*
X0147420Y0144287D01*
X0146608Y0143289D02*
X0150392Y0143289D01*
X0151987Y0142290D02*
X0145013Y0142290D01*
X0143984Y0140968D02*
X0143984Y0136984D01*
X0147968Y0136984D01*
X0147968Y0139666D01*
X0147866Y0140047D01*
X0147669Y0140390D01*
X0147390Y0140669D01*
X0147047Y0140866D01*
X0146666Y0140968D01*
X0143984Y0140968D01*
X0143984Y0140293D02*
X0143016Y0140293D01*
X0143016Y0140968D02*
X0140334Y0140968D01*
X0139953Y0140866D01*
X0139610Y0140669D01*
X0139331Y0140390D01*
X0139134Y0140047D01*
X0139031Y0139666D01*
X0139031Y0136984D01*
X0143016Y0136984D01*
X0143016Y0140968D01*
X0143016Y0139295D02*
X0143984Y0139295D01*
X0143984Y0138296D02*
X0143016Y0138296D01*
X0143016Y0137298D02*
X0143984Y0137298D01*
X0143984Y0134302D02*
X0143016Y0134302D01*
X0143016Y0133303D02*
X0143984Y0133303D01*
X0143984Y0132305D02*
X0143016Y0132305D01*
X0147344Y0132305D02*
X0151951Y0132305D01*
X0149031Y0137298D02*
X0147968Y0137298D01*
X0147968Y0138296D02*
X0149407Y0138296D01*
X0149975Y0139295D02*
X0147968Y0139295D01*
X0147724Y0140293D02*
X0150981Y0140293D01*
X0140959Y0150278D02*
X0057531Y0150278D01*
X0056532Y0149280D02*
X0120589Y0149280D01*
X0121667Y0153274D02*
X0060526Y0153274D01*
X0059528Y0152275D02*
X0196000Y0152275D01*
X0196000Y0151277D02*
X0058529Y0151277D01*
X0061525Y0154272D02*
X0119847Y0154272D01*
X0118969Y0155271D02*
X0062523Y0155271D01*
X0063522Y0156269D02*
X0118555Y0156269D01*
X0129297Y0163259D02*
X0132200Y0163259D01*
X0132200Y0164257D02*
X0131138Y0164257D01*
X0132025Y0165256D02*
X0132200Y0165256D01*
X0132200Y0162260D02*
X0069513Y0162260D01*
X0077985Y0177238D02*
X0003000Y0177238D01*
X0010811Y0179235D02*
X0060189Y0179235D01*
X0059190Y0180234D02*
X0011810Y0180234D01*
X0012808Y0181232D02*
X0058192Y0181232D01*
X0057850Y0182231D02*
X0013150Y0182231D01*
X0013150Y0183229D02*
X0057850Y0183229D01*
X0057850Y0184228D02*
X0013150Y0184228D01*
X0013150Y0185226D02*
X0057850Y0185226D01*
X0058649Y0186225D02*
X0012351Y0186225D01*
X0011353Y0187223D02*
X0059647Y0187223D01*
X0058228Y0189220D02*
X0012772Y0189220D01*
X0012772Y0190219D02*
X0058228Y0190219D01*
X0058228Y0191217D02*
X0012772Y0191217D01*
X0012772Y0192216D02*
X0058228Y0192216D01*
X0058228Y0193214D02*
X0012772Y0193214D01*
X0012772Y0194213D02*
X0058228Y0194213D01*
X0058228Y0195211D02*
X0012772Y0195211D01*
X0004228Y0195211D02*
X0003000Y0195211D01*
X0003000Y0194213D02*
X0004228Y0194213D01*
X0004228Y0193214D02*
X0003000Y0193214D01*
X0003000Y0192216D02*
X0004228Y0192216D01*
X0004228Y0191217D02*
X0003000Y0191217D01*
X0003000Y0190219D02*
X0004228Y0190219D01*
X0030074Y0142290D02*
X0049200Y0142290D01*
X0049200Y0141292D02*
X0031072Y0141292D01*
X0032000Y0140293D02*
X0049200Y0140293D01*
X0049200Y0139295D02*
X0032000Y0139295D01*
X0032000Y0138296D02*
X0049200Y0138296D01*
X0049200Y0137298D02*
X0032000Y0137298D01*
X0031663Y0136299D02*
X0049200Y0136299D01*
X0049200Y0135301D02*
X0030664Y0135301D01*
X0029666Y0134302D02*
X0049200Y0134302D01*
X0049200Y0127312D02*
X0032000Y0127312D01*
X0031678Y0126314D02*
X0049200Y0126314D01*
X0049200Y0125315D02*
X0030679Y0125315D01*
X0024956Y0122320D02*
X0003000Y0122320D01*
X0003000Y0121321D02*
X0023957Y0121321D01*
X0023000Y0120323D02*
X0003000Y0120323D01*
X0003000Y0119324D02*
X0023000Y0119324D01*
X0023000Y0118326D02*
X0011250Y0118326D01*
X0010426Y0119150D02*
X0006574Y0119150D01*
X0003850Y0116426D01*
X0003850Y0112574D01*
X0006574Y0109850D01*
X0010426Y0109850D01*
X0013150Y0112574D01*
X0013150Y0116426D01*
X0010426Y0119150D01*
X0012249Y0117327D02*
X0023000Y0117327D01*
X0023307Y0116329D02*
X0013150Y0116329D01*
X0013150Y0115330D02*
X0024306Y0115330D01*
X0025304Y0114332D02*
X0013150Y0114332D01*
X0013150Y0113333D02*
X0037500Y0113333D01*
X0037500Y0112335D02*
X0030029Y0112335D01*
X0029364Y0113000D02*
X0025636Y0113000D01*
X0023000Y0110364D01*
X0023000Y0106765D01*
X0022893Y0106872D01*
X0016107Y0106872D01*
X0015228Y0105993D01*
X0015228Y0099207D01*
X0016107Y0098328D01*
X0022893Y0098328D01*
X0023000Y0098435D01*
X0023000Y0096636D01*
X0025636Y0094000D01*
X0029364Y0094000D01*
X0032000Y0096636D01*
X0032000Y0100364D01*
X0029364Y0103000D01*
X0025636Y0103000D01*
X0023772Y0101136D01*
X0023772Y0105864D01*
X0025636Y0104000D01*
X0029364Y0104000D01*
X0032000Y0106636D01*
X0032000Y0110364D01*
X0029364Y0113000D01*
X0029696Y0114332D02*
X0036840Y0114332D01*
X0035841Y0115330D02*
X0030694Y0115330D01*
X0031693Y0116329D02*
X0034843Y0116329D01*
X0035500Y0118500D02*
X0027500Y0118500D01*
X0024971Y0112335D02*
X0012911Y0112335D01*
X0011912Y0111336D02*
X0023972Y0111336D01*
X0023000Y0110338D02*
X0010914Y0110338D01*
X0011469Y0106872D02*
X0008886Y0106872D01*
X0008886Y0102986D01*
X0008114Y0102986D01*
X0008114Y0106872D01*
X0005531Y0106872D01*
X0005149Y0106769D01*
X0004807Y0106572D01*
X0004528Y0106293D01*
X0004331Y0105951D01*
X0004228Y0105569D01*
X0004228Y0102986D01*
X0008114Y0102986D01*
X0008114Y0102214D01*
X0008886Y0102214D01*
X0008886Y0102986D01*
X0012772Y0102986D01*
X0012772Y0105569D01*
X0012669Y0105951D01*
X0012472Y0106293D01*
X0012193Y0106572D01*
X0011851Y0106769D01*
X0011469Y0106872D01*
X0012421Y0106344D02*
X0015579Y0106344D01*
X0015228Y0105345D02*
X0012772Y0105345D01*
X0012772Y0104347D02*
X0015228Y0104347D01*
X0015228Y0103348D02*
X0012772Y0103348D01*
X0012772Y0102214D02*
X0012772Y0099631D01*
X0012669Y0099249D01*
X0012472Y0098907D01*
X0012193Y0098628D01*
X0011851Y0098431D01*
X0011469Y0098328D01*
X0008886Y0098328D01*
X0008886Y0102214D01*
X0012772Y0102214D01*
X0012772Y0101351D02*
X0015228Y0101351D01*
X0015228Y0100353D02*
X0012772Y0100353D01*
X0012697Y0099354D02*
X0015228Y0099354D01*
X0016080Y0098356D02*
X0011571Y0098356D01*
X0008886Y0098356D02*
X0008114Y0098356D01*
X0008114Y0098328D02*
X0008114Y0102214D01*
X0004228Y0102214D01*
X0004228Y0099631D01*
X0004331Y0099249D01*
X0004528Y0098907D01*
X0004807Y0098628D01*
X0005149Y0098431D01*
X0005531Y0098328D01*
X0008114Y0098328D01*
X0008114Y0099354D02*
X0008886Y0099354D01*
X0008886Y0100353D02*
X0008114Y0100353D01*
X0008114Y0101351D02*
X0008886Y0101351D01*
X0008886Y0102350D02*
X0015228Y0102350D01*
X0008886Y0103348D02*
X0008114Y0103348D01*
X0008114Y0102350D02*
X0003000Y0102350D01*
X0003000Y0103348D02*
X0004228Y0103348D01*
X0004228Y0104347D02*
X0003000Y0104347D01*
X0003000Y0105345D02*
X0004228Y0105345D01*
X0004579Y0106344D02*
X0003000Y0106344D01*
X0003000Y0107342D02*
X0023000Y0107342D01*
X0023000Y0108341D02*
X0003000Y0108341D01*
X0003000Y0109339D02*
X0023000Y0109339D01*
X0023772Y0105345D02*
X0024291Y0105345D01*
X0023772Y0104347D02*
X0025289Y0104347D01*
X0023772Y0103348D02*
X0037500Y0103348D01*
X0037500Y0102350D02*
X0030014Y0102350D01*
X0031013Y0101351D02*
X0037500Y0101351D01*
X0037500Y0100353D02*
X0032000Y0100353D01*
X0032000Y0099354D02*
X0037500Y0099354D01*
X0037816Y0098356D02*
X0032000Y0098356D01*
X0032000Y0097357D02*
X0038814Y0097357D01*
X0039813Y0096359D02*
X0031723Y0096359D01*
X0029999Y0092365D02*
X0043807Y0092365D01*
X0042845Y0091366D02*
X0030998Y0091366D01*
X0027500Y0088500D02*
X0044500Y0088500D01*
X0047014Y0086373D02*
X0048474Y0086373D01*
X0050526Y0086373D02*
X0054545Y0086373D01*
X0055500Y0084500D02*
X0054500Y0083500D01*
X0018500Y0083500D01*
X0013500Y0088500D01*
X0010500Y0088500D01*
X0013998Y0091366D02*
X0024002Y0091366D01*
X0023004Y0090368D02*
X0014996Y0090368D01*
X0015459Y0089369D02*
X0023000Y0089369D01*
X0023000Y0088370D02*
X0016458Y0088370D01*
X0017456Y0087372D02*
X0023000Y0087372D01*
X0023263Y0086373D02*
X0018455Y0086373D01*
X0015794Y0083378D02*
X0003000Y0083378D01*
X0012740Y0084376D02*
X0014795Y0084376D01*
X0013797Y0085375D02*
X0013739Y0085375D01*
X0012985Y0082379D02*
X0016792Y0082379D01*
X0015446Y0080382D02*
X0023018Y0080382D01*
X0023000Y0079384D02*
X0016445Y0079384D01*
X0017443Y0078385D02*
X0023000Y0078385D01*
X0023000Y0077387D02*
X0018442Y0077387D01*
X0019440Y0076388D02*
X0023248Y0076388D01*
X0024017Y0081381D02*
X0013983Y0081381D01*
X0012999Y0092365D02*
X0025001Y0092365D01*
X0025274Y0094362D02*
X0003000Y0094362D01*
X0003000Y0095360D02*
X0024276Y0095360D01*
X0023277Y0096359D02*
X0003000Y0096359D01*
X0003000Y0097357D02*
X0023000Y0097357D01*
X0023000Y0098356D02*
X0022920Y0098356D01*
X0023772Y0101351D02*
X0023987Y0101351D01*
X0023772Y0102350D02*
X0024986Y0102350D01*
X0029711Y0104347D02*
X0037500Y0104347D01*
X0037500Y0105345D02*
X0030709Y0105345D01*
X0031708Y0106344D02*
X0037500Y0106344D01*
X0037500Y0107342D02*
X0032000Y0107342D01*
X0032000Y0108341D02*
X0037500Y0108341D01*
X0037500Y0109339D02*
X0032000Y0109339D01*
X0032000Y0110338D02*
X0037500Y0110338D01*
X0037500Y0111336D02*
X0031028Y0111336D01*
X0035500Y0118500D02*
X0039500Y0114500D01*
X0039500Y0099500D01*
X0049500Y0089500D01*
X0052781Y0089369D02*
X0066541Y0089369D01*
X0067539Y0090368D02*
X0052692Y0090368D01*
X0052274Y0091366D02*
X0068538Y0091366D01*
X0069536Y0092365D02*
X0051158Y0092365D01*
X0048465Y0093363D02*
X0070535Y0093363D01*
X0071500Y0091500D02*
X0064500Y0084500D01*
X0060500Y0084500D01*
X0055500Y0084500D01*
X0057008Y0087372D02*
X0052012Y0087372D01*
X0052584Y0088370D02*
X0058007Y0088370D01*
X0062993Y0088370D02*
X0065542Y0088370D01*
X0064544Y0087372D02*
X0063992Y0087372D01*
X0071500Y0091500D02*
X0092500Y0091500D01*
X0096500Y0087500D01*
X0103500Y0087500D01*
X0094464Y0092365D02*
X0116500Y0092365D01*
X0116500Y0093363D02*
X0093465Y0093363D01*
X0092500Y0079500D02*
X0092500Y0022500D01*
X0089349Y0023467D02*
X0088361Y0023467D01*
X0087363Y0024466D02*
X0089826Y0024466D01*
X0101500Y0044500D02*
X0128500Y0044500D01*
X0131500Y0074500D02*
X0102500Y0074500D01*
X0090500Y0062409D02*
X0090049Y0062409D01*
X0090500Y0061411D02*
X0088616Y0061411D01*
X0086384Y0061411D02*
X0063775Y0061411D01*
X0064773Y0062409D02*
X0084951Y0062409D01*
X0087500Y0064500D02*
X0060500Y0064500D01*
X0057038Y0067402D02*
X0041597Y0067402D01*
X0041781Y0068400D02*
X0045771Y0068400D01*
X0044773Y0069399D02*
X0041679Y0069399D01*
X0041243Y0070397D02*
X0043774Y0070397D01*
X0042776Y0071396D02*
X0040083Y0071396D01*
X0041043Y0066403D02*
X0056039Y0066403D01*
X0056000Y0065405D02*
X0039601Y0065405D01*
X0037399Y0065405D02*
X0030769Y0065405D01*
X0036500Y0079500D02*
X0053500Y0079500D01*
X0054920Y0098356D02*
X0059080Y0098356D01*
X0058228Y0099354D02*
X0055772Y0099354D01*
X0055772Y0100353D02*
X0058228Y0100353D01*
X0058228Y0101351D02*
X0055772Y0101351D01*
X0055772Y0102350D02*
X0058228Y0102350D01*
X0058228Y0103348D02*
X0055772Y0103348D01*
X0055772Y0104347D02*
X0058228Y0104347D01*
X0058228Y0105345D02*
X0055772Y0105345D01*
X0055421Y0106344D02*
X0058579Y0106344D01*
X0060086Y0110338D02*
X0053800Y0110338D01*
X0053800Y0111336D02*
X0059088Y0111336D01*
X0053800Y0109339D02*
X0124085Y0109339D01*
X0123086Y0110338D02*
X0064914Y0110338D01*
X0065912Y0111336D02*
X0122088Y0111336D01*
X0122983Y0111336D02*
X0123832Y0111336D01*
X0123982Y0112335D02*
X0124830Y0112335D01*
X0123821Y0118326D02*
X0122831Y0118326D01*
X0138850Y0108341D02*
X0053800Y0108341D01*
X0053800Y0107342D02*
X0138850Y0107342D01*
X0143133Y0097357D02*
X0143867Y0097357D01*
X0144429Y0096359D02*
X0142571Y0096359D01*
X0141573Y0095360D02*
X0145427Y0095360D01*
X0139031Y0137298D02*
X0137800Y0137298D01*
X0137800Y0138296D02*
X0139031Y0138296D01*
X0139031Y0139295D02*
X0137800Y0139295D01*
X0137800Y0140293D02*
X0139276Y0140293D01*
X0131457Y0142290D02*
X0131171Y0142290D01*
X0130455Y0161262D02*
X0132009Y0161262D01*
X0150138Y0172245D02*
X0150936Y0172245D01*
X0153740Y0177238D02*
X0154740Y0177238D01*
X0154740Y0178237D02*
X0153740Y0178237D01*
X0153740Y0179235D02*
X0154740Y0179235D01*
X0154740Y0180234D02*
X0153740Y0180234D01*
X0158299Y0175241D02*
X0162808Y0175241D01*
X0160397Y0174242D02*
X0158299Y0174242D01*
X0158271Y0173244D02*
X0159214Y0173244D01*
X0166192Y0175241D02*
X0196000Y0175241D01*
X0196000Y0174242D02*
X0168603Y0174242D01*
X0169786Y0173244D02*
X0196000Y0173244D01*
X0196000Y0172245D02*
X0170784Y0172245D01*
X0171390Y0171247D02*
X0196000Y0171247D01*
X0196000Y0170248D02*
X0171803Y0170248D01*
X0172217Y0169250D02*
X0196000Y0169250D01*
X0196000Y0168251D02*
X0172299Y0168251D01*
X0172299Y0167253D02*
X0196000Y0167253D01*
X0196000Y0166254D02*
X0172299Y0166254D01*
X0172012Y0165256D02*
X0196000Y0165256D01*
X0196000Y0164257D02*
X0171599Y0164257D01*
X0171185Y0163259D02*
X0196000Y0163259D01*
X0196000Y0162260D02*
X0170290Y0162260D01*
X0169292Y0161262D02*
X0196000Y0161262D01*
X0078038Y0179235D02*
X0064811Y0179235D01*
X0065810Y0180234D02*
X0076402Y0180234D01*
X0075569Y0181232D02*
X0066808Y0181232D01*
X0067150Y0182231D02*
X0075155Y0182231D01*
X0075000Y0183229D02*
X0067150Y0183229D01*
X0067480Y0184228D02*
X0075000Y0184228D01*
X0075344Y0185226D02*
X0068479Y0185226D01*
X0069477Y0186225D02*
X0075861Y0186225D01*
X0076859Y0187223D02*
X0070476Y0187223D01*
X0058751Y0117327D02*
X0053925Y0117327D01*
X0008886Y0106344D02*
X0008114Y0106344D01*
X0008114Y0105345D02*
X0008886Y0105345D01*
X0008886Y0104347D02*
X0008114Y0104347D01*
X0004228Y0101351D02*
X0003000Y0101351D01*
X0003000Y0100353D02*
X0004228Y0100353D01*
X0004302Y0099354D02*
X0003000Y0099354D01*
X0003000Y0098356D02*
X0005429Y0098356D01*
X0006086Y0110338D02*
X0003000Y0110338D01*
X0003000Y0111336D02*
X0005088Y0111336D01*
X0004089Y0112335D02*
X0003000Y0112335D01*
X0003000Y0113333D02*
X0003850Y0113333D01*
X0003850Y0114332D02*
X0003000Y0114332D01*
X0003000Y0115330D02*
X0003850Y0115330D01*
X0003850Y0116329D02*
X0003000Y0116329D01*
X0003000Y0117327D02*
X0004751Y0117327D01*
X0005750Y0118326D02*
X0003000Y0118326D01*
X0012925Y0042439D02*
X0025075Y0042439D01*
X0024077Y0041440D02*
X0013923Y0041440D01*
X0006173Y0026463D02*
X0003000Y0026463D01*
X0003000Y0025464D02*
X0007172Y0025464D01*
X0008170Y0024466D02*
X0003000Y0024466D01*
M02*
